<svg id="Layer_1" data-name="Layer 1" xmlns="http://www.w3.org/2000/svg" viewBox="0 0 214 214"><defs><style>.cls-1{fill:#fffa87;}.cls-2{fill:#ffe443;}.cls-3{fill:#fffbcf;}.cls-4{fill:#f2ba24;}.cls-5{fill:#d4931f;}</style></defs><title>blurcoins f</title><path class="cls-1" d="M70,17.89C25,39.89-.89,86.12,5.13,128.22L82,12.78A122.81,122.81,0,0,0,70,17.89Z"/><path class="cls-2" d="M82,12.78,5.13,128.22a82.89,82.89,0,0,0,2,9.75L92.69,9.48C89.12,10.41,85.56,11.49,82,12.78Z"/><path class="cls-2" d="M102.59,7.41,9.94,146.54l.8,2a78.92,78.92,0,0,0,6,11.45L119.29,6A108.85,108.85,0,0,0,102.59,7.41Z"/><path class="cls-1" d="M150.33,10.71a97.84,97.84,0,0,0-31-4.73L16.72,160a78.38,78.38,0,0,0,20.07,21.47Z"/><path class="cls-1" d="M92.69,9.48,7.12,138a78.91,78.91,0,0,0,2.82,8.57L102.59,7.41Q97.67,8.21,92.69,9.48Z"/><path class="cls-3" d="M150.33,10.71,36.79,181.43a83.68,83.68,0,0,0,16,9.18L167.38,18.37A87.36,87.36,0,0,0,150.33,10.71Z"/><path class="cls-1" d="M167.38,18.37,52.82,190.63a86.58,86.58,0,0,0,9.31,3.45L175.41,23.75A84,84,0,0,0,167.38,18.37Z"/><path class="cls-1" d="M182.06,29.39l-111,167a102.88,102.88,0,0,0,33.54,1.14L199.7,54.43A78.26,78.26,0,0,0,182.06,29.39Z"/><path class="cls-1" d="M126.48,192.45a118.51,118.51,0,0,0,14.63-6C187,164,213,116.34,205.53,73.59Z"/><path class="cls-3" d="M175.41,23.75,62.13,194.08q4.36,1.34,8.9,2.29l111-167A79.76,79.76,0,0,0,175.41,23.75Z"/><path class="cls-3" d="M200.31,55.82c-.2-.46-.39-.91-.61-1.37L104.55,197.51a113.35,113.35,0,0,0,21.9-5.05l79-118.86A80,80,0,0,0,200.31,55.82Z"/><path class="cls-4" d="M133.79,169.11c-42.1,20.59-89,7.3-104.58-29.61s6-83.7,48.07-104.29,89-7.3,104.58,29.61S175.87,148.54,133.79,169.11Z"/><path class="cls-5" d="M78.87,39c41.37-20.23,87.37-7.73,103.75,27.75-.25-.64-.48-1.29-.75-1.91-15.59-36.93-62.5-50.2-104.58-29.63S13.62,102.59,29.19,139.5c.27.63.57,1.23.86,1.86C16,104.77,37.5,59.23,78.87,39Z"/><path class="cls-5" d="M144.14,120.47c-1.09-9.64-7.72-15.23-16.2-18.32a54.42,54.42,0,0,0-9.54-2.43c-1.48-.25-3.1-.47-4.76-.7l-3.76-33.25c8.45-.89,13.18,1.84,13.66,6A10.17,10.17,0,0,1,120.88,80c1.93,1.89,4.44,3.52,9.94,2.38s7.87-4.91,7.15-11.18c-1.12-9.95-14-15.13-29-13.16l-.68-5.95-9.51,2,.7,6.11c-17.3,5.3-26.19,16.72-24.67,30.18,1.3,11.52,10,16.91,21.19,19.48,2.82.64,6,1.13,9.28,1.64L109.1,145c-8.45.89-13.18-1.84-13.66-6a10.17,10.17,0,0,1,2.66-8.25c-1.93-1.89-4.44-3.52-9.94-2.37s-7.87,4.91-7.15,11.18c1.12,9.95,14,15.14,29,13.16l.68,5.95,9.51-2-.7-6.11C136.77,145.33,145.65,133.93,144.14,120.47ZM88.5,84.41c-.87-7.7,3.69-13.32,11.88-16.41l3.32,29.27C96.12,95.47,89.39,92.16,88.5,84.41Zm30.09,58.41-3.34-29.43c4.69,1.2,9,2.95,12,5.93a11.72,11.72,0,0,1,3.16,7.09C131.35,134.11,126.78,139.73,118.59,142.82Z"/><path class="cls-1" d="M141.3,119.54c-1.09-9.64-7.72-15.23-16.2-18.32a54.59,54.59,0,0,0-9.54-2.43c-1.48-.25-3.1-.46-4.76-.7L107,64.86c8.46-.89,13.18,1.84,13.66,6A10.17,10.17,0,0,1,118,79.11C120,81,122.48,82.62,128,81.48s7.87-4.91,7.15-11.18c-1.12-9.95-14-15.13-29-13.16l-.68-5.95-9.53,2,.69,6.11C79.35,64.57,70.47,76,72,89.45c1.3,11.52,10,16.91,21.19,19.48,2.82.64,6,1.13,9.28,1.64l3.8,33.56c-8.46.89-13.18-1.84-13.66-6a10.17,10.17,0,0,1,2.66-8.25c-1.93-1.89-4.44-3.52-9.94-2.37s-7.87,4.91-7.15,11.18c1.12,9.95,14,15.14,29,13.16l.68,5.95,9.51-2-.7-6.11C133.93,144.41,142.82,133,141.3,119.54ZM85.66,83.48c-.87-7.7,3.69-13.32,11.88-16.41l3.32,29.27C93.26,94.55,86.54,91.25,85.66,83.48Zm30.09,58.41-3.34-29.43c4.69,1.2,9,2.95,12.06,5.93a11.73,11.73,0,0,1,3.16,7.09C128.51,133.2,123.94,138.81,115.76,141.9Z"/><path class="cls-3" d="M110.8,98.09l-2.71-24L99.76,86.59l1.11,9.77a37.81,37.81,0,0,1-6.26-2l-8.29,12.46a47,47,0,0,0,6.89,2.13c2.82.64,6,1.13,9.28,1.64L103,115l11-16.48C112.92,98.39,111.88,98.23,110.8,98.09Z"/><path class="cls-3" d="M120.7,70.86A10.17,10.17,0,0,1,118,79.11a8.74,8.74,0,0,0,7,2.75l9.46-14.23c-1.93-5.38-7.71-9-15.29-10.3L114,65.07C118.11,65.89,120.38,68,120.7,70.86Z"/><path class="cls-3" d="M85.32,127.48c-5.48,1.12-7.87,4.91-7.15,11.18a12.17,12.17,0,0,0,4,7.66L93.89,128.7C92.08,127.41,89.61,126.61,85.32,127.48Z"/><path class="cls-3" d="M123.39,117.45l8.54-12.84a33,33,0,0,0-6.83-3.37l-1.09-.36-8.37,12.57A23.58,23.58,0,0,1,123.39,117.45Z"/><path class="cls-3" d="M113,117.43l-8.33,12.5,1.52,13.39,8.31-12.52Z"/><path class="cls-3" d="M96.08,142.83l-5.37,8.05a36.86,36.86,0,0,0,9.53,1.36l5.37-8.05C101.47,144.54,98.27,144,96.08,142.83Z"/><path class="cls-5" d="M68.95,195.9l11,10.55a101.38,101.38,0,0,0,35.07.09l-9.58-9.18A101.63,101.63,0,0,1,68.95,195.9Z"/><path class="cls-4" d="M52.48,190.47l12.59,12.07A95.13,95.13,0,0,0,80,206.47l-11-10.55A91.75,91.75,0,0,1,52.48,190.47Z"/><path class="cls-5" d="M11.85,151c.34.89.7,1.79,1.07,2.66A87.62,87.62,0,0,0,65.1,202.54L52.5,190.47A79.29,79.29,0,0,1,11.85,151Z"/><path class="cls-5" d="M126.53,192.43l9,8.57c2.3-.87,4.58-1.82,6.85-2.86l-8.74-8.36C131.26,190.76,128.9,191.65,126.53,192.43Z"/><path class="cls-4" d="M105.46,197.38l9.58,9.18A109.33,109.33,0,0,0,135.48,201l-9-8.57A113.06,113.06,0,0,1,105.46,197.38Z"/><path class="cls-4" d="M202.47,60.95c-.37-.89-.77-1.75-1.16-2.62,17.68,46.11-8.81,103-60.22,128.11q-3.72,1.82-7.49,3.36l8.74,8.36c1-.46,2.05-.95,3.09-1.45C197.77,171.11,223.32,110.32,202.47,60.95Z"/></svg>