<svg width="1506" height="473" viewBox="0 0 1506 473" fill="none" xmlns="http://www.w3.org/2000/svg">
<g filter="url(#filter0_f)">
<path d="M82.7014 131.914C37.7497 153.915 11.849 200.15 17.8604 242.241L94.7421 126.806C90.7107 128.271 86.6793 129.967 82.7014 131.914Z" fill="#FFFA87"/>
<path d="M94.7421 126.806L17.8604 242.241C18.3241 245.527 19.002 248.777 19.8582 251.992L105.427 123.502C101.859 124.431 98.2918 125.52 94.7421 126.806Z" fill="#FFE443"/>
<path d="M115.327 121.431L22.6768 260.564C22.9443 261.225 23.2119 261.903 23.4795 262.564C25.1919 266.618 27.1898 270.422 29.4552 274.011L132.024 120.002C126.529 120.038 120.946 120.52 115.327 121.431Z" fill="#FFE443"/>
<path d="M163.061 124.735C153.339 121.556 142.851 119.931 132.023 120.002L29.4546 274.011C34.806 282.494 41.6201 289.691 49.5223 295.477L163.061 124.735Z" fill="#FFFA87"/>
<path d="M105.426 123.502L19.8577 251.992C20.6247 254.885 21.5701 257.742 22.6761 260.564L115.327 121.431C112.044 121.967 108.744 122.663 105.426 123.502Z" fill="#FFFA87"/>
<path d="M163.061 124.735L49.5225 295.459C54.4814 299.084 59.8507 302.156 65.5588 304.638L180.114 132.396C174.781 129.271 169.073 126.699 163.061 124.735Z" fill="#FFFBCF"/>
<path d="M180.115 132.396L65.5593 304.656C68.5739 305.977 71.6778 307.12 74.8708 308.102L188.142 137.771C185.573 135.825 182.898 134.039 180.115 132.396Z" fill="#FFFA87"/>
<path d="M194.795 143.414L83.7539 310.37C94.421 312.549 105.748 312.978 117.289 311.513L212.437 168.451C208.12 158.754 202.109 150.361 194.795 143.414Z" fill="#FFFA87"/>
<path d="M139.212 306.477C144.118 304.834 149.005 302.834 153.839 300.459C199.701 278.029 225.726 230.366 218.27 187.613L139.212 306.477Z" fill="#FFFA87"/>
<path d="M188.141 137.771L74.8699 308.102C77.7775 308.995 80.7386 309.763 83.771 310.388L194.812 143.432C192.672 141.414 190.46 139.521 188.141 137.771Z" fill="#FFFBCF"/>
<path d="M213.043 169.844C212.847 169.38 212.651 168.934 212.437 168.469L117.289 311.531C124.549 310.603 131.898 308.942 139.194 306.477L218.234 187.613C217.199 181.559 215.487 175.613 213.043 169.844Z" fill="#FFFBCF"/>
<path d="M146.526 283.137C104.428 303.727 57.5143 290.441 41.9417 253.528C26.3513 216.615 47.9174 169.827 90.0151 149.236C132.113 128.646 179.027 141.932 194.599 178.845C210.172 215.776 188.606 262.564 146.526 283.137Z" fill="#F2BA24"/>
<path d="M91.6026 153.022C132.969 132.789 178.973 145.289 195.348 180.774C195.099 180.131 194.867 179.488 194.599 178.863C179.009 141.932 132.095 128.663 90.015 149.236C47.9173 169.827 26.3512 216.615 41.9238 253.528C42.1914 254.153 42.4946 254.76 42.78 255.385C28.7058 218.794 50.2363 173.255 91.6026 153.022Z" fill="#D4931F"/>
<path d="M156.872 234.491C155.784 224.848 149.148 219.258 140.675 216.169C137.678 215.079 134.431 214.293 131.131 213.74C129.651 213.49 128.028 213.275 126.369 213.043L122.605 179.791C131.06 178.898 135.787 181.631 136.269 185.792C136.733 189.846 135.002 192.471 133.611 194.042C135.537 195.935 138.053 197.56 143.547 196.417C149.023 195.292 151.413 191.506 150.7 185.238C149.576 175.291 136.697 170.112 121.731 172.077L121.053 166.13L111.545 168.094L112.241 174.202C94.9382 179.506 86.0549 190.917 87.5711 204.382C88.8733 215.901 97.5782 221.294 108.763 223.865C111.581 224.508 114.756 224.99 118.038 225.508L121.838 259.064C113.383 259.957 108.656 257.224 108.174 253.064C107.71 249.01 109.44 246.385 110.832 244.813C108.905 242.92 106.39 241.295 100.896 242.438C95.4198 243.563 93.0295 247.349 93.7431 253.617C94.8668 263.564 107.746 268.761 122.712 266.779L123.39 272.725L132.897 270.761L132.202 264.653C149.505 259.35 158.388 247.956 156.872 234.491ZM101.235 198.435C100.361 190.738 104.927 185.113 113.115 182.024L116.433 211.293C108.852 209.49 102.127 206.186 101.235 198.435ZM131.328 256.849L127.992 227.419C132.683 228.616 137 230.366 140.033 233.348C141.906 235.187 142.905 237.83 143.19 240.438C144.082 248.135 139.515 253.76 131.328 256.849Z" fill="#D4931F"/>
<path d="M154.036 233.562C152.948 223.919 146.312 218.329 137.839 215.24C134.842 214.151 131.596 213.365 128.296 212.811C126.815 212.561 125.192 212.347 123.533 212.115L119.769 178.881C128.224 177.988 132.951 180.72 133.433 184.881C133.897 188.935 132.166 191.56 130.775 193.131C132.702 195.024 135.217 196.65 140.711 195.507C146.187 194.382 148.577 190.596 147.864 184.327C146.74 174.38 133.861 169.201 118.895 171.166L118.217 165.219L108.692 167.184L109.387 173.291C92.0844 178.595 83.2011 190.006 84.7174 203.471C86.0195 214.99 94.7245 220.383 105.909 222.955C108.727 223.598 111.902 224.08 115.185 224.598L118.984 258.153C110.529 259.046 105.802 256.314 105.32 252.153C104.856 248.099 106.587 245.474 107.978 243.902C106.052 242.009 103.536 240.384 98.0423 241.527C92.5661 242.652 90.1758 246.438 90.8893 252.706C92.0131 262.653 104.892 267.85 119.858 265.868L120.536 271.815L130.044 269.85L129.348 263.743C146.669 258.439 155.552 247.027 154.036 233.562ZM98.3991 197.507C97.525 189.81 102.092 184.185 110.279 181.095L113.597 210.365C105.998 208.579 99.2732 205.275 98.3991 197.507ZM128.492 255.921L125.156 226.491C129.847 227.687 134.164 229.437 137.215 232.419C139.088 234.259 140.086 236.902 140.372 239.509C141.246 247.224 136.679 252.831 128.492 255.921Z" fill="#FFFA87"/>
<path d="M123.532 212.115L120.821 188.096L112.491 200.614L113.597 210.383C111.402 209.865 109.28 209.204 107.335 208.365L99.0408 220.83C101.199 221.687 103.5 222.401 105.926 222.955C108.745 223.598 111.92 224.08 115.202 224.598L115.701 229.062L126.672 212.579C125.655 212.418 124.62 212.258 123.532 212.115Z" fill="#FFFBCF"/>
<path d="M133.433 184.881C133.897 188.935 132.166 191.56 130.775 193.132C132.327 194.649 134.253 195.989 137.767 195.882L147.222 181.649C145.295 176.273 139.516 172.666 131.934 171.345L126.779 179.095C130.846 179.916 133.112 182.059 133.433 184.881Z" fill="#FFFBCF"/>
<path d="M98.0598 241.509C92.5835 242.634 90.1932 246.42 90.9067 252.689C91.2457 255.707 92.6727 258.278 94.9024 260.35L106.622 242.724C104.82 241.438 102.341 240.634 98.0598 241.509Z" fill="#FFFBCF"/>
<path d="M136.126 231.473L144.671 218.633C142.601 217.276 140.3 216.151 137.839 215.258C137.482 215.133 137.107 215.008 136.751 214.901L128.385 227.473C131.292 228.419 133.95 229.687 136.126 231.473Z" fill="#FFFBCF"/>
<path d="M125.727 231.455L117.396 243.956L118.913 257.349L127.225 244.831L125.727 231.455Z" fill="#FFFBCF"/>
<path d="M108.816 256.85L103.447 264.904C106.319 265.743 109.53 266.189 112.972 266.261L118.341 258.207C114.203 258.564 111.01 258.01 108.816 256.85Z" fill="#FFFBCF"/>
<path d="M81.6848 309.924L92.7087 320.478C103.982 322.514 115.827 322.603 127.778 320.567L118.199 311.388C105.606 313.121 93.226 312.567 81.6848 309.924Z" fill="#D4931F"/>
<path d="M65.22 304.495L77.8136 316.567C82.6299 318.264 87.6066 319.585 92.7083 320.496L81.6844 309.942C75.9763 308.62 70.4643 306.817 65.22 304.495Z" fill="#F2BA24"/>
<path d="M24.5852 265.028C24.9241 265.921 25.2809 266.814 25.6555 267.689C35.7518 291.601 54.8563 308.442 77.8316 316.567L65.238 304.495C47.507 296.691 33.0047 283.244 24.5852 265.028Z" fill="#D4931F"/>
<path d="M139.265 306.46L148.22 315.031C150.521 314.156 152.804 313.21 155.07 312.174L146.329 303.816C143.992 304.781 141.638 305.674 139.265 306.46Z" fill="#D4931F"/>
<path d="M118.199 311.406L127.778 320.585C134.592 319.424 141.442 317.603 148.22 315.031L139.266 306.459C132.237 308.835 125.191 310.46 118.199 311.406Z" fill="#F2BA24"/>
<path d="M215.202 174.97C214.827 174.077 214.435 173.22 214.042 172.345C231.72 218.454 205.23 275.315 153.821 300.459C151.342 301.674 148.845 302.799 146.329 303.816L155.07 312.174C156.105 311.71 157.121 311.228 158.156 310.728C210.51 285.137 236.054 224.348 215.202 174.97Z" fill="#F2BA24"/>
</g>
<g clip-path="url(#clip0)">
<path d="M1417.77 6.66116C1392.61 18.9648 1378.11 44.8205 1381.48 68.3593L1424.51 3.80495C1422.25 4.62386 1420 5.5726 1417.77 6.66116Z" fill="#FFFA87"/>
<path d="M1424.51 3.80495L1381.48 68.3593C1381.74 70.1968 1382.12 72.0144 1382.6 73.812L1430.49 1.9574C1428.49 2.47671 1426.49 3.0859 1424.51 3.80495Z" fill="#FFE443"/>
<path d="M1436.03 0.798939L1384.17 78.6057C1384.32 78.9752 1384.47 79.3547 1384.62 79.7242C1385.58 81.9912 1386.7 84.1183 1387.97 86.1257L1445.37 0C1442.3 0.0199735 1439.17 0.289616 1436.03 0.798939Z" fill="#FFE443"/>
<path d="M1462.74 2.64648C1457.3 0.868842 1451.43 -0.0399512 1445.37 -4.24993e-06L1387.97 86.1257C1390.96 90.8694 1394.78 94.894 1399.2 98.1297L1462.74 2.64648Z" fill="#FFFA87"/>
<path d="M1430.49 1.9574L1382.6 73.812C1383.03 75.4299 1383.56 77.0278 1384.17 78.6057L1436.03 0.798943C1434.19 1.09854 1432.35 1.48803 1430.49 1.9574Z" fill="#FFFA87"/>
<path d="M1462.74 2.64649L1399.2 98.1198C1401.98 100.147 1404.98 101.865 1408.18 103.253L1472.29 6.9308C1469.3 5.18312 1466.11 3.74503 1462.74 2.64649Z" fill="#FFFBCF"/>
<path d="M1472.29 6.93079L1408.18 103.263C1409.86 104.002 1411.6 104.641 1413.39 105.19L1476.78 9.9368C1475.34 8.84825 1473.85 7.84957 1472.29 6.93079Z" fill="#FFFA87"/>
<path d="M1480.51 13.0926L1418.36 106.459C1424.33 107.677 1430.67 107.917 1437.13 107.098L1490.38 27.094C1487.96 21.6712 1484.6 16.9775 1480.51 13.0926Z" fill="#FFFA87"/>
<path d="M1449.4 104.282C1452.14 103.363 1454.88 102.244 1457.58 100.916C1483.25 88.3727 1497.82 61.7181 1493.64 37.8098L1449.4 104.282Z" fill="#FFFA87"/>
<path d="M1476.78 9.93681L1413.39 105.19C1415.01 105.69 1416.67 106.119 1418.37 106.469L1480.52 13.1026C1479.32 11.9741 1478.08 10.9155 1476.78 9.93681Z" fill="#FFFBCF"/>
<path d="M1490.72 27.873C1490.61 27.6133 1490.5 27.3637 1490.38 27.104L1437.13 107.108C1441.19 106.589 1445.3 105.66 1449.39 104.282L1493.62 37.8098C1493.04 34.4243 1492.09 31.0987 1490.72 27.873Z" fill="#FFFBCF"/>
<path d="M1453.49 91.2289C1429.93 102.744 1403.67 95.3135 1394.96 74.6709C1386.23 54.0283 1398.3 27.863 1421.86 16.3483C1445.42 4.83358 1471.68 12.2637 1480.4 32.9063C1489.11 53.5589 1477.04 79.7242 1453.49 91.2289Z" fill="#F2BA24"/>
<path d="M1422.75 18.4655C1445.9 7.15051 1471.65 14.1412 1480.82 33.9849C1480.68 33.6254 1480.55 33.2658 1480.4 32.9163C1471.67 12.2637 1445.41 4.84357 1421.86 16.3483C1398.3 27.863 1386.23 54.0283 1394.95 74.6709C1395.1 75.0204 1395.27 75.36 1395.43 75.7095C1387.55 55.2467 1399.6 29.7805 1422.75 18.4655Z" fill="#D4931F"/>
<path d="M1459.28 64.025C1458.67 58.6322 1454.96 55.5063 1450.22 53.7786C1448.54 53.1694 1446.72 52.73 1444.87 52.4204C1444.05 52.2806 1443.14 52.1608 1442.21 52.0309L1440.1 33.4356C1444.83 32.9363 1447.48 34.4642 1447.75 36.7912C1448.01 39.0582 1447.04 40.5262 1446.26 41.405C1447.34 42.4636 1448.75 43.3724 1451.82 42.7333C1454.89 42.1041 1456.23 39.9869 1455.83 36.4816C1455.2 30.919 1447.99 28.0228 1439.61 29.1213L1439.23 25.7958L1433.91 26.8943L1434.3 30.3098C1424.62 33.2758 1419.65 39.6574 1420.49 47.1874C1421.22 53.6288 1426.1 56.6448 1432.36 58.0829C1433.93 58.4424 1435.71 58.7121 1437.55 59.0017L1439.67 77.7668C1434.94 78.2661 1432.3 76.7381 1432.03 74.4112C1431.77 72.1442 1432.73 70.6762 1433.51 69.7973C1432.44 68.7387 1431.03 67.83 1427.95 68.4691C1424.89 69.0983 1423.55 71.2155 1423.95 74.7208C1424.58 80.2834 1431.79 83.1896 1440.16 82.081L1440.54 85.4066L1445.86 84.3081L1445.47 80.8926C1455.16 77.9266 1460.13 71.555 1459.28 64.025ZM1428.14 43.8618C1427.65 39.5575 1430.21 36.4117 1434.79 34.684L1436.65 51.0522C1432.41 50.0436 1428.64 48.196 1428.14 43.8618ZM1444.98 76.5284L1443.12 60.0703C1445.74 60.7394 1448.16 61.7181 1449.86 63.3859C1450.9 64.4145 1451.46 65.8925 1451.62 67.3506C1452.12 71.6549 1449.57 74.8007 1444.98 76.5284Z" fill="#D4931F"/>
<path d="M1457.69 63.5057C1457.08 58.1129 1453.37 54.987 1448.63 53.2593C1446.95 52.6501 1445.13 52.2107 1443.29 51.9011C1442.46 51.7613 1441.55 51.6414 1440.62 51.5116L1438.52 32.9263C1443.25 32.427 1445.89 33.9549 1446.16 36.2818C1446.42 38.5488 1445.45 40.0169 1444.67 40.8957C1445.75 41.9543 1447.16 42.8631 1450.24 42.2239C1453.3 41.5948 1454.64 39.4776 1454.24 35.9722C1453.61 30.4096 1446.4 27.5135 1438.03 28.612L1437.65 25.2864L1432.32 26.385L1432.7 29.8004C1423.02 32.7665 1418.05 39.148 1418.9 46.678C1419.63 53.1195 1424.5 56.1355 1430.76 57.5736C1432.34 57.9331 1434.11 58.2027 1435.95 58.4923L1438.08 77.2574C1433.34 77.7568 1430.7 76.2288 1430.43 73.9019C1430.17 71.6349 1431.14 70.1668 1431.92 69.288C1430.84 68.2294 1429.43 67.3206 1426.36 67.9598C1423.29 68.5889 1421.95 70.7061 1422.35 74.2115C1422.98 79.7741 1430.19 82.6802 1438.56 81.5717L1438.94 84.8973L1444.27 83.7988L1443.88 80.3833C1453.57 77.4172 1458.54 71.0357 1457.69 63.5057ZM1426.55 43.3425C1426.07 39.0382 1428.62 35.8924 1433.2 34.1646L1435.06 50.5329C1430.81 49.5342 1427.04 47.6867 1426.55 43.3425ZM1443.4 76.0091L1441.53 59.5509C1444.16 60.2201 1446.57 61.1988 1448.28 62.8665C1449.33 63.8952 1449.89 65.3732 1450.05 66.8313C1450.54 71.1456 1447.98 74.2814 1443.4 76.0091Z" fill="#FFFA87"/>
<path d="M1440.62 51.5116L1439.1 38.0794L1434.44 45.0801L1435.06 50.5429C1433.83 50.2533 1432.64 49.8838 1431.56 49.4144L1426.91 56.3851C1428.12 56.8645 1429.41 57.264 1430.77 57.5736C1432.35 57.9331 1434.12 58.2027 1435.96 58.4923L1436.24 60.989L1442.38 51.7713C1441.81 51.6814 1441.23 51.5915 1440.62 51.5116Z" fill="#FFFBCF"/>
<path d="M1446.16 36.2818C1446.42 38.5488 1445.45 40.0169 1444.67 40.8957C1445.54 41.7446 1446.62 42.4936 1448.59 42.4337L1453.88 34.4742C1452.8 31.4682 1449.57 29.4509 1445.32 28.7119L1442.44 33.0461C1444.71 33.5055 1445.98 34.7039 1446.16 36.2818Z" fill="#FFFBCF"/>
<path d="M1426.37 67.9498C1423.3 68.579 1421.96 70.6961 1422.36 74.2015C1422.55 75.8893 1423.35 77.3273 1424.6 78.4858L1431.16 68.6289C1430.15 67.9098 1428.76 67.4604 1426.37 67.9498Z" fill="#FFFBCF"/>
<path d="M1447.67 62.3372L1452.45 55.1568C1451.29 54.3978 1450.01 53.7686 1448.63 53.2693C1448.43 53.1994 1448.22 53.1295 1448.02 53.0695L1443.34 60.1002C1444.96 60.6295 1446.45 61.3386 1447.67 62.3372Z" fill="#FFFBCF"/>
<path d="M1441.85 62.3273L1437.19 69.318L1438.04 76.808L1442.69 69.8073L1441.85 62.3273Z" fill="#FFFBCF"/>
<path d="M1432.39 76.5284L1429.38 81.0324C1430.99 81.5018 1432.78 81.7515 1434.71 81.7914L1437.72 77.2874C1435.4 77.4871 1433.61 77.1775 1432.39 76.5284Z" fill="#FFFBCF"/>
<path d="M1417.2 106.209L1423.37 112.111C1429.68 113.25 1436.31 113.3 1443 112.161L1437.64 107.028C1430.59 107.997 1423.66 107.687 1417.2 106.209Z" fill="#D4931F"/>
<path d="M1407.99 103.173L1415.03 109.924C1417.73 110.873 1420.51 111.612 1423.37 112.121L1417.2 106.219C1414.01 105.48 1410.92 104.471 1407.99 103.173Z" fill="#F2BA24"/>
<path d="M1385.24 81.1023C1385.43 81.6017 1385.63 82.101 1385.84 82.5904C1391.49 95.9626 1402.19 105.38 1415.04 109.924L1408 103.173C1398.07 98.8088 1389.96 91.2888 1385.24 81.1023Z" fill="#D4931F"/>
<path d="M1449.43 104.272L1454.44 109.065C1455.73 108.576 1457 108.047 1458.27 107.467L1453.38 102.794C1452.07 103.333 1450.75 103.832 1449.43 104.272Z" fill="#D4931F"/>
<path d="M1437.64 107.038L1443 112.171C1446.81 111.522 1450.64 110.503 1454.44 109.065L1449.43 104.272C1445.49 105.6 1441.55 106.509 1437.64 107.038Z" fill="#F2BA24"/>
<path d="M1491.93 30.7392C1491.72 30.2399 1491.5 29.7605 1491.28 29.2711C1501.17 55.0569 1486.35 86.8547 1457.57 100.916C1456.19 101.595 1454.79 102.224 1453.38 102.794L1458.27 107.467C1458.85 107.208 1459.42 106.938 1460 106.658C1489.3 92.3474 1503.6 58.3525 1491.93 30.7392Z" fill="#F2BA24"/>
</g>
<g clip-path="url(#clip1)">
<path d="M1232.69 380.541C1211.69 390.776 1199.59 412.284 1202.4 431.865L1238.32 378.165C1236.44 378.846 1234.55 379.636 1232.69 380.541Z" fill="#FFFA87"/>
<path d="M1238.32 378.165L1202.4 431.865C1202.62 433.394 1202.93 434.906 1203.33 436.401L1243.31 376.628C1241.65 377.06 1239.98 377.567 1238.32 378.165Z" fill="#FFE443"/>
<path d="M1247.94 375.665L1204.65 440.389C1204.78 440.696 1204.9 441.012 1205.03 441.319C1205.83 443.205 1206.76 444.975 1207.82 446.644L1255.74 375C1253.17 375.017 1250.56 375.241 1247.94 375.665Z" fill="#FFE443"/>
<path d="M1270.24 377.201C1265.7 375.723 1260.8 374.967 1255.74 375L1207.82 446.644C1210.32 450.59 1213.5 453.938 1217.19 456.63L1270.24 377.201Z" fill="#FFFA87"/>
<path d="M1243.31 376.628L1203.33 436.401C1203.69 437.747 1204.13 439.076 1204.65 440.389L1247.94 375.665C1246.4 375.914 1244.86 376.238 1243.31 376.628Z" fill="#FFFA87"/>
<path d="M1270.24 377.201L1217.19 456.622C1219.51 458.308 1222.02 459.737 1224.68 460.892L1278.21 380.765C1275.71 379.312 1273.05 378.115 1270.24 377.201Z" fill="#FFFBCF"/>
<path d="M1278.21 380.765L1224.69 460.9C1226.09 461.515 1227.54 462.047 1229.04 462.503L1281.96 383.266C1280.76 382.36 1279.51 381.53 1278.21 380.765Z" fill="#FFFA87"/>
<path d="M1285.07 385.891L1233.19 463.559C1238.17 464.572 1243.46 464.771 1248.85 464.09L1293.31 397.538C1291.29 393.027 1288.48 389.123 1285.07 385.891Z" fill="#FFFA87"/>
<path d="M1259.1 461.748C1261.39 460.983 1263.67 460.053 1265.93 458.948C1287.36 448.514 1299.52 426.341 1296.03 406.452L1259.1 461.748Z" fill="#FFFA87"/>
<path d="M1281.96 383.266L1229.04 462.504C1230.39 462.919 1231.78 463.276 1233.19 463.567L1285.07 385.9C1284.07 384.961 1283.04 384.08 1281.96 383.266Z" fill="#FFFBCF"/>
<path d="M1293.59 398.186C1293.5 397.97 1293.41 397.763 1293.31 397.547L1248.85 464.099C1252.25 463.667 1255.68 462.894 1259.09 461.747L1296.02 406.452C1295.53 403.636 1294.73 400.87 1293.59 398.186Z" fill="#FFFBCF"/>
<path d="M1262.51 450.89C1242.84 460.468 1220.93 454.287 1213.65 437.116C1206.37 419.944 1216.44 398.178 1236.11 388.599C1255.78 379.021 1277.7 385.202 1284.97 402.373C1292.25 419.553 1282.17 441.319 1262.51 450.89Z" fill="#F2BA24"/>
<path d="M1236.85 390.361C1256.18 380.948 1277.67 386.763 1285.32 403.271C1285.21 402.971 1285.1 402.672 1284.97 402.382C1277.69 385.202 1255.77 379.029 1236.11 388.599C1216.44 398.178 1206.37 419.944 1213.64 437.116C1213.77 437.406 1213.91 437.689 1214.04 437.98C1207.47 420.957 1217.53 399.773 1236.85 390.361Z" fill="#D4931F"/>
<path d="M1267.35 428.26C1266.84 423.774 1263.74 421.173 1259.78 419.736C1258.38 419.229 1256.86 418.864 1255.32 418.606C1254.63 418.49 1253.87 418.39 1253.1 418.282L1251.34 402.814C1255.29 402.398 1257.5 403.669 1257.72 405.605C1257.94 407.491 1257.13 408.712 1256.48 409.443C1257.38 410.324 1258.55 411.08 1261.12 410.548C1263.68 410.025 1264.8 408.263 1264.46 405.347C1263.94 400.72 1257.92 398.311 1250.93 399.225L1250.61 396.458L1246.17 397.372L1246.5 400.213C1238.41 402.681 1234.26 407.989 1234.97 414.253C1235.58 419.612 1239.64 422.12 1244.87 423.317C1246.19 423.616 1247.67 423.84 1249.2 424.081L1250.98 439.691C1247.03 440.106 1244.82 438.835 1244.6 436.9C1244.38 435.014 1245.19 433.793 1245.84 433.062C1244.94 432.181 1243.76 431.425 1241.2 431.957C1238.64 432.48 1237.52 434.241 1237.85 437.157C1238.38 441.784 1244.4 444.202 1251.39 443.28L1251.7 446.046L1256.15 445.132L1255.82 442.291C1263.91 439.824 1268.06 434.524 1267.35 428.26ZM1241.35 411.487C1240.95 407.906 1243.08 405.289 1246.9 403.852L1248.45 417.468C1244.91 416.629 1241.77 415.092 1241.35 411.487ZM1255.41 438.661L1253.85 424.97C1256.05 425.527 1258.06 426.341 1259.48 427.728C1260.36 428.584 1260.82 429.813 1260.96 431.026C1261.37 434.607 1259.24 437.224 1255.41 438.661Z" fill="#D4931F"/>
<path d="M1266.02 427.828C1265.51 423.342 1262.41 420.741 1258.45 419.304C1257.05 418.797 1255.54 418.432 1254 418.174C1253.3 418.058 1252.55 417.958 1251.77 417.85L1250.01 402.39C1253.96 401.975 1256.17 403.246 1256.4 405.181C1256.61 407.067 1255.8 408.288 1255.15 409.019C1256.05 409.9 1257.23 410.656 1259.8 410.124C1262.35 409.601 1263.47 407.84 1263.14 404.924C1262.61 400.296 1256.6 397.887 1249.6 398.801L1249.29 396.035L1244.84 396.949L1245.16 399.79C1237.08 402.257 1232.93 407.566 1233.64 413.829C1234.24 419.188 1238.31 421.697 1243.54 422.893C1244.85 423.192 1246.34 423.416 1247.87 423.657L1249.65 439.267C1245.7 439.683 1243.49 438.412 1243.26 436.476C1243.04 434.59 1243.85 433.369 1244.5 432.638C1243.6 431.757 1242.43 431.001 1239.86 431.533C1237.3 432.056 1236.19 433.817 1236.52 436.733C1237.04 441.361 1243.06 443.778 1250.05 442.856L1250.37 445.622L1254.81 444.709L1254.49 441.867C1262.58 439.4 1266.73 434.092 1266.02 427.828ZM1240.03 411.055C1239.62 407.474 1241.75 404.857 1245.58 403.42L1247.13 417.036C1243.58 416.205 1240.44 414.669 1240.03 411.055ZM1254.09 438.229L1252.53 424.538C1254.72 425.095 1256.74 425.909 1258.16 427.296C1259.04 428.152 1259.5 429.381 1259.64 430.594C1260.05 434.183 1257.91 436.792 1254.09 438.229Z" fill="#FFFA87"/>
<path d="M1251.77 417.85L1250.5 406.677L1246.61 412.5L1247.13 417.044C1246.1 416.804 1245.11 416.496 1244.2 416.106L1240.33 421.904C1241.34 422.303 1242.41 422.635 1243.54 422.893C1244.86 423.192 1246.34 423.416 1247.88 423.657L1248.11 425.734L1253.24 418.066C1252.76 417.992 1252.28 417.917 1251.77 417.85Z" fill="#FFFBCF"/>
<path d="M1256.4 405.181C1256.61 407.067 1255.8 408.288 1255.15 409.019C1255.88 409.726 1256.78 410.349 1258.42 410.299L1262.84 403.678C1261.94 401.177 1259.24 399.499 1255.7 398.884L1253.29 402.49C1255.19 402.872 1256.25 403.869 1256.4 405.181Z" fill="#FFFBCF"/>
<path d="M1239.87 431.525C1237.31 432.048 1236.19 433.809 1236.53 436.725C1236.69 438.129 1237.35 439.325 1238.39 440.289L1243.87 432.089C1243.03 431.491 1241.87 431.117 1239.87 431.525Z" fill="#FFFBCF"/>
<path d="M1257.65 426.856L1261.65 420.883C1260.68 420.251 1259.6 419.728 1258.45 419.312C1258.29 419.254 1258.11 419.196 1257.95 419.146L1254.04 424.995C1255.4 425.435 1256.64 426.025 1257.65 426.856Z" fill="#FFFBCF"/>
<path d="M1252.8 426.847L1248.9 432.663L1249.61 438.893L1253.5 433.07L1252.8 426.847Z" fill="#FFFBCF"/>
<path d="M1244.9 438.661L1242.39 442.407C1243.73 442.798 1245.23 443.006 1246.84 443.039L1249.35 439.292C1247.41 439.458 1245.92 439.201 1244.9 438.661Z" fill="#FFFBCF"/>
<path d="M1232.22 463.351L1237.37 468.261C1242.64 469.208 1248.17 469.249 1253.75 468.302L1249.28 464.032C1243.39 464.838 1237.61 464.58 1232.22 463.351Z" fill="#D4931F"/>
<path d="M1224.53 460.825L1230.41 466.441C1232.66 467.23 1234.99 467.845 1237.37 468.269L1232.22 463.359C1229.55 462.744 1226.98 461.905 1224.53 460.825Z" fill="#F2BA24"/>
<path d="M1205.54 442.466C1205.7 442.881 1205.87 443.296 1206.04 443.703C1210.76 454.827 1219.68 462.661 1230.42 466.441L1224.54 460.825C1216.25 457.195 1209.48 450.939 1205.54 442.466Z" fill="#D4931F"/>
<path d="M1259.12 461.739L1263.3 465.727C1264.38 465.32 1265.45 464.879 1266.51 464.398L1262.42 460.51C1261.33 460.958 1260.23 461.374 1259.12 461.739Z" fill="#D4931F"/>
<path d="M1249.28 464.04L1253.75 468.311C1256.94 467.771 1260.14 466.923 1263.31 465.727L1259.12 461.739C1255.84 462.844 1252.55 463.6 1249.28 464.04Z" fill="#F2BA24"/>
<path d="M1294.6 400.571C1294.42 400.155 1294.24 399.756 1294.06 399.349C1302.32 420.8 1289.94 447.251 1265.92 458.948C1264.76 459.513 1263.6 460.036 1262.42 460.51L1266.51 464.398C1266.99 464.182 1267.46 463.957 1267.95 463.725C1292.41 451.82 1304.34 423.541 1294.6 400.571Z" fill="#F2BA24"/>
</g>
<path d="M1425.8 439.418C1396.58 416.637 1382.06 386.34 1393.36 371.741L1384.84 382.749C1373.54 397.348 1388.06 427.645 1417.28 450.426C1446.5 473.207 1479.35 479.841 1490.65 465.25L1499.17 454.242C1487.86 468.842 1455.01 462.199 1425.8 439.418Z" fill="#D4931F"/>
<path d="M1382.7 387.465C1384.81 384.747 1386.92 382.029 1389.03 379.301C1389.37 378.86 1389.48 377.933 1389.29 377.24C1389.27 377.177 1389.25 377.123 1389.22 377.069L1384.83 382.749C1383.68 384.234 1382.8 385.881 1382.17 387.672C1382.35 387.744 1382.54 387.681 1382.7 387.465Z" fill="#F2BA24"/>
<path d="M1388.99 384.117C1388.78 383.433 1388.33 383.235 1387.98 383.676C1385.87 386.394 1383.76 389.121 1381.65 391.84C1381.31 392.281 1381.21 393.199 1381.42 393.883C1381.64 394.567 1382.1 394.756 1382.44 394.315C1384.55 391.596 1386.66 388.878 1388.76 386.151C1389.12 385.71 1389.21 384.801 1388.99 384.117Z" fill="#F2BA24"/>
<path d="M1389.71 389.805C1389.47 389.139 1389 388.95 1388.66 389.391C1386.55 392.11 1384.44 394.828 1382.35 397.555C1382 397.996 1381.92 398.905 1382.16 399.571C1382.4 400.237 1382.87 400.417 1383.22 399.976C1385.33 397.258 1387.44 394.54 1389.54 391.812C1389.87 391.371 1389.94 390.471 1389.71 389.805Z" fill="#F2BA24"/>
<path d="M1391 394.837C1390.73 394.18 1390.25 394.009 1389.91 394.459C1387.8 397.177 1385.69 399.895 1383.58 402.622C1383.24 403.064 1383.17 403.955 1383.44 404.612C1383.71 405.269 1384.2 405.431 1384.54 404.99C1386.65 402.271 1388.76 399.553 1390.86 396.826C1391.21 396.376 1391.27 395.485 1391 394.837Z" fill="#F2BA24"/>
<path d="M1392.88 399.211C1392.6 398.572 1392.09 398.41 1391.75 398.86C1389.64 401.578 1387.53 404.297 1385.43 407.024C1385.09 407.465 1385.04 408.347 1385.32 408.986C1385.61 409.625 1386.13 409.778 1386.47 409.328C1388.58 406.61 1390.69 403.892 1392.79 401.164C1393.13 400.723 1393.17 399.85 1392.88 399.211Z" fill="#F2BA24"/>
<path d="M1394.91 403.478C1394.6 402.856 1394.08 402.712 1393.74 403.154C1391.63 405.872 1389.52 408.59 1387.41 411.317C1387.07 411.758 1387.04 412.631 1387.35 413.243C1387.66 413.864 1388.19 413.999 1388.54 413.558C1390.65 410.84 1392.76 408.122 1394.87 405.395C1395.21 404.954 1395.23 404.099 1394.91 403.478Z" fill="#F2BA24"/>
<path d="M1397.1 407.627C1396.77 407.024 1396.22 406.889 1395.88 407.339C1393.77 410.057 1391.66 412.775 1389.57 415.503C1389.22 415.944 1389.21 416.799 1389.54 417.402C1389.87 418.005 1390.43 418.131 1390.77 417.681C1392.88 414.963 1394.98 412.244 1397.09 409.517C1397.43 409.076 1397.43 408.23 1397.1 407.627Z" fill="#F2BA24"/>
<path d="M1399.44 411.659C1399.08 411.074 1398.53 410.957 1398.19 411.398C1396.08 414.117 1393.97 416.835 1391.86 419.562C1391.52 420.003 1391.52 420.84 1391.88 421.425C1392.24 422.01 1392.8 422.118 1393.15 421.677C1395.26 418.959 1397.37 416.241 1399.47 413.514C1399.81 413.072 1399.8 412.244 1399.44 411.659Z" fill="#F2BA24"/>
<path d="M1401.93 415.566C1401.55 414.999 1400.97 414.9 1400.62 415.341C1398.52 418.059 1396.41 420.786 1394.31 423.504C1393.97 423.945 1393.99 424.774 1394.36 425.332C1394.74 425.89 1395.33 425.989 1395.67 425.548C1397.78 422.829 1399.89 420.111 1401.99 417.384C1402.34 416.943 1402.3 416.124 1401.93 415.566Z" fill="#F2BA24"/>
<path d="M1404.55 419.337C1404.16 418.788 1403.56 418.698 1403.22 419.148C1401.11 421.866 1399 424.585 1396.9 427.312C1396.56 427.753 1396.6 428.563 1396.99 429.112C1397.39 429.661 1398 429.733 1398.34 429.292C1400.45 426.574 1402.55 423.855 1404.65 421.128C1405 420.678 1404.96 419.886 1404.55 419.337Z" fill="#F2BA24"/>
<path d="M1407.32 422.982C1406.9 422.46 1406.29 422.379 1405.95 422.829C1403.84 425.548 1401.74 428.266 1399.64 430.993C1399.3 431.434 1399.35 432.226 1399.77 432.757C1400.19 433.288 1400.81 433.351 1401.15 432.901C1403.26 430.183 1405.37 427.465 1407.47 424.738C1407.81 424.287 1407.75 423.504 1407.32 422.982Z" fill="#F2BA24"/>
<path d="M1410.24 426.484C1409.8 425.98 1409.17 425.926 1408.83 426.367C1406.72 429.085 1404.62 431.803 1402.52 434.53C1402.18 434.971 1402.25 435.746 1402.69 436.259C1403.13 436.772 1403.76 436.808 1404.1 436.367C1406.21 433.648 1408.32 430.93 1410.42 428.203C1410.76 427.762 1410.68 426.997 1410.24 426.484Z" fill="#F2BA24"/>
<path d="M1413.29 429.859C1412.83 429.373 1412.19 429.337 1411.85 429.778C1409.74 432.496 1407.63 435.214 1405.53 437.942C1405.19 438.383 1405.28 439.139 1405.74 439.625C1406.19 440.111 1406.85 440.138 1407.19 439.697C1409.3 436.979 1411.41 434.26 1413.5 431.533C1413.85 431.083 1413.75 430.336 1413.29 429.859Z" fill="#F2BA24"/>
<path d="M1416.46 433.081C1415.99 432.613 1415.33 432.595 1414.98 433.036C1412.88 435.755 1410.77 438.473 1408.66 441.2C1408.32 441.641 1408.42 442.388 1408.9 442.847C1409.38 443.306 1410.05 443.324 1410.39 442.883C1412.5 440.165 1414.61 437.447 1416.71 434.719C1417.06 434.269 1416.95 433.54 1416.46 433.081Z" fill="#F2BA24"/>
<path d="M1419.77 436.151C1419.28 435.71 1418.6 435.701 1418.26 436.151C1416.15 438.869 1414.04 441.587 1411.94 444.314C1411.59 444.755 1411.71 445.484 1412.2 445.925C1412.7 446.366 1413.39 446.357 1413.73 445.916C1415.84 443.198 1417.94 440.48 1420.04 437.753C1420.4 437.312 1420.28 436.592 1419.77 436.151Z" fill="#F2BA24"/>
<path d="M1423.21 439.085C1422.7 438.662 1422.01 438.68 1421.66 439.121C1419.55 441.839 1417.44 444.557 1415.33 447.285C1414.99 447.726 1415.13 448.437 1415.64 448.851C1416.15 449.274 1416.85 449.247 1417.2 448.806C1419.31 446.087 1421.42 443.369 1423.51 440.642C1423.87 440.192 1423.73 439.499 1423.21 439.085Z" fill="#F2BA24"/>
<path d="M1426.77 441.857C1426.24 441.461 1425.53 441.488 1425.19 441.938C1423.08 444.656 1420.98 447.375 1418.88 450.102C1418.54 450.543 1418.68 451.236 1419.22 451.632C1419.75 452.028 1420.46 451.983 1420.81 451.542C1422.91 448.824 1425.02 446.106 1427.12 443.378C1427.46 442.928 1427.3 442.253 1426.77 441.857Z" fill="#F2BA24"/>
<path d="M1430.44 444.467C1429.89 444.089 1429.17 444.143 1428.82 444.584C1426.72 447.303 1424.61 450.021 1422.51 452.748C1422.17 453.189 1422.33 453.855 1422.88 454.233C1423.43 454.602 1424.15 454.548 1424.5 454.098C1426.61 451.38 1428.72 448.662 1430.82 445.934C1431.17 445.502 1431 444.845 1430.44 444.467Z" fill="#F2BA24"/>
<path d="M1434.23 446.925C1433.67 446.574 1432.93 446.646 1432.59 447.087C1430.48 449.805 1428.38 452.532 1426.28 455.25C1425.94 455.691 1426.11 456.339 1426.68 456.69C1427.25 457.042 1427.99 456.961 1428.33 456.519C1430.44 453.801 1432.55 451.083 1434.65 448.356C1434.98 447.915 1434.8 447.276 1434.23 446.925Z" fill="#F2BA24"/>
<path d="M1438.13 449.22C1437.54 448.896 1436.8 448.986 1436.46 449.427C1434.35 452.145 1432.24 454.863 1430.14 457.591C1429.8 458.032 1429.99 458.662 1430.57 458.986C1431.16 459.31 1431.91 459.211 1432.25 458.77C1434.36 456.051 1436.47 453.333 1438.56 450.606C1438.91 450.165 1438.71 449.553 1438.13 449.22Z" fill="#F2BA24"/>
<path d="M1442.13 451.353C1441.53 451.056 1440.78 451.164 1440.44 451.605C1438.33 454.323 1436.22 457.042 1434.12 459.769C1433.78 460.21 1433.98 460.822 1434.58 461.119C1435.18 461.416 1435.95 461.299 1436.29 460.858C1438.39 458.14 1440.5 455.421 1442.6 452.694C1442.94 452.253 1442.73 451.659 1442.13 451.353Z" fill="#F2BA24"/>
<path d="M1446.23 453.315C1445.62 453.036 1444.85 453.171 1444.51 453.612C1442.4 456.33 1440.3 459.049 1438.2 461.776C1437.86 462.217 1438.07 462.811 1438.68 463.081C1439.29 463.36 1440.07 463.216 1440.41 462.775C1442.52 460.057 1444.63 457.339 1446.73 454.611C1447.07 454.17 1446.85 453.594 1446.23 453.315Z" fill="#F2BA24"/>
<path d="M1450.44 455.115C1449.81 454.863 1449.03 455.016 1448.69 455.457C1446.58 458.176 1444.48 460.894 1442.38 463.621C1442.04 464.062 1442.26 464.638 1442.89 464.89C1443.52 465.142 1444.31 464.98 1444.65 464.539C1446.75 461.821 1448.86 459.103 1450.97 456.375C1451.3 455.925 1451.07 455.367 1450.44 455.115Z" fill="#F2BA24"/>
<path d="M1454.74 456.735C1454.1 456.51 1453.3 456.681 1452.96 457.123C1450.85 459.841 1448.74 462.559 1446.65 465.286C1446.31 465.727 1446.54 466.276 1447.18 466.501C1447.81 466.726 1448.61 466.546 1448.96 466.105C1451.07 463.387 1453.18 460.669 1455.27 457.942C1455.62 457.501 1455.37 456.969 1454.74 456.735Z" fill="#F2BA24"/>
<path d="M1459.12 458.194C1458.47 457.996 1457.67 458.185 1457.32 458.626C1455.21 461.344 1453.1 464.062 1451 466.789C1450.66 467.23 1450.91 467.761 1451.56 467.96C1452.22 468.158 1453.02 467.96 1453.36 467.518C1455.47 464.8 1457.58 462.073 1459.68 459.355C1460.03 458.905 1459.78 458.392 1459.12 458.194Z" fill="#F2BA24"/>
<path d="M1463.59 459.472C1462.93 459.301 1462.11 459.508 1461.77 459.949C1459.66 462.667 1457.55 465.385 1455.45 468.112C1455.11 468.554 1455.36 469.067 1456.03 469.238C1456.69 469.418 1457.51 469.193 1457.86 468.743C1459.97 466.024 1462.07 463.306 1464.17 460.579C1464.51 460.138 1464.25 459.643 1463.59 459.472Z" fill="#F2BA24"/>
<path d="M1468.14 460.57C1467.46 460.417 1466.64 460.651 1466.3 461.092C1464.19 463.81 1462.08 466.528 1459.98 469.256C1459.64 469.697 1459.91 470.183 1460.58 470.336C1461.26 470.489 1462.09 470.237 1462.43 469.796C1464.54 467.077 1466.65 464.359 1468.76 461.632C1469.09 461.191 1468.81 460.723 1468.14 460.57Z" fill="#F2BA24"/>
<path d="M1472.76 461.497C1472.07 461.371 1471.24 461.632 1470.9 462.073C1468.79 464.791 1466.68 467.509 1464.58 470.237C1464.24 470.678 1464.51 471.146 1465.2 471.272C1465.89 471.398 1466.73 471.128 1467.07 470.687C1469.18 467.969 1471.28 465.25 1473.39 462.523C1473.72 462.073 1473.45 461.614 1472.76 461.497Z" fill="#F2BA24"/>
<path d="M1477.45 462.235C1476.75 462.136 1475.91 462.415 1475.57 462.856C1473.46 465.574 1471.36 468.292 1469.25 471.02C1468.91 471.461 1469.19 471.911 1469.89 472.001C1470.58 472.1 1471.43 471.812 1471.77 471.362C1473.88 468.644 1475.98 465.925 1478.09 463.198C1478.43 462.766 1478.15 462.334 1477.45 462.235Z" fill="#F2BA24"/>
<path d="M1482.63 462.253C1481.92 462.181 1481.08 462.478 1480.74 462.919C1478.63 465.637 1476.52 468.356 1474.42 471.083C1474.08 471.524 1474.37 471.947 1475.08 472.019C1475.79 472.091 1476.64 471.776 1476.98 471.335C1479.09 468.617 1481.2 465.898 1483.3 463.171C1483.63 462.739 1483.33 462.325 1482.63 462.253Z" fill="#F2BA24"/>
<path d="M1488.29 461.542C1487.58 461.497 1486.72 461.821 1486.38 462.262C1484.27 464.98 1482.16 467.698 1480.06 470.426C1479.72 470.867 1480.01 471.272 1480.73 471.317C1481.44 471.362 1482.3 471.029 1482.64 470.588C1484.75 467.869 1486.86 465.151 1488.95 462.424C1489.3 461.974 1489.01 461.587 1488.29 461.542Z" fill="#F2BA24"/>
<path d="M1492.93 460.327C1490.82 463.045 1488.71 465.763 1486.61 468.491C1486.45 468.707 1486.43 468.905 1486.54 469.049C1488.11 467.995 1489.48 466.735 1490.64 465.25L1495.04 459.571C1494.98 459.562 1494.92 459.553 1494.86 459.553C1494.14 459.544 1493.28 459.886 1492.93 460.327Z" fill="#F2BA24"/>
<path d="M1491.68 412.478L1390.08 389.796C1390.55 392.371 1391.32 395.062 1392.36 397.825L1496.98 421.182C1495.48 418.311 1493.7 415.395 1491.68 412.478Z" fill="#FFFBCF"/>
<path d="M1395.34 369.599L1464.83 385.107C1437.66 364.684 1407.85 358.167 1395.34 369.599Z" fill="#FFFA87"/>
<path d="M1474.55 393.154L1391.56 374.63C1390.98 375.791 1390.54 377.015 1390.21 378.302L1479.91 398.329C1478.21 396.583 1476.42 394.855 1474.55 393.154Z" fill="#FFE443"/>
<path d="M1466.73 386.565C1466.1 386.07 1465.46 385.593 1464.83 385.116L1395.34 369.599C1394.66 370.22 1394.03 370.895 1393.45 371.624L1469.2 388.536C1468.39 387.879 1467.56 387.213 1466.73 386.565Z" fill="#FFE443"/>
<path d="M1469.19 388.536L1393.45 371.633C1393.42 371.669 1393.39 371.705 1393.36 371.741C1392.66 372.641 1392.06 373.604 1391.56 374.63L1474.55 393.154C1472.84 391.588 1471.04 390.048 1469.19 388.536Z" fill="#FFFA87"/>
<path d="M1479.91 398.329L1390.21 378.302C1389.34 381.741 1389.31 385.62 1390.08 389.796L1491.68 412.478C1488.39 407.735 1484.44 402.965 1479.91 398.329Z" fill="#FFFA87"/>
<path d="M1414.34 429.391C1417.85 432.838 1421.68 436.205 1425.79 439.418C1455.01 462.199 1487.86 468.833 1499.16 454.242C1500.39 452.658 1501.31 450.885 1501.95 448.95L1414.34 429.391Z" fill="#FFFA87"/>
<path d="M1502.79 445.124L1409.44 424.288C1410.99 426.007 1412.63 427.717 1414.35 429.4L1501.96 448.959C1502.35 447.735 1502.62 446.457 1502.79 445.124Z" fill="#FFFBCF"/>
<path d="M1500 427.744L1395.32 404.378C1397.37 408.347 1399.93 412.406 1402.97 416.457L1502.82 438.743C1502.45 435.286 1501.49 431.587 1500 427.744Z" fill="#FFFBCF"/>
<path d="M1502.82 438.743L1402.97 416.457C1404.93 419.076 1407.09 421.695 1409.43 424.279L1502.79 445.115C1503.05 443.108 1503.06 440.975 1502.82 438.743Z" fill="#FFFA87"/>
<path d="M1496.98 421.173L1392.36 397.825C1393.18 399.967 1394.17 402.163 1395.32 404.387L1500 427.753C1499.16 425.593 1498.16 423.396 1496.98 421.173Z" fill="#FFFA87"/>
<path d="M1432.26 431.083C1405.04 409.859 1396.47 384.936 1402.53 377.114C1408.59 369.283 1434.76 371.453 1461.98 392.686C1489.21 413.91 1497.77 438.824 1491.71 446.655C1485.65 454.476 1459.48 452.307 1432.26 431.083Z" fill="#F2BA24"/>
<path d="M1459.7 395.647C1485.24 415.566 1494.36 438.734 1490.37 447.987C1490.89 447.582 1491.34 447.141 1491.72 446.655C1497.78 438.824 1489.21 413.91 1461.99 392.686C1434.77 371.453 1408.59 369.283 1402.53 377.114C1402.15 377.6 1401.84 378.14 1401.58 378.752C1409.52 372.587 1434.14 375.728 1459.7 395.647Z" fill="#D4931F"/>
<path d="M1477.11 434.485C1473.36 428.788 1466.66 423.162 1459.32 418.176C1456.72 416.412 1454.04 414.72 1451.38 413.145C1450.19 412.433 1448.91 411.686 1447.57 410.903L1434.65 391.282C1440.75 394.081 1445.16 397.42 1446.78 399.877C1448.35 402.272 1447.85 403.037 1447.28 403.361C1449.31 405.143 1451.7 407.006 1455.5 408.527C1459.29 410.039 1459.95 408.905 1457.51 405.197C1453.65 399.31 1442.35 391.471 1431.66 386.727L1429.34 383.208L1422.75 380.58L1425.13 384.189C1413.68 380.364 1410.43 383.136 1415.67 391.092C1420.14 397.888 1428.36 404.225 1437.58 409.985C1439.9 411.434 1442.45 412.937 1445.07 414.486L1458.12 434.305C1452.01 431.506 1447.61 428.167 1445.98 425.719C1444.41 423.324 1444.92 422.559 1445.48 422.235C1443.45 420.453 1441.06 418.59 1437.26 417.069C1433.47 415.557 1432.82 416.691 1435.26 420.399C1439.12 426.277 1450.42 434.116 1461.11 438.86L1463.43 442.379L1470.02 445.007L1467.64 441.398C1479.09 445.214 1482.34 442.442 1477.11 434.485ZM1424.18 393.154C1421.18 388.599 1422.92 387.312 1428.17 388.806L1439.55 406.088C1433.27 402.155 1427.19 397.735 1424.18 393.154ZM1464.6 436.772L1453.17 419.4C1457.08 421.884 1460.86 424.513 1464.06 427.33C1466.04 429.067 1467.59 430.894 1468.6 432.433C1471.59 436.979 1469.85 438.275 1464.6 436.772Z" fill="#D4931F"/>
<path d="M1478 433.405C1474.25 427.708 1467.55 422.082 1460.22 417.096C1457.62 415.332 1454.93 413.64 1452.28 412.064C1451.09 411.353 1449.8 410.606 1448.47 409.823L1435.54 390.201C1441.65 393.001 1446.05 396.34 1447.68 398.788C1449.25 401.182 1448.74 401.947 1448.18 402.272C1450.21 404.054 1452.6 405.917 1456.4 407.438C1460.19 408.95 1460.84 407.816 1458.4 404.108C1454.55 398.23 1443.25 390.39 1432.56 385.647L1430.24 382.128L1423.65 379.499L1426.03 383.109C1414.57 379.283 1411.33 382.056 1416.56 390.012C1421.04 396.808 1429.25 403.145 1438.48 408.905C1440.8 410.354 1443.35 411.857 1445.96 413.406L1459.01 433.225C1452.91 430.426 1448.5 427.087 1446.88 424.639C1445.31 422.244 1445.81 421.479 1446.38 421.155C1444.35 419.373 1441.96 417.51 1438.16 415.989C1434.37 414.477 1433.71 415.611 1436.15 419.319C1440.02 425.197 1451.32 433.036 1462.01 437.78L1464.32 441.299L1470.92 443.927L1468.54 440.318C1479.99 444.134 1483.24 441.362 1478 433.405ZM1425.07 392.074C1422.08 387.519 1423.82 386.232 1429.07 387.726L1440.45 405.008C1434.17 401.074 1428.09 396.655 1425.07 392.074ZM1465.5 435.692L1454.06 418.32C1457.97 420.804 1461.76 423.432 1464.96 426.25C1466.93 427.987 1468.49 429.814 1469.5 431.353C1472.5 435.899 1470.75 437.195 1465.5 435.692Z" fill="#FFFA87"/>
<path d="M1448.48 409.823L1443.16 401.749L1437.46 400.48L1440.45 405.017C1437.56 403.208 1434.72 401.29 1432.2 399.31L1422.76 397.204C1426.7 400.93 1431.55 404.486 1436.81 407.852L1450.21 410.84C1449.64 410.507 1449.06 410.165 1448.48 409.823Z" fill="#FFFBCF"/>
<path d="M1456.41 407.438C1459.75 408.77 1460.65 408.05 1459.15 405.323L1449.14 403.091C1450.98 404.612 1453.19 406.151 1456.41 407.438Z" fill="#FFFBCF"/>
<path d="M1468.54 440.309C1475.58 442.667 1479.52 442.514 1480.29 440.21L1455.89 434.764C1457.92 435.863 1459.98 436.871 1462.02 437.78L1463.85 440.561L1469.55 441.83L1468.54 440.309Z" fill="#FFFBCF"/>
<path d="M1446.89 424.63C1445.32 422.235 1445.82 421.47 1446.39 421.146C1444.36 419.364 1441.96 417.501 1438.17 415.98C1434.38 414.468 1433.72 415.602 1436.16 419.31C1437.36 421.137 1439.28 423.144 1441.67 425.197L1448.8 426.79C1447.97 426.025 1447.32 425.296 1446.89 424.63Z" fill="#FFFBCF"/>
<path d="M1454.06 418.32C1457.97 420.804 1461.76 423.432 1464.96 426.25C1466.93 427.987 1468.49 429.814 1469.5 431.353C1469.52 431.38 1469.53 431.407 1469.55 431.425L1477.93 433.297C1474.85 428.662 1469.82 424.072 1464.09 419.841L1447.81 416.205L1455.81 428.356L1461.51 429.625L1454.06 418.32Z" fill="#FFFBCF"/>
<path d="M1432.56 385.647L1431.24 383.64L1425.54 382.371L1426.03 383.109C1418.42 380.562 1414.44 380.94 1414.15 383.802L1440.56 389.697C1437.94 388.212 1435.23 386.835 1432.56 385.647Z" fill="#FFE443"/>
<g opacity="0.5">
<path opacity="0.5" d="M1392.43 397.978L1383.91 408.986C1384.74 411.164 1385.75 413.396 1386.93 415.647L1395.45 404.639C1394.27 402.379 1393.26 400.156 1392.43 397.978Z" fill="#D4931F"/>
<path opacity="0.5" d="M1393.36 371.741L1384.84 382.749C1381.22 387.411 1380.26 393.685 1381.56 400.804L1390.08 389.796C1388.78 382.677 1389.75 376.412 1393.36 371.741Z" fill="#D4931F"/>
<path opacity="0.5" d="M1468.1 460.615L1459.58 471.623C1464.37 472.676 1468.87 473.126 1472.97 472.955L1481.49 461.947C1477.39 462.118 1472.89 461.668 1468.1 460.615Z" fill="#D4931F"/>
<path opacity="0.5" d="M1402.84 416.286L1394.32 427.294C1396.46 430.174 1398.85 433.054 1401.46 435.89L1409.98 424.882C1407.37 422.037 1404.99 419.166 1402.84 416.286Z" fill="#D4931F"/>
</g>
<defs>
<filter id="filter0_f" x="-14" y="88" width="269" height="265" filterUnits="userSpaceOnUse" color-interpolation-filters="sRGB">
<feFlood flood-opacity="0" result="BackgroundImageFix"/>
<feBlend mode="normal" in="SourceGraphic" in2="BackgroundImageFix" result="shape"/>
<feGaussianBlur stdDeviation="7" result="effect1_foregroundBlur"/>
</filter>
<clipPath id="clip0">
<rect width="115" height="113" fill="white" transform="translate(1381)"/>
</clipPath>
<clipPath id="clip1">
<rect width="96" height="94" fill="white" transform="translate(1202 375)"/>
</clipPath>
</defs>
</svg>
