<svg id="Layer_1" data-name="Layer 1" xmlns="http://www.w3.org/2000/svg" xmlns:xlink="http://www.w3.org/1999/xlink" viewBox="0 0 330 154"><defs><style>.cls-1{fill:none;}.cls-2{clip-path:url(#clip-path);}.cls-3{fill:#fffa87;}.cls-4{fill:#ffe443;}.cls-5{fill:#fffbcf;}.cls-6{fill:#f2ba24;}.cls-7,.cls-9{fill:#d4931f;}.cls-8,.cls-9{opacity:0.5;}.cls-9{isolation:isolate;}</style><clipPath id="clip-path"><rect class="cls-1" x="18" y="36" width="96" height="94"/></clipPath></defs><title>blurcoins f</title><g class="cls-2"><path class="cls-3" d="M48.69,41.54c-21,10.24-33.1,31.74-30.29,51.32l35.92-53.7A58.17,58.17,0,0,0,48.69,41.54Z"/><path class="cls-4" d="M54.32,39.17,18.4,92.86a39.07,39.07,0,0,0,.93,4.54l40-59.77C57.65,38.06,56,38.57,54.32,39.17Z"/><path class="cls-4" d="M63.94,36.67,20.65,101.39c.13.31.25.62.38.93a36.45,36.45,0,0,0,2.79,5.33L71.74,36A51,51,0,0,0,63.94,36.67Z"/><path class="cls-3" d="M86.24,38.2A45.9,45.9,0,0,0,71.74,36L23.82,107.64a36.54,36.54,0,0,0,9.37,10Z"/><path class="cls-3" d="M59.31,37.63l-40,59.77a36.27,36.27,0,0,0,1.32,4L63.94,36.67C62.4,36.91,60.86,37.24,59.31,37.63Z"/><path class="cls-5" d="M86.24,38.2,33.19,117.62a39.47,39.47,0,0,0,7.49,4.27L94.21,41.77A41.19,41.19,0,0,0,86.24,38.2Z"/><path class="cls-3" d="M94.21,41.77,40.69,121.9A39,39,0,0,0,45,123.5L98,44.27A39.21,39.21,0,0,0,94.21,41.77Z"/><path class="cls-3" d="M101.07,46.89,49.19,124.56a48.25,48.25,0,0,0,15.66.53l44.46-66.55A36.56,36.56,0,0,0,101.07,46.89Z"/><path class="cls-3" d="M75.1,122.75a55.77,55.77,0,0,0,6.83-2.8c21.43-10.43,33.59-32.61,30.1-52.5Z"/><path class="cls-5" d="M98,44.27,45,123.5c1.35.42,2.74.77,4.15,1.06L101.07,46.9A37.66,37.66,0,0,0,98,44.27Z"/><path class="cls-5" d="M109.59,59.19c-.09-.22-.18-.42-.28-.64L64.85,125.1a53.09,53.09,0,0,0,10.24-2.35L112,67.45A37.56,37.56,0,0,0,109.59,59.19Z"/><path class="cls-6" d="M78.51,111.89c-19.67,9.58-41.58,3.4-48.86-13.77S32.44,59.18,52.11,49.6,93.7,46.2,101,63.37,98.17,102.32,78.51,111.89Z"/><path class="cls-7" d="M52.85,51.36c19.33-9.41,40.82-3.6,48.47,12.91-.11-.3-.22-.6-.35-.89C93.69,46.2,71.77,40,52.11,49.6S22.37,80.94,29.64,98.12c.13.29.27.57.4.86C23.47,82,33.53,60.77,52.85,51.36Z"/><path class="cls-7" d="M83.35,89.26c-.51-4.49-3.61-7.09-7.57-8.52a25.64,25.64,0,0,0-4.46-1.13c-.69-.12-1.45-.22-2.22-.32L67.34,63.81c4-.42,6.16.86,6.38,2.79a4.71,4.71,0,0,1-1.24,3.84c.9.88,2.07,1.64,4.64,1.11s3.68-2.29,3.34-5.2c-.52-4.63-6.54-7-13.53-6.12l-.32-2.77-4.44.91.33,2.84C54.41,63.68,50.26,69,51,75.25c.61,5.36,4.67,7.87,9.9,9.06,1.32.3,2.8.52,4.33.76L67,100.69c-3.95.41-6.16-.86-6.38-2.79a4.71,4.71,0,0,1,1.24-3.84c-.9-.88-2.08-1.64-4.64-1.11s-3.68,2.28-3.35,5.2c.53,4.63,6.55,7,13.54,6.12L67.7,107l4.45-.91-.33-2.84C79.91,100.82,84.06,95.52,83.35,89.26Zm-26-16.77c-.4-3.58,1.73-6.2,5.55-7.64l1.55,13.62C60.91,77.63,57.77,76.09,57.35,72.49ZM71.41,99.66,69.85,86a12.22,12.22,0,0,1,5.63,2.76A5.46,5.46,0,0,1,77,92C77.37,95.61,75.24,98.22,71.41,99.66Z"/><path class="cls-3" d="M82,88.83c-.51-4.49-3.61-7.09-7.57-8.52A25.52,25.52,0,0,0,70,79.17c-.7-.12-1.45-.22-2.23-.32L66,63.39c3.95-.42,6.16.86,6.39,2.79A4.74,4.74,0,0,1,71.15,70c.9.88,2.08,1.64,4.65,1.1s3.67-2.28,3.34-5.2c-.53-4.63-6.54-7-13.54-6.12L65.29,57l-4.45.91.32,2.84c-8.08,2.47-12.23,7.78-11.52,14,.6,5.36,4.67,7.87,9.9,9.06,1.31.3,2.8.52,4.33.76l1.78,15.61c-4,.42-6.16-.86-6.39-2.79a4.71,4.71,0,0,1,1.24-3.84c-.9-.88-2.07-1.64-4.64-1.11s-3.67,2.28-3.34,5.2c.52,4.63,6.54,7,13.53,6.12l.32,2.77,4.44-.91-.32-2.84C78.58,100.4,82.73,95.09,82,88.83ZM56,72.05c-.41-3.58,1.72-6.2,5.55-7.63L63.13,78C59.58,77.2,56.44,75.67,56,72.05ZM70.09,99.23,68.53,85.54a12.27,12.27,0,0,1,5.63,2.76,5.46,5.46,0,0,1,1.48,3.3C76.05,95.18,73.91,97.79,70.09,99.23Z"/><path class="cls-5" d="M67.77,78.85,66.5,67.68,62.61,73.5,63.13,78a17.61,17.61,0,0,1-2.93-.94l-3.87,5.8a22.14,22.14,0,0,0,3.21,1c1.32.3,2.8.52,4.34.76l.23,2.08,5.13-7.67Z"/><path class="cls-5" d="M72.4,66.18A4.74,4.74,0,0,1,71.15,70a4.11,4.11,0,0,0,3.27,1.28l4.42-6.62c-.9-2.5-3.6-4.18-7.14-4.79l-2.41,3.61C71.19,63.87,72.25,64.87,72.4,66.18Z"/><path class="cls-5" d="M55.87,92.52c-2.56.52-3.68,2.28-3.34,5.2a5.66,5.66,0,0,0,1.86,3.56l5.48-8.2A4.76,4.76,0,0,0,55.87,92.52Z"/><path class="cls-5" d="M73.65,87.86l4-6a15.55,15.55,0,0,0-3.2-1.57l-.5-.17L70,86A10.91,10.91,0,0,1,73.65,87.86Z"/><path class="cls-5" d="M68.8,87.85l-3.9,5.82.71,6.23,3.89-5.82Z"/><path class="cls-5" d="M60.9,99.66l-2.51,3.75a17.21,17.21,0,0,0,4.45.63l2.51-3.75A8.14,8.14,0,0,1,60.9,99.66Z"/><path class="cls-7" d="M48.22,124.35l5.15,4.91a47.55,47.55,0,0,0,16.38,0L65.28,125A47.69,47.69,0,0,1,48.22,124.35Z"/><path class="cls-6" d="M40.53,121.83l5.88,5.62a44.78,44.78,0,0,0,7,1.83l-5.15-4.91A42.9,42.9,0,0,1,40.53,121.83Z"/><path class="cls-7" d="M21.54,103.47c.16.42.33.83.5,1.24a40.86,40.86,0,0,0,24.38,22.74l-5.88-5.62A37,37,0,0,1,21.54,103.47Z"/><path class="cls-7" d="M75.12,122.74l4.18,4q1.62-.61,3.21-1.33l-4.09-3.89C77.33,122,76.23,122.37,75.12,122.74Z"/><path class="cls-6" d="M65.28,125l4.47,4.27a51.31,51.31,0,0,0,9.56-2.58l-4.19-4A52.87,52.87,0,0,1,65.28,125Z"/><path class="cls-6" d="M110.6,61.57l-.54-1.22c8.26,21.45-4.12,47.9-28.14,59.6-1.16.57-2.32,1.09-3.5,1.56l4.09,3.89,1.44-.67C108.41,112.82,120.34,84.54,110.6,61.57Z"/></g><path class="cls-7" d="M241.8,100.42c-29.22-22.78-43.74-53.08-32.44-67.68l-8.52,11c-11.3,14.6,3.22,44.9,32.44,67.68s62.07,29.42,73.37,14.82l8.52-11C303.86,129.84,271,123.2,241.8,100.42Z"/><path class="cls-6" d="M198.7,48.46,205,40.3a2.68,2.68,0,0,0,.26-2.06.9.9,0,0,0-.07-.17l-4.39,5.68a17.43,17.43,0,0,0-2.66,4.92A.44.44,0,0,0,198.7,48.46Z"/><path class="cls-6" d="M205,45.12c-.21-.68-.66-.88-1-.44l-6.33,8.16a2.55,2.55,0,0,0-.23,2c.22.68.68.87,1,.43q3.17-4.08,6.32-8.16A2.42,2.42,0,0,0,205,45.12Z"/><path class="cls-6" d="M205.71,50.8c-.24-.67-.71-.85-1-.41q-3.16,4.08-6.31,8.16a2.35,2.35,0,0,0-.19,2c.24.67.71.85,1.06.4q3.16-4.08,6.32-8.16A2.44,2.44,0,0,0,205.71,50.8Z"/><path class="cls-6" d="M207,55.84c-.27-.66-.75-.83-1.09-.38l-6.33,8.16a2.24,2.24,0,0,0-.14,2c.27.66.76.82,1.1.38q3.16-4.08,6.32-8.16A2.21,2.21,0,0,0,207,55.84Z"/><path class="cls-6" d="M208.88,60.21c-.28-.64-.79-.8-1.13-.35q-3.16,4.08-6.32,8.16a2.15,2.15,0,0,0-.11,2c.29.64.81.79,1.15.34q3.16-4.08,6.32-8.16A2.11,2.11,0,0,0,208.88,60.21Z"/><path class="cls-6" d="M210.91,64.48c-.31-.62-.83-.77-1.17-.32l-6.33,8.16a2,2,0,0,0-.06,1.93c.31.62.84.76,1.19.32l6.33-8.16A2,2,0,0,0,210.91,64.48Z"/><path class="cls-6" d="M213.1,68.63c-.33-.6-.88-.74-1.22-.29q-3.16,4.08-6.31,8.16a1.88,1.88,0,0,0,0,1.9c.33.6.89.73,1.23.28l6.32-8.16A1.89,1.89,0,0,0,213.1,68.63Z"/><path class="cls-6" d="M215.44,72.66c-.36-.58-.91-.7-1.25-.26l-6.33,8.16a1.78,1.78,0,0,0,0,1.86c.36.59.92.69,1.27.25q3.16-4.08,6.32-8.16A1.77,1.77,0,0,0,215.44,72.66Z"/><path class="cls-6" d="M217.93,76.57c-.38-.57-1-.67-1.31-.23l-6.31,8.16a1.71,1.71,0,0,0,0,1.83c.38.56,1,.66,1.31.22q3.16-4.08,6.32-8.16A1.67,1.67,0,0,0,217.93,76.57Z"/><path class="cls-6" d="M220.55,80.34c-.39-.55-1-.64-1.33-.19q-3.16,4.08-6.32,8.16a1.63,1.63,0,0,0,.09,1.8c.4.55,1,.62,1.35.18q3.16-4.08,6.31-8.16A1.56,1.56,0,0,0,220.55,80.34Z"/><path class="cls-6" d="M223.32,84c-.42-.52-1-.6-1.37-.15q-3.16,4.08-6.31,8.16a1.52,1.52,0,0,0,.13,1.76c.42.53,1,.59,1.38.14q3.16-4.08,6.32-8.16A1.5,1.5,0,0,0,223.32,84Z"/><path class="cls-6" d="M226.24,87.48a.89.89,0,0,0-1.41-.12q-3.16,4.08-6.31,8.16a1.45,1.45,0,0,0,.17,1.73.88.88,0,0,0,1.41.11q3.16-4.08,6.32-8.16A1.44,1.44,0,0,0,226.24,87.48Z"/><path class="cls-6" d="M229.29,90.86a.92.92,0,0,0-1.44-.08q-3.16,4.08-6.32,8.16a1.36,1.36,0,0,0,.21,1.68.93.93,0,0,0,1.45.07q3.17-4.08,6.31-8.16A1.33,1.33,0,0,0,229.29,90.86Z"/><path class="cls-6" d="M232.46,94.08A1,1,0,0,0,231,94l-6.32,8.16a1.29,1.29,0,0,0,.24,1.65,1,1,0,0,0,1.49,0q3.16-4.08,6.32-8.16A1.26,1.26,0,0,0,232.46,94.08Z"/><path class="cls-6" d="M235.77,97.15a1,1,0,0,0-1.51,0q-3.16,4.08-6.32,8.16a1.22,1.22,0,0,0,.26,1.61,1,1,0,0,0,1.53,0q3.16-4.08,6.31-8.16A1.18,1.18,0,0,0,235.77,97.15Z"/><path class="cls-6" d="M239.21,100.08a1.08,1.08,0,0,0-1.55,0l-6.33,8.16a1.17,1.17,0,0,0,.31,1.57,1.1,1.1,0,0,0,1.56,0q3.17-4.08,6.31-8.16A1.12,1.12,0,0,0,239.21,100.08Z"/><path class="cls-6" d="M242.77,102.86a1.13,1.13,0,0,0-1.58.08Q238,107,234.88,111.1a1.1,1.1,0,0,0,.34,1.53,1.16,1.16,0,0,0,1.59-.09q3.15-4.08,6.31-8.16A1.1,1.1,0,0,0,242.77,102.86Z"/><path class="cls-6" d="M246.44,105.47a1.21,1.21,0,0,0-1.62.12l-6.31,8.16a1,1,0,0,0,.37,1.49,1.21,1.21,0,0,0,1.62-.14q3.16-4.08,6.32-8.16A1,1,0,0,0,246.44,105.47Z"/><path class="cls-6" d="M250.23,107.92a1.27,1.27,0,0,0-1.64.16q-3.16,4.08-6.31,8.16a1,1,0,0,0,.4,1.44,1.28,1.28,0,0,0,1.65-.17q3.16-4.08,6.32-8.16A1,1,0,0,0,250.23,107.92Z"/><path class="cls-6" d="M254.13,110.22a1.34,1.34,0,0,0-1.67.21q-3.16,4.08-6.32,8.16a1,1,0,0,0,.43,1.39,1.35,1.35,0,0,0,1.68-.22q3.16-4.08,6.31-8.16A.93.93,0,0,0,254.13,110.22Z"/><path class="cls-6" d="M258.13,112.35a1.41,1.41,0,0,0-1.69.25q-3.16,4.08-6.32,8.16a.9.9,0,0,0,.46,1.35,1.44,1.44,0,0,0,1.71-.26l6.31-8.16C258.94,113.25,258.73,112.66,258.13,112.35Z"/><path class="cls-6" d="M262.23,114.32a1.48,1.48,0,0,0-1.72.3q-3.16,4.08-6.31,8.16a.85.85,0,0,0,.48,1.3,1.5,1.5,0,0,0,1.73-.31q3.16-4.08,6.32-8.16C263.07,115.17,262.85,114.59,262.23,114.32Z"/><path class="cls-6" d="M266.44,116.11a1.57,1.57,0,0,0-1.75.34q-3.16,4.08-6.31,8.16c-.34.44-.12,1,.51,1.27a1.59,1.59,0,0,0,1.76-.35l6.32-8.16C267.3,116.92,267.07,116.37,266.44,116.11Z"/><path class="cls-6" d="M270.74,117.73a1.68,1.68,0,0,0-1.78.39q-3.16,4.08-6.31,8.16c-.34.44-.11,1,.53,1.21a1.69,1.69,0,0,0,1.78-.4q3.16-4.08,6.31-8.16C271.62,118.5,271.37,118,270.74,117.73Z"/><path class="cls-6" d="M275.12,119.19a1.78,1.78,0,0,0-1.8.43q-3.16,4.08-6.32,8.16c-.34.44-.09,1,.56,1.17a1.77,1.77,0,0,0,1.8-.44l6.32-8.16C276,119.9,275.78,119.39,275.12,119.19Z"/><path class="cls-6" d="M279.59,120.47a1.87,1.87,0,0,0-1.82.48q-3.16,4.08-6.32,8.16c-.34.44-.09,1,.58,1.13a1.86,1.86,0,0,0,1.83-.49q3.16-4.08,6.31-8.16C280.51,121.14,280.25,120.64,279.59,120.47Z"/><path class="cls-6" d="M284.14,121.57a2,2,0,0,0-1.84.52q-3.17,4.08-6.32,8.16c-.34.44-.07.93.6,1.08a2,2,0,0,0,1.85-.54l6.33-8.16C285.09,122.19,284.81,121.72,284.14,121.57Z"/><path class="cls-6" d="M288.76,122.5a2.07,2.07,0,0,0-1.86.58q-3.16,4.08-6.32,8.16c-.34.44-.07.91.62,1a2.1,2.1,0,0,0,1.87-.58l6.32-8.16C289.72,123.07,289.45,122.61,288.76,122.5Z"/><path class="cls-6" d="M293.45,123.23a2.2,2.2,0,0,0-1.88.62L285.25,132c-.34.44-.06.89.64,1a2.19,2.19,0,0,0,1.88-.64l6.32-8.16C294.43,123.77,294.15,123.33,293.45,123.23Z"/><path class="cls-6" d="M298.63,123.25a2.31,2.31,0,0,0-1.89.67q-3.16,4.08-6.32,8.16c-.34.44-.05.86.66.94a2.34,2.34,0,0,0,1.9-.68q3.16-4.08,6.32-8.16C299.63,123.74,299.33,123.33,298.63,123.25Z"/><path class="cls-6" d="M304.29,122.54a2.47,2.47,0,0,0-1.91.72q-3.16,4.08-6.32,8.16c-.34.44-.05.85.67.89a2.48,2.48,0,0,0,1.91-.73q3.16-4.08,6.31-8.16C305.3,123,305,122.59,304.29,122.54Z"/><path class="cls-6" d="M308.93,121.33q-3.17,4.08-6.32,8.16c-.16.22-.18.41-.07.56a17.62,17.62,0,0,0,4.1-3.8l4.4-5.68-.18,0A2.69,2.69,0,0,0,308.93,121.33Z"/><path class="cls-5" d="M307.68,73.48,206.08,50.8a46.78,46.78,0,0,0,2.28,8L313,82.18A82.43,82.43,0,0,0,307.68,73.48Z"/><path class="cls-3" d="M211.34,30.6l69.49,15.51C253.66,25.68,223.85,19.17,211.34,30.6Z"/><path class="cls-4" d="M290.55,54.15l-83-18.52a18.4,18.4,0,0,0-1.35,3.67l89.7,20Q293.36,56.71,290.55,54.15Z"/><path class="cls-4" d="M282.73,47.57c-.63-.49-1.27-1-1.9-1.45L211.34,30.6a17.46,17.46,0,0,0-1.89,2L285.2,49.54C284.39,48.88,283.56,48.21,282.73,47.57Z"/><path class="cls-3" d="M285.19,49.54l-75.74-16.9-.09.11a16.39,16.39,0,0,0-1.8,2.89l83,18.52C288.84,52.59,287,51,285.19,49.54Z"/><path class="cls-3" d="M295.91,59.33l-89.7-20a27,27,0,0,0-.13,11.49l101.6,22.68A110.62,110.62,0,0,0,295.91,59.33Z"/><path class="cls-3" d="M230.34,90.39a135.23,135.23,0,0,0,11.45,10c29.22,22.78,62.07,29.42,73.37,14.82a17.53,17.53,0,0,0,2.79-5.29Z"/><path class="cls-5" d="M318.79,106.12,225.44,85.29c1.55,1.72,3.19,3.43,4.91,5.11L318,110A21.6,21.6,0,0,0,318.79,106.12Z"/><path class="cls-5" d="M316,88.74,211.32,65.38A86.06,86.06,0,0,0,219,77.46l99.85,22.29A43.56,43.56,0,0,0,316,88.74Z"/><path class="cls-3" d="M318.82,99.74,219,77.46c2,2.62,4.12,5.24,6.46,7.82l93.36,20.84A27.08,27.08,0,0,0,318.82,99.74Z"/><path class="cls-3" d="M313,82.17,208.36,58.83a64.73,64.73,0,0,0,3,6.56L316,88.75A61.81,61.81,0,0,0,313,82.17Z"/><path class="cls-6" d="M248.26,92.08c-27.22-21.22-35.79-46.15-29.73-54S250.76,32.45,278,53.69s35.79,46.14,29.73,54S275.48,113.31,248.26,92.08Z"/><path class="cls-7" d="M275.7,56.65c25.54,19.92,34.66,43.09,30.67,52.34a7.71,7.71,0,0,0,1.35-1.33c6.06-7.83-2.51-32.74-29.73-54s-53.4-23.4-59.46-15.57a7.18,7.18,0,0,0-1,1.64C225.52,33.59,250.14,36.73,275.7,56.65Z"/><path class="cls-7" d="M293.11,95.48c-3.75-5.7-10.45-11.32-17.79-16.31-2.6-1.76-5.28-3.46-7.94-5-1.19-.71-2.47-1.46-3.81-2.24L250.65,52.28c6.1,2.8,10.51,6.14,12.13,8.6s1.07,3.16.5,3.48a26.94,26.94,0,0,0,8.22,5.17c3.79,1.51,4.45.38,2-3.33-3.86-5.89-15.16-13.73-25.85-18.47l-2.32-3.52-6.59-2.63,2.38,3.61c-11.45-3.82-14.7-1.05-9.46,6.9,4.47,6.8,12.69,13.13,21.91,18.89,2.32,1.45,4.87,3,7.49,4.5L274.12,95.3c-6.11-2.8-10.51-6.14-12.14-8.59s-1.06-3.16-.5-3.48a26.94,26.94,0,0,0-8.22-5.17c-3.79-1.51-4.44-.38-2,3.33,3.86,5.88,15.16,13.72,25.85,18.46l2.32,3.52L286,106l-2.38-3.61C295.09,106.21,298.34,103.44,293.11,95.48ZM240.18,54.15c-3-4.55-1.26-5.84,4-4.35l11.38,17.28C249.27,63.15,243.19,58.73,240.18,54.15ZM280.6,97.77,269.17,80.4a88.14,88.14,0,0,1,10.89,7.93,26.13,26.13,0,0,1,4.54,5.1C287.59,98,285.85,99.27,280.6,97.77Z"/><path class="cls-3" d="M294,94.4c-3.75-5.7-10.45-11.32-17.78-16.31-2.6-1.76-5.29-3.46-7.94-5-1.19-.71-2.48-1.46-3.81-2.24L251.54,51.2c6.11,2.8,10.51,6.14,12.14,8.59s1.06,3.16.5,3.48a26.94,26.94,0,0,0,8.22,5.17c3.79,1.51,4.44.38,2-3.33-3.85-5.88-15.15-13.72-25.84-18.46l-2.32-3.52-6.59-2.63L242,44.11c-11.46-3.83-14.7-1.05-9.47,6.9,4.48,6.8,12.69,13.13,21.92,18.89,2.32,1.45,4.87,3,7.48,4.5L275,94.23c-6.1-2.8-10.51-6.14-12.13-8.59s-1.07-3.16-.5-3.48A26.94,26.94,0,0,0,254.16,77c-3.79-1.51-4.45-.38-2,3.33C256,86.2,267.32,94,278,98.78l2.31,3.52,6.6,2.63-2.38-3.61C296,105.13,299.24,102.36,294,94.4ZM241.07,53.07c-3-4.55-1.25-5.84,4-4.35L256.45,66C250.17,62.07,244.09,57.65,241.07,53.07ZM281.5,96.69,270.06,79.32A88.15,88.15,0,0,1,281,87.25a26.47,26.47,0,0,1,4.54,5.1C288.5,96.9,286.75,98.2,281.5,96.69Z"/><path class="cls-5" d="M264.48,70.82l-5.32-8.07-5.7-1.27,3,4.54a95.59,95.59,0,0,1-8.25-5.71l-9.44-2.11a95.63,95.63,0,0,0,14.05,10.65l13.4,3Z"/><path class="cls-5" d="M272.41,68.44c3.34,1.33,4.24.61,2.74-2.11l-10-2.23A26.25,26.25,0,0,0,272.41,68.44Z"/><path class="cls-5" d="M284.54,101.31c7,2.36,11,2.21,11.75-.1l-24.4-5.45c2,1.1,4.09,2.11,6.13,3l1.83,2.78,5.7,1.27Z"/><path class="cls-5" d="M262.89,85.63c-1.57-2.4-1.07-3.16-.5-3.48A27.07,27.07,0,0,0,254.17,77c-3.79-1.51-4.45-.38-2,3.33a30.22,30.22,0,0,0,5.51,5.89l7.13,1.59A11.79,11.79,0,0,1,262.89,85.63Z"/><path class="cls-5" d="M270.06,79.32A88.15,88.15,0,0,1,281,87.25a26.47,26.47,0,0,1,4.54,5.1.5.5,0,0,0,.05.07l8.38,1.87c-3.08-4.64-8.11-9.23-13.84-13.46L263.81,77.2l8,12.15,5.7,1.27Z"/><path class="cls-4" d="M248.56,46.65l-1.32-2-5.7-1.27.49.74c-7.61-2.55-11.59-2.17-11.88.69l26.41,5.89C253.94,49.21,251.23,47.83,248.56,46.65Z"/><g class="cls-8"><path class="cls-9" d="M208.43,59l-8.52,11a61.78,61.78,0,0,0,3,6.66l8.52-11A62.61,62.61,0,0,1,208.43,59Z"/><path class="cls-9" d="M209.36,32.74l-8.52,11c-3.62,4.66-4.58,10.94-3.28,18.05l8.52-11C204.78,43.68,205.75,37.41,209.36,32.74Z"/><path class="cls-9" d="M284.1,121.61l-8.52,11A52.61,52.61,0,0,0,289,134l8.52-11A52.61,52.61,0,0,1,284.1,121.61Z"/><path class="cls-9" d="M218.84,77.29l-8.52,11a106.87,106.87,0,0,0,7.14,8.6l8.52-11A110.69,110.69,0,0,1,218.84,77.29Z"/></g></svg>