<svg width="145" height="116" viewBox="0 0 145 116" fill="none" xmlns="http://www.w3.org/2000/svg">
<g filter="url(#filter0_f)">
<path d="M10.6427 31.7298C10.236 32.9545 10.0327 34.2674 10.0037 35.6489C9.8778 41.4297 12.9082 48.4547 18.4364 55.8521C24.5455 64.0431 33.7237 72.6848 45.0416 80.5917C48.3818 82.9334 51.9253 85.1967 55.614 87.3718C62.7494 91.5653 69.8751 95.0435 76.7491 97.7771C88.6188 102.49 99.6753 104.969 108.524 104.998C116.502 105.028 122.679 103.068 126 98.9725L133.426 85.3926L132.777 84.9321C128.846 88.4006 122.321 89.8507 114.188 89.4293C104.758 88.9395 93.1595 85.9217 80.8928 80.5917C75.2871 78.1618 69.5459 75.2421 63.8047 71.8716C60.7646 70.0786 57.8311 68.2268 55.0234 66.326C44.2284 59.007 35.2728 50.9924 28.8926 43.2423C23.7904 37.05 20.334 31.0243 18.9205 25.6845C18.3396 23.5192 18.0975 21.4812 18.2137 19.5706L17.1487 19.3551C17.1487 19.3551 11.8722 29.0746 11.6108 29.5351C11.2139 30.2307 10.8847 30.9656 10.6427 31.7298Z" fill="url(#paint0_radial)"/>
<path d="M10.6426 31.7298C10.236 32.9545 10.0326 34.2674 10.0036 35.6489L16.3257 24.3226L18.9204 25.6845C18.3395 23.5192 18.0975 21.4812 18.2136 19.5706L17.1487 19.3551C17.1487 19.3551 11.8722 29.0746 11.6108 29.5351C11.2138 30.2307 10.8846 30.9656 10.6426 31.7298Z" fill="url(#paint1_linear)"/>
<path d="M24.6131 44.1339L18.4168 55.8521C24.5259 64.0431 33.7042 72.6848 45.022 80.5917L51.5765 68.7853L55.0232 66.3162C44.2281 58.9972 37.0347 53.0891 30.6641 45.339L24.6131 44.1339Z" fill="url(#paint2_linear)"/>
<path d="M83.4006 86.0099L76.7396 97.7869C88.6093 102.5 99.6658 104.979 108.515 105.008L114.76 93.0447L108.999 89.0178C99.569 88.5279 96.4709 87.3032 84.2042 81.9732L83.4006 86.0099Z" fill="url(#paint3_linear)"/>
<path d="M17.9324 17.5718C16.8287 19.4922 16.3059 21.6869 16.3156 24.0874C16.3349 29.8878 19.4621 36.903 25.0291 44.2612C31.1866 52.4032 40.3358 60.9567 51.5762 68.7852C54.8486 71.0681 58.3146 73.2825 61.9259 75.4086C69.1097 79.6413 76.3032 83.1391 83.2159 85.8727C94.9888 90.5365 105.968 92.9957 114.759 93.0349C122.146 93.0741 127.984 91.4183 131.469 87.94C132.215 87.2052 132.844 86.3822 133.367 85.471C135.507 81.7478 135.468 77.0056 133.599 71.6952C131.76 66.4631 128.129 60.6824 123.037 54.7743C116.84 47.5925 108.495 40.2245 98.5613 33.4542C95.6375 31.4554 92.5587 29.5056 89.3734 27.6342C83.7871 24.352 78.2008 21.5008 72.7403 19.1101C62.1873 14.4855 52.1184 11.5658 43.4727 10.4782C36.0952 9.54741 29.7537 9.96871 25.0581 11.8009C21.8728 13.0648 19.4234 14.9754 17.9324 17.5718Z" fill="url(#paint4_radial)"/>
<path d="M38.4774 28.4671C33.2493 37.5791 45.8742 54.8821 66.6898 67.1294C87.5053 79.3767 108.611 81.9144 113.839 72.8122C119.068 63.7002 106.443 46.3972 85.6271 34.1498C64.8212 21.9025 43.7055 19.3649 38.4774 28.4671Z" fill="url(#paint5_radial)"/>
<path d="M118.041 75.2714C117.606 76.0259 117.073 76.7019 116.454 77.3192L131.47 87.9498C132.215 87.215 132.845 86.392 133.367 85.4808C135.507 81.7576 135.468 77.0154 133.6 71.705L118.748 65.8263C119.716 69.4123 119.542 72.6456 118.041 75.2714Z" fill="white"/>
<path d="M82.0742 76.8489L83.2167 85.8825C94.9896 90.5463 105.969 93.0056 114.76 93.0447L104.952 81.3069C98.6008 81.5715 90.6231 80.0528 82.0742 76.8489Z" fill="white"/>
<path d="M25.0295 44.271C31.187 52.413 40.3362 60.9666 51.5766 68.7951L58.1021 64.1215C49.5628 58.1252 42.7469 51.4627 38.3805 45.1626L25.0295 44.271Z" fill="white"/>
<path d="M17.9326 17.5719C16.8289 19.4923 16.3061 21.687 16.3158 24.0875L32.9876 30.7206C33.0554 28.9962 33.4814 27.4089 34.2849 25.998C35.379 24.0973 37.0926 22.657 39.3 21.6576L25.068 11.8107C21.873 13.0649 19.4236 14.9755 17.9326 17.5719Z" fill="white"/>
<path d="M43.483 10.488L51.7512 20.0409C58.1508 20.5112 65.7218 22.4512 73.6511 25.7629L72.741 19.1199C62.188 14.4855 52.1191 11.5658 43.483 10.488Z" fill="white"/>
<path d="M93.905 36.9324C100.934 41.8314 106.82 47.181 111.158 52.4424L123.037 54.7939C116.841 47.6121 108.495 40.2441 98.5619 33.4738L93.905 36.9324Z" fill="white"/>
<path d="M43.0664 32.4842C38.6419 40.1853 49.6402 54.9997 67.6191 65.5814C85.5979 76.163 103.761 78.4949 108.185 70.7938C112.61 63.0927 101.621 48.2783 83.6326 37.6967C65.6537 27.115 47.4909 24.7831 43.0664 32.4842Z" stroke="white" stroke-width="1.7989" stroke-miterlimit="10" stroke-dasharray="5.04 5.04"/>
<path d="M38.4774 28.4671C38.2644 28.8394 38.0708 29.2313 37.9159 29.633C44.0541 21.9025 64.25 24.8223 84.233 36.5797C104.197 48.3273 116.696 64.6212 113.133 73.8508C113.394 73.5176 113.636 73.1747 113.849 72.8024C119.087 63.7002 106.452 46.3874 85.6368 34.1498C64.8309 21.9025 43.7152 19.3649 38.4774 28.4671Z" fill="url(#paint6_radial)"/>
<path d="M68.5002 63.9843C84.2523 73.2531 100.237 75.1735 104.197 68.2856C104.729 67.345 105.019 66.2966 105.078 65.1502C105.436 57.8998 96.4512 47.0242 82.8388 39.0194C69.2263 31.0145 55.4493 28.4867 49.3983 32.396C48.4495 33.0133 47.6846 33.7873 47.1521 34.7279C43.1827 41.6158 52.7385 54.7155 68.5002 63.9843Z" fill="url(#paint7_radial)"/>
<path d="M70.1267 61.1527C85.5012 70.1961 101.108 72.0773 104.971 65.3462C105.01 65.2776 105.039 65.2188 105.078 65.1502C105.436 57.8998 96.4512 47.0242 82.8388 39.0194C69.2263 31.0145 55.4493 28.4867 49.3983 32.396C49.3596 32.4548 49.3208 32.5234 49.2821 32.592C45.4094 39.3231 54.7426 52.1093 70.1267 61.1527Z" fill="url(#paint8_radial)"/>
<path d="M16.3159 24.0972C16.3062 27.0464 17.0711 29.9368 18.1264 32.6704C19.2011 35.404 20.6049 38.0004 22.1733 40.4695C25.3489 45.3978 29.1829 49.8656 33.2976 54.0101C37.4123 58.1644 41.8755 61.9562 46.5227 65.4834C51.1699 69.0106 56.0108 72.2733 61.0162 75.2616C71.0464 81.1893 81.6672 86.1569 92.8108 89.5175C98.3874 91.1734 104.09 92.4471 109.88 92.9566C112.774 93.1917 115.689 93.2505 118.583 92.986C121.469 92.7116 124.354 92.1238 127.016 90.9284C124.344 92.0748 121.459 92.6136 118.574 92.8292C115.689 93.0448 112.784 92.9272 109.909 92.643C104.148 92.065 98.4842 90.7423 92.956 89.0374C81.8899 85.5886 71.3078 80.6505 61.3454 74.7032C51.3732 68.7657 41.953 61.819 33.6364 53.6672C29.4927 49.5815 25.6394 45.1724 22.4251 40.3029C20.8179 37.873 19.3753 35.3158 18.2619 32.6116C17.1679 29.9074 16.3547 27.0366 16.3159 24.0972Z" fill="white"/>
<path d="M67.745 59.683C68.5196 60.1729 69.3232 60.6628 70.1267 61.1429C85.5109 70.1863 101.098 72.0675 104.971 65.3462L105.078 65.1404C105.262 61.5152 103.093 56.9788 99.2008 52.3542C95.454 47.9452 90.1387 43.4186 83.7295 39.5484C83.4487 47.1614 80.428 56.7731 67.745 59.683Z" fill="url(#paint9_linear)"/>
<path d="M67.745 59.683C68.5196 60.1729 69.3232 60.6628 70.1267 61.1429C85.5109 70.1863 101.098 72.0675 104.971 65.3462L105.078 65.1404C105.262 61.5152 103.093 56.9788 99.2008 52.3542C95.454 47.9452 90.1387 43.4186 83.7295 39.5484C83.4487 47.1614 80.428 56.7731 67.745 59.683Z" fill="url(#paint10_linear)"/>
</g>
<defs>
<filter id="filter0_f" x="0" y="0" width="144.988" height="115.008" filterUnits="userSpaceOnUse" color-interpolation-filters="sRGB">
<feFlood flood-opacity="0" result="BackgroundImageFix"/>
<feBlend mode="normal" in="SourceGraphic" in2="BackgroundImageFix" result="shape"/>
<feGaussianBlur stdDeviation="5" result="effect1_foregroundBlur"/>
</filter>
<radialGradient id="paint0_radial" cx="0" cy="0" r="1" gradientUnits="userSpaceOnUse" gradientTransform="translate(82.4555 50.0455) rotate(-151.584) scale(37.1241 37.369)">
<stop offset="0.1873" stop-color="#9BCC50"/>
<stop offset="0.8711" stop-color="#006E41"/>
</radialGradient>
<linearGradient id="paint1_linear" x1="17.0555" y1="29.2098" x2="12.9276" y2="27.029" gradientUnits="userSpaceOnUse">
<stop stop-color="#DCDCDC"/>
<stop offset="0.29" stop-color="#B6B6B6"/>
<stop offset="1" stop-color="#A1A1A1"/>
</linearGradient>
<linearGradient id="paint2_linear" x1="52.5799" y1="70.9474" x2="19.6455" y2="53.5482" gradientUnits="userSpaceOnUse">
<stop stop-color="#DCDCDC"/>
<stop offset="0.29" stop-color="#B6B6B6"/>
<stop offset="1" stop-color="#A1A1A1"/>
</linearGradient>
<linearGradient id="paint3_linear" x1="109.801" y1="102.566" x2="81.2842" y2="87.5003" gradientUnits="userSpaceOnUse">
<stop stop-color="#DCDCDC"/>
<stop offset="0.29" stop-color="#B6B6B6"/>
<stop offset="1" stop-color="#A1A1A1"/>
</linearGradient>
<radialGradient id="paint4_radial" cx="0" cy="0" r="1" gradientUnits="userSpaceOnUse" gradientTransform="translate(84.6874 58.655) rotate(-151.584) scale(60.5433 60.9427)">
<stop offset="0.1873" stop-color="#9BCC50"/>
<stop offset="0.8715" stop-color="#007947"/>
</radialGradient>
<radialGradient id="paint5_radial" cx="0" cy="0" r="1" gradientUnits="userSpaceOnUse" gradientTransform="translate(76.1635 50.6363) rotate(-151.584) scale(33.6693 33.8915)">
<stop offset="0.1873" stop-color="#9BCC50"/>
<stop offset="0.8715" stop-color="#007947"/>
</radialGradient>
<radialGradient id="paint6_radial" cx="0" cy="0" r="1" gradientUnits="userSpaceOnUse" gradientTransform="translate(79.9583 43.4502) rotate(-151.584) scale(31.8304 32.0404)">
<stop offset="0.1869" stop-color="#569B54"/>
<stop offset="0.8711" stop-color="#135E3B"/>
</radialGradient>
<radialGradient id="paint7_radial" cx="0" cy="0" r="1" gradientUnits="userSpaceOnUse" gradientTransform="translate(75.6689 51.5009) rotate(-151.584) scale(25.4861 25.6542)">
<stop offset="0.1869" stop-color="#569B54"/>
<stop offset="0.8711" stop-color="#135E3B"/>
</radialGradient>
<radialGradient id="paint8_radial" cx="0" cy="0" r="1" gradientUnits="userSpaceOnUse" gradientTransform="translate(92.1041 61.0681) rotate(-151.584) scale(62.1749 62.5851)">
<stop offset="0.1873" stop-color="#9BCC50"/>
<stop offset="0.8715" stop-color="#007947"/>
</radialGradient>
<linearGradient id="paint9_linear" x1="117.196" y1="75.7145" x2="83.7052" y2="55.1299" gradientUnits="userSpaceOnUse">
<stop stop-color="#44E2F0"/>
<stop offset="1" stop-color="#44E2F0" stop-opacity="0"/>
</linearGradient>
<linearGradient id="paint10_linear" x1="114.814" y1="73.4574" x2="78.8564" y2="52.0521" gradientUnits="userSpaceOnUse">
<stop stop-color="#DFE22A"/>
<stop offset="1" stop-color="white" stop-opacity="0"/>
</linearGradient>
</defs>
</svg>
