<svg id="Layer_1" data-name="Layer 1" xmlns="http://www.w3.org/2000/svg" xmlns:xlink="http://www.w3.org/1999/xlink" viewBox="0 0 132 134"><defs><style>.cls-1{fill:none;}.cls-2{clip-path:url(#clip-path);}.cls-3{fill:#fffa87;}.cls-4{fill:#ffe443;}.cls-5{fill:#fffbcf;}.cls-6{fill:#f2ba24;}.cls-7{fill:#d4931f;}</style><clipPath id="clip-path"><rect class="cls-1" x="9" y="14" width="115" height="113"/></clipPath></defs><title>blurcoins f</title><g class="cls-2"><path class="cls-3" d="M45.77,20.66C20.61,33,6.11,58.82,9.48,82.36l43-64.55A68.75,68.75,0,0,0,45.77,20.66Z"/><path class="cls-4" d="M52.51,17.8l-43,64.55a46.26,46.26,0,0,0,1.12,5.45L58.49,16C56.49,16.48,54.49,17.09,52.51,17.8Z"/><path class="cls-4" d="M64,14.8,12.17,92.61l.45,1.12a44.11,44.11,0,0,0,3.35,6.4L73.37,14A60.91,60.91,0,0,0,64,14.8Z"/><path class="cls-3" d="M90.74,16.65A54.78,54.78,0,0,0,73.37,14L16,100.13a43.81,43.81,0,0,0,11.23,12Z"/><path class="cls-3" d="M58.49,16,10.6,87.81a46.27,46.27,0,0,0,1.57,4.79L64,14.8C62.19,15.1,60.35,15.49,58.49,16Z"/><path class="cls-5" d="M90.74,16.65,27.2,112.12a46.86,46.86,0,0,0,9,5.13l64.11-96.32A49,49,0,0,0,90.74,16.65Z"/><path class="cls-3" d="M100.29,20.93,36.18,117.26a47.57,47.57,0,0,0,5.21,1.93l63.39-95.25A46.88,46.88,0,0,0,100.29,20.93Z"/><path class="cls-3" d="M108.51,27.09,46.36,120.46a57.65,57.65,0,0,0,18.77.64l53.25-80A43.87,43.87,0,0,0,108.51,27.09Z"/><path class="cls-3" d="M77.4,118.28a66.35,66.35,0,0,0,8.18-3.37c25.67-12.54,40.24-39.2,36.06-63.11Z"/><path class="cls-5" d="M104.78,23.94,41.39,119.19q2.43.75,5,1.28L108.52,27.1A44.78,44.78,0,0,0,104.78,23.94Z"/><path class="cls-5" d="M118.72,41.87c-.11-.26-.22-.51-.34-.77l-53.25,80a63.69,63.69,0,0,0,12.26-2.83l44.23-66.47A44.62,44.62,0,0,0,118.72,41.87Z"/><path class="cls-6" d="M81.49,105.23C57.93,116.74,31.67,109.31,23,88.67s3.34-46.81,26.9-58.32,49.82-4.08,58.54,16.56S105,93.72,81.49,105.23Z"/><path class="cls-7" d="M50.75,32.47C73.9,21.15,99.65,28.14,108.82,48c-.14-.36-.27-.72-.42-1.07-8.73-20.65-35-28.07-58.54-16.57S14.23,68,22.95,88.67c.15.35.32.69.48,1C15.55,69.25,27.6,43.78,50.75,32.47Z"/><path class="cls-7" d="M87.28,78c-.61-5.39-4.32-8.52-9.06-10.25a30.63,30.63,0,0,0-5.35-1.36c-.82-.14-1.73-.26-2.66-.39L68.1,47.44c4.73-.5,7.38,1,7.65,3.36a5.68,5.68,0,0,1-1.49,4.61c1.08,1.06,2.49,2,5.56,1.33s4.41-2.75,4-6.25C83.2,44.92,76,42,67.61,43.12l-.38-3.33-5.32,1.1.39,3.42c-9.68,3-14.65,9.35-13.81,16.88.73,6.44,5.61,9.46,11.87,10.9,1.57.36,3.35.63,5.19.92l2.12,18.77c-4.73.5-7.37-1-7.64-3.36a5.68,5.68,0,0,1,1.48-4.61c-1.07-1.06-2.48-2-5.56-1.33s-4.4,2.75-4,6.25c.63,5.56,7.84,8.47,16.21,7.36l.38,3.33,5.32-1.1-.39-3.42C83.16,91.93,88.13,85.56,87.28,78ZM56.14,57.86c-.49-4.3,2.07-7.45,6.65-9.18l1.86,16.37C60.41,64,56.64,62.2,56.14,57.86ZM73,90.53,71.12,74.07a14.67,14.67,0,0,1,6.74,3.32,6.59,6.59,0,0,1,1.76,4C80.12,85.65,77.57,88.8,73,90.53Z"/><path class="cls-3" d="M85.69,77.51c-.61-5.39-4.32-8.52-9.06-10.25a30.75,30.75,0,0,0-5.34-1.36c-.83-.14-1.74-.26-2.67-.39l-2.1-18.59c4.73-.5,7.37,1,7.64,3.36a5.68,5.68,0,0,1-1.49,4.61c1.08,1.06,2.49,2,5.57,1.33s4.4-2.75,4-6.25c-.63-5.56-7.84-8.46-16.21-7.36l-.38-3.33-5.33,1.1.38,3.42c-9.68,3-14.65,9.35-13.8,16.88.73,6.44,5.6,9.46,11.86,10.9,1.58.36,3.35.63,5.19.92l2.13,18.77c-4.74.5-7.38-1-7.65-3.36a5.68,5.68,0,0,1,1.49-4.61c-1.08-1.06-2.49-2-5.56-1.33s-4.41,2.75-4,6.25c.63,5.56,7.84,8.47,16.21,7.36l.38,3.33,5.33-1.1-.39-3.42C81.57,91.42,86.54,85,85.69,77.51ZM54.55,57.34c-.48-4.3,2.07-7.45,6.65-9.18l1.86,16.37C58.81,63.53,55,61.69,54.55,57.34ZM71.4,90,69.53,73.55a14.7,14.7,0,0,1,6.75,3.32,6.55,6.55,0,0,1,1.77,4C78.54,85.15,76,88.28,71.4,90Z"/><path class="cls-5" d="M68.62,65.51,67.1,52.08l-4.66,7,.62,5.46a20.79,20.79,0,0,1-3.5-1.13l-4.65,7a26.37,26.37,0,0,0,3.86,1.19c1.58.36,3.35.63,5.19.92l.28,2.5,6.14-9.22C69.81,65.68,69.23,65.59,68.62,65.51Z"/><path class="cls-5" d="M74.16,50.28a5.68,5.68,0,0,1-1.49,4.61,4.91,4.91,0,0,0,3.92,1.54l5.29-8c-1.08-3-4.31-5-8.56-5.76L70.44,47C72.71,47.51,74,48.7,74.16,50.28Z"/><path class="cls-5" d="M54.37,81.95c-3.07.63-4.41,2.75-4,6.25a6.8,6.8,0,0,0,2.24,4.28l6.56-9.86C58.15,81.91,56.76,81.46,54.37,81.95Z"/><path class="cls-5" d="M75.67,76.34l4.78-7.18a18.38,18.38,0,0,0-3.82-1.89l-.61-.2-4.68,7A13.29,13.29,0,0,1,75.67,76.34Z"/><path class="cls-5" d="M69.85,76.33l-4.66,7L66,90.81l4.65-7Z"/><path class="cls-5" d="M60.39,90.53l-3,4.5a20.6,20.6,0,0,0,5.33.76l3-4.5A9.72,9.72,0,0,1,60.39,90.53Z"/><path class="cls-7" d="M45.2,120.21l6.17,5.9a56.78,56.78,0,0,0,19.63.05L65.64,121A57,57,0,0,1,45.2,120.21Z"/><path class="cls-6" d="M36,117.17l7,6.75a53.26,53.26,0,0,0,8.34,2.2l-6.17-5.9A51.34,51.34,0,0,1,36,117.17Z"/><path class="cls-7" d="M13.24,95.1c.19.5.39,1,.6,1.49A49,49,0,0,0,43,123.92l-7-6.75A44.38,44.38,0,0,1,13.24,95.1Z"/><path class="cls-7" d="M77.43,118.27l5,4.79c1.29-.49,2.56-1,3.83-1.6l-4.89-4.67C80.07,117.33,78.75,117.83,77.43,118.27Z"/><path class="cls-6" d="M65.64,121,71,126.17a61.44,61.44,0,0,0,11.44-3.11l-5-4.79A63.54,63.54,0,0,1,65.64,121Z"/><path class="cls-6" d="M119.93,44.74c-.21-.5-.43-1-.65-1.47,9.89,25.79-4.93,57.58-33.71,71.64q-2.07,1-4.19,1.88l4.89,4.67c.58-.26,1.15-.53,1.73-.81C117.3,106.35,131.6,72.35,119.93,44.74Z"/></g></svg>