<svg xmlns="http://www.w3.org/2000/svg" xmlns:xlink="http://www.w3.org/1999/xlink" version="1.1" id="Capa_1" x="0px" y="0px" viewBox="0 0 512 512" style="enable-background:new 0 0 512 512;" xml:space="preserve">
<g>
	<g>
		<path d="M306.114,267.586c-3.668-5.96-8.201-10.358-13.596-13.192c-5.396-2.829-11.254-5.303-17.566-7.426    c-6.312-2.123-12.223-3.789-17.726-5.001c-5.508-1.213-10.129-2.932-13.869-5.157c-3.74-2.221-5.609-5.05-5.609-8.488    c0-3.438,1.87-6.569,5.609-9.399c3.74-2.83,9.141-4.246,16.206-4.246c6.439,0,13.349,1.301,20.726,3.896    c7.373,2.601,11.892,3.897,13.558,3.897c4.154,0,7.636-2.338,10.442-7.013c2.805-4.675,4.207-8.775,4.207-12.31    c0-5.61-5.04-10.387-15.116-14.337c-6.987-2.734-14.661-4.5-22.993-5.34v-30.144c0-8.288-6.719-15.006-15.006-15.006    c-8.288,0-15.006,6.719-15.006,15.006v31.327c-10.102,2.129-18.052,6.186-23.819,12.193c-8.936,9.301-13.402,20.4-13.402,33.293    c0,9.302,2.542,16.932,7.636,22.893c5.089,5.961,11.269,10.207,18.544,12.734c7.271,2.527,14.491,4.699,21.66,6.516    c7.168,1.821,13.294,4.145,18.388,6.974c5.089,2.834,7.636,6.672,7.636,11.522c0,8.692-7.675,13.036-23.025,13.036    c-7.781,0-14.507-1.085-20.186-3.262c-5.677-2.177-10.25-4.305-13.718-6.39c-3.472-2.084-6.365-3.126-8.673-3.126    c-3.575,0-6.731,2.026-9.462,6.078c-2.736,4.052-4.101,7.946-4.101,11.688c0,7.066,5.503,13.299,16.518,18.699    c7.582,3.719,16.25,6.158,26,7.316v30.403c0,8.288,6.719,15.006,15.006,15.006c8.288,0,15.006-6.719,15.006-15.006v-30.889    c10.551-1.796,19.256-5.493,26.11-11.106c10.075-8.25,15.116-19.571,15.116-33.962    C311.611,280.773,309.775,273.546,306.114,267.586z"/>
	</g>
</g>
<g>
	<g>
		<path d="M437.02,74.98C388.668,26.628,324.38,0,256.001,0S123.333,26.628,74.981,74.98S0,187.62,0,256    s26.628,132.667,74.98,181.019S187.62,512,256,512s132.667-26.628,181.019-74.98S512,324.38,512,256S485.372,123.332,437.02,74.98    z M415.798,415.797c-42.683,42.683-99.434,66.19-159.798,66.19s-117.114-23.506-159.798-66.19    C53.518,373.114,30.013,316.365,30.013,256c0-60.364,23.506-117.115,66.19-159.798c42.683-42.683,99.434-66.19,159.798-66.19    c60.364,0,117.114,23.506,159.798,66.19c42.684,42.683,66.19,99.434,66.19,159.798S458.481,373.114,415.798,415.797z"/>
	</g>
</g>
<g>
	<g>
		<path d="M256.001,64.532c-106.217,0-192.63,86.413-192.63,192.63c0,106.216,86.413,192.629,192.63,192.629    s192.63-86.413,192.63-192.629C448.631,150.945,362.218,64.532,256.001,64.532z M256.001,419.778    c-89.668,0-162.617-72.949-162.617-162.616c0-89.668,72.95-162.617,162.617-162.617s162.617,72.949,162.617,162.617    C418.618,346.829,345.669,419.778,256.001,419.778z"/>
	</g>
</g>
<g>
</g>
<g>
</g>
<g>
</g>
<g>
</g>
<g>
</g>
<g>
</g>
<g>
</g>
<g>
</g>
<g>
</g>
<g>
</g>
<g>
</g>
<g>
</g>
<g>
</g>
<g>
</g>
<g>
</g>
</svg>