<svg width="29" height="20" viewBox="0 0 29 20" fill="none" xmlns="http://www.w3.org/2000/svg">
<path d="M28.9192 10.8884C28.7691 10.1879 28.0014 9.62415 26.6103 9.20843C25.4443 8.86105 23.9781 8.65604 22.3619 8.62187L22.206 2.14123C21.9924 1.50342 21.2247 0.985194 19.926 0.59795C18.6272 0.210706 16.9359 0 15.1523 0C13.3744 0 11.6947 0.210706 10.4248 0.59795C9.37998 0.916856 8.12739 1.50911 8.12739 2.52847C8.12739 2.59112 8.13316 2.65376 8.14471 2.7164L8.2082 5.31321C7.78105 5.23349 7.34813 5.19362 6.90943 5.19362C3.09972 5.19362 0 8.25171 0 12.0103C0 15.7745 3.08818 18.8269 6.90366 18.8269C8.49104 18.8269 10.0322 18.2859 11.2617 17.3007C12.3469 17.5513 13.6226 17.6879 14.9733 17.6993C15.2677 19.2768 18.7369 20 21.9693 20C23.7472 20 25.4212 19.7836 26.7026 19.3964C27.759 19.0774 29 18.4795 29 17.4601L28.9192 10.8884ZM10.748 1.69134C11.914 1.33827 13.4783 1.13895 15.1407 1.13895C16.7858 1.13895 18.4078 1.33827 19.5854 1.69134C20.8438 2.0672 21.115 2.45444 21.115 2.53417C21.115 2.6139 20.8438 3.00114 19.5854 3.37699C18.4136 3.72437 16.7916 3.92938 15.1465 3.92938C13.5533 3.92938 12.041 3.74715 10.8923 3.41686C9.65127 3.06378 9.29916 2.67084 9.2703 2.54556C9.2703 2.53986 9.26453 2.53417 9.25876 2.52847C9.25876 2.40888 9.6455 2.02733 10.748 1.69134ZM21.2074 3.94077V5.36446C21.1439 5.46128 21.115 5.56948 21.115 5.68337C21.115 5.7574 20.8438 6.15034 19.5912 6.5262C18.4194 6.87927 16.7974 7.07859 15.1523 7.07859C13.7265 7.07859 12.3296 6.93052 11.2213 6.65148C11.204 6.64579 11.1867 6.64579 11.1752 6.64009C10.6326 6.21298 10.0207 5.8713 9.3742 5.63212L9.3338 4.0262C9.73209 4.22551 10.1477 4.38497 10.5806 4.49886C11.8332 4.85763 13.4552 5.05125 15.158 5.05125C16.9417 5.05125 18.633 4.84055 19.926 4.4533C20.3647 4.33941 20.7976 4.16287 21.2074 3.94077ZM10.7769 16.2073C8.42755 18.32 4.78523 18.1492 2.64948 15.8314C0.513734 13.5137 0.681131 9.92027 3.03045 7.81321C4.09256 6.86219 5.47213 6.33257 6.90366 6.33257C7.48089 6.33257 8.05235 6.418 8.60649 6.58314C9.35689 6.81093 10.0553 7.19248 10.6499 7.70501C11.6196 8.51936 12.2834 9.63554 12.5432 10.8656C12.6182 11.2415 12.6586 11.6287 12.6586 12.0103C12.6644 13.6105 11.9775 15.1367 10.7769 16.2073ZM12.243 16.3326C12.7106 15.7688 13.0858 15.1367 13.3513 14.459C13.8477 14.4989 14.3672 14.5273 14.9041 14.533C14.8925 14.6014 14.8925 14.664 14.9041 14.7323L14.9271 16.5661C14.0324 16.5547 13.1377 16.4806 12.243 16.3326ZM13.7842 11.3326C14.1248 11.3554 14.4769 11.3667 14.8406 11.3724C14.8463 11.4123 14.8579 11.4522 14.8694 11.492L14.8925 13.3884C14.4769 13.3827 14.0671 13.3656 13.6803 13.3371C13.7669 12.8986 13.8131 12.4487 13.8131 12.0046C13.8131 11.7825 13.8016 11.5604 13.7842 11.3326ZM15.1927 10.2392C15.1754 10.2392 15.1638 10.2392 15.1465 10.2392C14.5866 10.2392 14.0555 10.2164 13.5591 10.1765C13.3455 9.41913 12.9934 8.70159 12.5316 8.05809C13.3975 8.16629 14.2749 8.22323 15.1465 8.22323C16.9301 8.22323 18.6214 8.01253 19.9144 7.62528C20.3646 7.5 20.7918 7.32346 21.2016 7.10137V8.62187C19.7586 8.66173 18.4021 8.84396 17.3227 9.14579C16.3067 9.43052 15.5967 9.79499 15.1927 10.2392ZM15.9893 11.0877C16.0874 10.9112 16.5203 10.5638 17.6459 10.2563C18.7773 9.94305 20.2492 9.77221 21.7962 9.77221H21.8424C23.4932 9.77221 25.1095 9.96014 26.2812 10.3132C27.4934 10.6777 27.7878 11.0421 27.8051 11.139V11.1446C27.7994 11.2301 27.5165 11.623 26.2351 11.9989C25.0518 12.3462 23.4875 12.5342 21.8424 12.5342C20.3127 12.5342 18.8408 12.3633 17.7094 12.0615C16.6242 11.7711 16.1566 11.4351 16.0181 11.2415C16.0181 11.1902 16.0066 11.139 15.9893 11.0877ZM27.8455 17.4544C27.8455 17.5342 27.5916 17.9271 26.3621 18.303C25.1845 18.6617 23.626 18.861 21.9636 18.861C20.2954 18.861 18.7426 18.6674 17.5824 18.32C16.4799 17.9841 16.1105 17.6082 16.1105 17.4829C16.1105 17.4772 16.1105 17.4772 16.1105 17.4715L16.1047 17.1241L16.0874 15.8371C16.5492 16.0592 17.0283 16.2301 17.5247 16.3497C18.7369 16.6629 20.2665 16.8337 21.8424 16.8337C23.626 16.8337 25.3 16.623 26.593 16.2358C27.0143 16.1105 27.4992 15.9396 27.8455 15.7175V17.4544ZM27.7705 14.2995C27.7705 14.3793 27.505 14.7665 26.2639 15.1424C25.0806 15.4954 23.5105 15.6891 21.8366 15.6891C18.6965 15.6891 16.5607 15 16.0643 14.4533L16.0412 12.6538C17.4035 13.3542 19.6951 13.6731 21.8424 13.6731C23.5971 13.6731 25.2653 13.4681 26.5525 13.0923C27.0028 12.967 27.4357 12.7961 27.8513 12.574V13.9977C27.8455 14.0831 27.7705 14.1856 27.7705 14.2995Z" fill="#DB9E3F"/>
</svg>
