<svg width="18" height="18" viewBox="0 0 18 18" fill="none" xmlns="http://www.w3.org/2000/svg">
<g clip-path="url(#clip0)">
<path d="M2.64453 6.01855V7.14355L6.58203 7.14355C6.89281 7.14355 7.14453 6.89184 7.14453 6.58105L7.14453 2.64355H6.01953V5.22543L0.793906 -0.000195026L0.000781536 0.79293L5.22641 6.01855H2.64453Z" fill="white"/>
<path d="M11.4188 7.14355L15.3563 7.14355V6.01855L12.7744 6.01855L18 0.79293L17.2069 -0.000195026L11.9813 5.22543V2.64355H10.8563V6.58105C10.8563 6.89184 11.108 7.14355 11.4188 7.14355Z" fill="white"/>
<path d="M11.9793 12.7744L17.2049 18L17.998 17.2069L12.7724 11.9813H15.3543V10.8563H11.4168C11.106 10.8563 10.8543 11.108 10.8543 11.4188V15.3563H11.9793V12.7744Z" fill="white"/>
<path d="M0.793906 18.0005L6.01953 12.7692L6.01953 15.3511H7.14453L7.14453 11.4136C7.14453 11.1028 6.89281 10.8511 6.58203 10.8511H2.64453V11.9761H5.22641L0.000781536 17.2017L0.793906 18.0005Z" fill="white"/>
</g>
<defs>
<clipPath id="clip0">
<rect width="18" height="18" fill="white"/>
</clipPath>
</defs>
</svg>
