<svg width="138" height="40" viewBox="0 0 138 40" fill="none" xmlns="http://www.w3.org/2000/svg">
<path d="M48.68 13.1V14.96H42.78V19.06H47.38V20.92H42.78V27H40.5V13.1H48.68ZM50.033 21.44C50.033 20.3333 50.2596 19.3533 50.713 18.5C51.1796 17.6467 51.8063 16.9867 52.593 16.52C53.393 16.04 54.273 15.8 55.233 15.8C56.0996 15.8 56.853 15.9733 57.493 16.32C58.1463 16.6533 58.6663 17.0733 59.053 17.58V15.98H61.353V27H59.053V25.36C58.6663 25.88 58.1396 26.3133 57.473 26.66C56.8063 27.0067 56.0463 27.18 55.193 27.18C54.2463 27.18 53.3796 26.94 52.593 26.46C51.8063 25.9667 51.1796 25.2867 50.713 24.42C50.2596 23.54 50.033 22.5467 50.033 21.44ZM59.053 21.48C59.053 20.72 58.893 20.06 58.573 19.5C58.2663 18.94 57.8596 18.5133 57.353 18.22C56.8463 17.9267 56.2996 17.78 55.713 17.78C55.1263 17.78 54.5796 17.9267 54.073 18.22C53.5663 18.5 53.153 18.92 52.833 19.48C52.5263 20.0267 52.373 20.68 52.373 21.44C52.373 22.2 52.5263 22.8667 52.833 23.44C53.153 24.0133 53.5663 24.4533 54.073 24.76C54.593 25.0533 55.1396 25.2 55.713 25.2C56.2996 25.2 56.8463 25.0533 57.353 24.76C57.8596 24.4667 58.2663 24.04 58.573 23.48C58.893 22.9067 59.053 22.24 59.053 21.48ZM63.5877 21.48C63.5877 20.3467 63.8143 19.3533 64.2677 18.5C64.7343 17.6333 65.3743 16.9667 66.1877 16.5C67.001 16.0333 67.9343 15.8 68.9877 15.8C70.321 15.8 71.421 16.12 72.2877 16.76C73.1677 17.3867 73.761 18.2867 74.0677 19.46H71.6077C71.4077 18.9133 71.0877 18.4867 70.6477 18.18C70.2077 17.8733 69.6543 17.72 68.9877 17.72C68.0543 17.72 67.3077 18.0533 66.7477 18.72C66.201 19.3733 65.9277 20.2933 65.9277 21.48C65.9277 22.6667 66.201 23.5933 66.7477 24.26C67.3077 24.9267 68.0543 25.26 68.9877 25.26C70.3077 25.26 71.181 24.68 71.6077 23.52H74.0677C73.7477 24.64 73.1477 25.5333 72.2677 26.2C71.3877 26.8533 70.2943 27.18 68.9877 27.18C67.9343 27.18 67.001 26.9467 66.1877 26.48C65.3743 26 64.7343 25.3333 64.2677 24.48C63.8143 23.6133 63.5877 22.6133 63.5877 21.48ZM86.4398 21.22C86.4398 21.6333 86.4132 22.0067 86.3598 22.34H77.9398C78.0065 23.22 78.3332 23.9267 78.9198 24.46C79.5065 24.9933 80.2265 25.26 81.0798 25.26C82.3065 25.26 83.1732 24.7467 83.6798 23.72H86.1398C85.8065 24.7333 85.1998 25.5667 84.3198 26.22C83.4532 26.86 82.3732 27.18 81.0798 27.18C80.0265 27.18 79.0798 26.9467 78.2398 26.48C77.4132 26 76.7598 25.3333 76.2798 24.48C75.8132 23.6133 75.5798 22.6133 75.5798 21.48C75.5798 20.3467 75.8065 19.3533 76.2598 18.5C76.7265 17.6333 77.3732 16.9667 78.1998 16.5C79.0398 16.0333 79.9998 15.8 81.0798 15.8C82.1198 15.8 83.0465 16.0267 83.8598 16.48C84.6732 16.9333 85.3065 17.5733 85.7598 18.4C86.2132 19.2133 86.4398 20.1533 86.4398 21.22ZM84.0598 20.5C84.0465 19.66 83.7465 18.9867 83.1598 18.48C82.5732 17.9733 81.8465 17.72 80.9798 17.72C80.1932 17.72 79.5198 17.9733 78.9598 18.48C78.3998 18.9733 78.0665 19.6467 77.9598 20.5H84.0598ZM90.9636 17.62C91.3503 17.0867 91.8769 16.6533 92.5436 16.32C93.2236 15.9733 93.9769 15.8 94.8036 15.8C95.7769 15.8 96.6569 16.0333 97.4436 16.5C98.2303 16.9667 98.8503 17.6333 99.3036 18.5C99.7569 19.3533 99.9836 20.3333 99.9836 21.44C99.9836 22.5467 99.7569 23.54 99.3036 24.42C98.8503 25.2867 98.2236 25.9667 97.4236 26.46C96.6369 26.94 95.7636 27.18 94.8036 27.18C93.9503 27.18 93.1903 27.0133 92.5236 26.68C91.8703 26.3467 91.3503 25.92 90.9636 25.4V27H88.6836V12.2H90.9636V17.62ZM97.6636 21.44C97.6636 20.68 97.5036 20.0267 97.1836 19.48C96.8769 18.92 96.4636 18.5 95.9436 18.22C95.4369 17.9267 94.8903 17.78 94.3036 17.78C93.7303 17.78 93.1836 17.9267 92.6636 18.22C92.1569 18.5133 91.7436 18.94 91.4236 19.5C91.1169 20.06 90.9636 20.72 90.9636 21.48C90.9636 22.24 91.1169 22.9067 91.4236 23.48C91.7436 24.04 92.1569 24.4667 92.6636 24.76C93.1836 25.0533 93.7303 25.2 94.3036 25.2C94.8903 25.2 95.4369 25.0533 95.9436 24.76C96.4636 24.4533 96.8769 24.0133 97.1836 23.44C97.5036 22.8667 97.6636 22.2 97.6636 21.44ZM107.018 27.18C105.978 27.18 105.038 26.9467 104.198 26.48C103.358 26 102.698 25.3333 102.218 24.48C101.738 23.6133 101.498 22.6133 101.498 21.48C101.498 20.36 101.745 19.3667 102.238 18.5C102.732 17.6333 103.405 16.9667 104.258 16.5C105.112 16.0333 106.065 15.8 107.118 15.8C108.172 15.8 109.125 16.0333 109.978 16.5C110.832 16.9667 111.505 17.6333 111.998 18.5C112.492 19.3667 112.738 20.36 112.738 21.48C112.738 22.6 112.485 23.5933 111.978 24.46C111.472 25.3267 110.778 26 109.898 26.48C109.032 26.9467 108.072 27.18 107.018 27.18ZM107.018 25.2C107.605 25.2 108.152 25.06 108.658 24.78C109.178 24.5 109.598 24.08 109.918 23.52C110.238 22.96 110.398 22.28 110.398 21.48C110.398 20.68 110.245 20.0067 109.938 19.46C109.632 18.9 109.225 18.48 108.718 18.2C108.212 17.92 107.665 17.78 107.078 17.78C106.492 17.78 105.945 17.92 105.438 18.2C104.945 18.48 104.552 18.9 104.258 19.46C103.965 20.0067 103.818 20.68 103.818 21.48C103.818 22.6667 104.118 23.5867 104.718 24.24C105.332 24.88 106.098 25.2 107.018 25.2ZM119.772 27.18C118.732 27.18 117.792 26.9467 116.952 26.48C116.112 26 115.452 25.3333 114.972 24.48C114.492 23.6133 114.252 22.6133 114.252 21.48C114.252 20.36 114.499 19.3667 114.992 18.5C115.486 17.6333 116.159 16.9667 117.012 16.5C117.866 16.0333 118.819 15.8 119.872 15.8C120.926 15.8 121.879 16.0333 122.732 16.5C123.586 16.9667 124.259 17.6333 124.752 18.5C125.246 19.3667 125.492 20.36 125.492 21.48C125.492 22.6 125.239 23.5933 124.732 24.46C124.226 25.3267 123.532 26 122.652 26.48C121.786 26.9467 120.826 27.18 119.772 27.18ZM119.772 25.2C120.359 25.2 120.906 25.06 121.412 24.78C121.932 24.5 122.352 24.08 122.672 23.52C122.992 22.96 123.152 22.28 123.152 21.48C123.152 20.68 122.999 20.0067 122.692 19.46C122.386 18.9 121.979 18.48 121.472 18.2C120.966 17.92 120.419 17.78 119.832 17.78C119.246 17.78 118.699 17.92 118.192 18.2C117.699 18.48 117.306 18.9 117.012 19.46C116.719 20.0067 116.572 20.68 116.572 21.48C116.572 22.6667 116.872 23.5867 117.472 24.24C118.086 24.88 118.852 25.2 119.772 25.2ZM132.106 21.5L137.186 27H134.106L130.026 22.26V27H127.746V12.2H130.026V20.8L134.026 15.98H137.186L132.106 21.5Z" fill="white"/>
<mask id="mask0" mask-type="alpha" maskUnits="userSpaceOnUse" x="15" y="10" width="10" height="20">
<path d="M25 10V14H23C22.31 14 22 14.81 22 15.5V18H25V22H22V30H18V22H15V18H18V14C18 12.9391 18.4214 11.9217 19.1716 11.1716C19.9217 10.4214 20.9391 10 22 10H25Z" fill="#5F5F5F"/>
</mask>
<g mask="url(#mask0)">
<rect width="40" height="40" fill="white"/>
</g>
</svg>
