<svg width="123" height="40" viewBox="0 0 123 40" fill="none" xmlns="http://www.w3.org/2000/svg">
<path d="M36.3432 16.7358H35.0007V16.6666H20.0007V23.3333H29.4198C28.0457 27.2141 24.3532 29.9999 20.0007 29.9999C14.4782 29.9999 10.0007 25.5224 10.0007 19.9999C10.0007 14.4774 14.4782 9.99992 20.0007 9.99992C22.5498 9.99992 24.869 10.9616 26.6348 12.5324L31.349 7.81825C28.3723 5.04409 24.3906 3.33325 20.0007 3.33325C10.7965 3.33325 3.33398 10.7958 3.33398 19.9999C3.33398 29.2041 10.7965 36.6666 20.0007 36.6666C29.2048 36.6666 36.6673 29.2041 36.6673 19.9999C36.6673 18.8824 36.5523 17.7916 36.3432 16.7358Z" fill="#FFC107"/>
<path d="M5.25586 12.2424L10.7317 16.2583C12.2134 12.5899 15.8017 9.99992 20.0009 9.99992C22.55 9.99992 24.8692 10.9616 26.635 12.5324L31.3492 7.81825C28.3725 5.04409 24.3909 3.33325 20.0009 3.33325C13.5992 3.33325 8.04753 6.94742 5.25586 12.2424Z" fill="#FF3D00"/>
<path d="M19.9996 36.6668C24.3046 36.6668 28.2163 35.0193 31.1738 32.3401L26.0154 27.9751C24.2859 29.2904 22.1725 30.0018 19.9996 30.0001C15.6646 30.0001 11.9838 27.2359 10.5971 23.3784L5.16211 27.5659C7.92044 32.9634 13.5221 36.6668 19.9996 36.6668Z" fill="#4CAF50"/>
<path d="M36.3425 16.7359H35V16.6667H20V23.3334H29.4192C28.7618 25.1804 27.5778 26.7944 26.0133 27.9759L26.0158 27.9742L31.1742 32.3392C30.8092 32.6709 36.6667 28.3334 36.6667 20.0001C36.6667 18.8826 36.5517 17.7917 36.3425 16.7359Z" fill="#1976D2"/>
<path d="M62.56 17.1C62.2 16.4067 61.7 15.8867 61.06 15.54C60.42 15.18 59.68 15 58.84 15C57.92 15 57.1 15.2067 56.38 15.62C55.66 16.0333 55.0933 16.62 54.68 17.38C54.28 18.14 54.08 19.02 54.08 20.02C54.08 21.02 54.28 21.9067 54.68 22.68C55.0933 23.44 55.66 24.0267 56.38 24.44C57.1 24.8533 57.92 25.06 58.84 25.06C60.08 25.06 61.0867 24.7133 61.86 24.02C62.6333 23.3267 63.1067 22.3867 63.28 21.2H58.06V19.38H65.72V21.16C65.5733 22.24 65.1867 23.2333 64.56 24.14C63.9467 25.0467 63.14 25.7733 62.14 26.32C61.1533 26.8533 60.0533 27.12 58.84 27.12C57.5333 27.12 56.34 26.82 55.26 26.22C54.18 25.6067 53.32 24.76 52.68 23.68C52.0533 22.6 51.74 21.38 51.74 20.02C51.74 18.66 52.0533 17.44 52.68 16.36C53.32 15.28 54.18 14.44 55.26 13.84C56.3533 13.2267 57.5467 12.92 58.84 12.92C60.32 12.92 61.6333 13.2867 62.78 14.02C63.94 14.74 64.78 15.7667 65.3 17.1H62.56ZM72.7488 27.18C71.7088 27.18 70.7688 26.9467 69.9288 26.48C69.0888 26 68.4288 25.3333 67.9488 24.48C67.4688 23.6133 67.2288 22.6133 67.2288 21.48C67.2288 20.36 67.4754 19.3667 67.9688 18.5C68.4621 17.6333 69.1354 16.9667 69.9888 16.5C70.8421 16.0333 71.7954 15.8 72.8488 15.8C73.9021 15.8 74.8554 16.0333 75.7088 16.5C76.5621 16.9667 77.2354 17.6333 77.7288 18.5C78.2221 19.3667 78.4688 20.36 78.4688 21.48C78.4688 22.6 78.2154 23.5933 77.7088 24.46C77.2021 25.3267 76.5088 26 75.6288 26.48C74.7621 26.9467 73.8021 27.18 72.7488 27.18ZM72.7488 25.2C73.3354 25.2 73.8821 25.06 74.3888 24.78C74.9088 24.5 75.3288 24.08 75.6488 23.52C75.9688 22.96 76.1288 22.28 76.1288 21.48C76.1288 20.68 75.9754 20.0067 75.6688 19.46C75.3621 18.9 74.9554 18.48 74.4488 18.2C73.9421 17.92 73.3954 17.78 72.8088 17.78C72.2221 17.78 71.6754 17.92 71.1688 18.2C70.6754 18.48 70.2821 18.9 69.9888 19.46C69.6954 20.0067 69.5488 20.68 69.5488 21.48C69.5488 22.6667 69.8488 23.5867 70.4488 24.24C71.0621 24.88 71.8288 25.2 72.7488 25.2ZM85.5027 27.18C84.4627 27.18 83.5227 26.9467 82.6827 26.48C81.8427 26 81.1827 25.3333 80.7027 24.48C80.2227 23.6133 79.9827 22.6133 79.9827 21.48C79.9827 20.36 80.2293 19.3667 80.7227 18.5C81.216 17.6333 81.8893 16.9667 82.7427 16.5C83.596 16.0333 84.5493 15.8 85.6027 15.8C86.656 15.8 87.6093 16.0333 88.4627 16.5C89.316 16.9667 89.9893 17.6333 90.4827 18.5C90.976 19.3667 91.2227 20.36 91.2227 21.48C91.2227 22.6 90.9693 23.5933 90.4627 24.46C89.956 25.3267 89.2627 26 88.3827 26.48C87.516 26.9467 86.556 27.18 85.5027 27.18ZM85.5027 25.2C86.0893 25.2 86.636 25.06 87.1427 24.78C87.6627 24.5 88.0827 24.08 88.4027 23.52C88.7227 22.96 88.8827 22.28 88.8827 21.48C88.8827 20.68 88.7293 20.0067 88.4227 19.46C88.116 18.9 87.7093 18.48 87.2027 18.2C86.696 17.92 86.1493 17.78 85.5627 17.78C84.976 17.78 84.4293 17.92 83.9227 18.2C83.4293 18.48 83.036 18.9 82.7427 19.46C82.4493 20.0067 82.3027 20.68 82.3027 21.48C82.3027 22.6667 82.6027 23.5867 83.2027 24.24C83.816 24.88 84.5827 25.2 85.5027 25.2ZM97.9166 15.8C98.7699 15.8 99.5232 15.9733 100.177 16.32C100.843 16.6533 101.363 17.0733 101.737 17.58V15.98H104.037V27.18C104.037 28.1933 103.823 29.0933 103.397 29.88C102.97 30.68 102.35 31.3067 101.537 31.76C100.737 32.2133 99.7766 32.44 98.6566 32.44C97.1632 32.44 95.9232 32.0867 94.9366 31.38C93.9499 30.6867 93.3899 29.74 93.2566 28.54H95.5166C95.6899 29.1133 96.0566 29.5733 96.6166 29.92C97.1899 30.28 97.8699 30.46 98.6566 30.46C99.5766 30.46 100.317 30.18 100.877 29.62C101.45 29.06 101.737 28.2467 101.737 27.18V25.34C101.35 25.86 100.823 26.3 100.157 26.66C99.5032 27.0067 98.7566 27.18 97.9166 27.18C96.9566 27.18 96.0766 26.94 95.2766 26.46C94.4899 25.9667 93.8632 25.2867 93.3966 24.42C92.9432 23.54 92.7166 22.5467 92.7166 21.44C92.7166 20.3333 92.9432 19.3533 93.3966 18.5C93.8632 17.6467 94.4899 16.9867 95.2766 16.52C96.0766 16.04 96.9566 15.8 97.9166 15.8ZM101.737 21.48C101.737 20.72 101.577 20.06 101.257 19.5C100.95 18.94 100.543 18.5133 100.037 18.22C99.5299 17.9267 98.9832 17.78 98.3966 17.78C97.8099 17.78 97.2632 17.9267 96.7566 18.22C96.2499 18.5 95.8366 18.92 95.5166 19.48C95.2099 20.0267 95.0566 20.68 95.0566 21.44C95.0566 22.2 95.2099 22.8667 95.5166 23.44C95.8366 24.0133 96.2499 24.4533 96.7566 24.76C97.2766 25.0533 97.8232 25.2 98.3966 25.2C98.9832 25.2 99.5299 25.0533 100.037 24.76C100.543 24.4667 100.95 24.04 101.257 23.48C101.577 22.9067 101.737 22.24 101.737 21.48ZM109.311 12.2V27H107.031V12.2H109.311ZM122.405 21.22C122.405 21.6333 122.378 22.0067 122.325 22.34H113.905C113.971 23.22 114.298 23.9267 114.885 24.46C115.471 24.9933 116.191 25.26 117.045 25.26C118.271 25.26 119.138 24.7467 119.645 23.72H122.105C121.771 24.7333 121.165 25.5667 120.285 26.22C119.418 26.86 118.338 27.18 117.045 27.18C115.991 27.18 115.045 26.9467 114.205 26.48C113.378 26 112.725 25.3333 112.245 24.48C111.778 23.6133 111.545 22.6133 111.545 21.48C111.545 20.3467 111.771 19.3533 112.225 18.5C112.691 17.6333 113.338 16.9667 114.165 16.5C115.005 16.0333 115.965 15.8 117.045 15.8C118.085 15.8 119.011 16.0267 119.825 16.48C120.638 16.9333 121.271 17.5733 121.725 18.4C122.178 19.2133 122.405 20.1533 122.405 21.22ZM120.025 20.5C120.011 19.66 119.711 18.9867 119.125 18.48C118.538 17.9733 117.811 17.72 116.945 17.72C116.158 17.72 115.485 17.9733 114.925 18.48C114.365 18.9733 114.031 19.6467 113.925 20.5H120.025Z" fill="#4F4F4F"/>
</svg>
