<svg width="16" height="16" viewBox="0 0 16 16" fill="none" xmlns="http://www.w3.org/2000/svg">
<path fill-rule="evenodd" clip-rule="evenodd" d="M8 14.25C7.65543 14.9162 7.655 14.9159 7.655 14.9159L7.65269 14.9147L7.64731 14.9119L7.62883 14.9022C7.61313 14.8939 7.59074 14.882 7.5621 14.8665C7.50484 14.8356 7.42254 14.7904 7.3188 14.7317C7.1114 14.6142 6.81771 14.442 6.46642 14.2199C5.76538 13.7767 4.82717 13.13 3.8853 12.3181C2.04459 10.7312 0 8.35031 0 5.5C0 2.83579 2.08579 1 4.25 1C5.79736 1 7.15289 1.80151 8 3.01995C8.84711 1.80151 10.2026 1 11.75 1C13.9142 1 16 2.83579 16 5.5C16 8.35031 13.9554 10.7312 12.1147 12.3181C11.1728 13.13 10.2346 13.7767 9.53358 14.2199C9.18229 14.442 8.8886 14.6142 8.6812 14.7317C8.57746 14.7904 8.49517 14.8356 8.4379 14.8665C8.40926 14.882 8.38687 14.8939 8.37117 14.9022L8.35269 14.9119L8.34731 14.9147L8.34501 14.9159C8.34501 14.9159 8.34457 14.9162 8 14.25ZM8 14.25L8.34501 14.9159C8.12889 15.0277 7.87111 15.0277 7.655 14.9159L8 14.25Z" fill="white"/>
</svg>
