<svg width="13" height="14" viewBox="0 0 13 14" fill="none" xmlns="http://www.w3.org/2000/svg">
<path fill-rule="evenodd" clip-rule="evenodd" d="M0 1.75C0 0.7835 0.7835 0 1.75 0H4.25C4.66421 0 5 0.33579 5 0.75C5 1.16421 4.66421 1.5 4.25 1.5H1.75C1.61193 1.5 1.5 1.61193 1.5 1.75V12.25C1.5 12.3881 1.61193 12.5 1.75 12.5H4.25C4.66421 12.5 5 12.8358 5 13.25C5 13.6642 4.66421 14 4.25 14H1.75C0.7835 14 0 13.2165 0 12.25V1.75ZM6.56066 6.25L8.5303 4.28033C8.8232 3.98744 8.8232 3.51256 8.5303 3.21967C8.2374 2.92678 7.76256 2.92678 7.46967 3.21967L4.21967 6.46967C3.92678 6.76256 3.92678 7.23744 4.21967 7.53033L7.46967 10.7803C7.76256 11.0732 8.2374 11.0732 8.5303 10.7803C8.8232 10.4874 8.8232 10.0126 8.5303 9.7197L6.56066 7.75H12.25C12.6642 7.75 13 7.41421 13 7C13 6.58578 12.6642 6.25 12.25 6.25H6.56066Z" fill="white"/>
</svg>
