<svg width="115" height="19" viewBox="0 0 115 19" fill="none" xmlns="http://www.w3.org/2000/svg">
<path d="M85.5354 17.3413C84.3996 17.3413 83.3789 17.1026 82.4733 16.6252C81.5678 16.1478 80.8464 15.4615 80.3092 14.5664C79.7873 13.6564 79.5264 12.5673 79.5264 11.2992V0.736694H81.6445V7.69631H81.6906C82.0743 7.01005 82.6422 6.45805 83.3943 6.04033C84.1464 5.60768 84.9752 5.39136 85.8808 5.39136C86.9552 5.39136 87.9222 5.63006 88.7817 6.10746C89.6566 6.58486 90.3396 7.26367 90.8308 8.14388C91.3373 9.00917 91.5906 10.0386 91.5906 11.2321C91.5906 12.4852 91.3296 13.5743 90.8078 14.4993C90.3013 15.4093 89.5875 16.1105 88.6666 16.6028C87.761 17.0952 86.7173 17.3413 85.5354 17.3413ZM85.5354 15.5734C86.2568 15.5734 86.9092 15.4019 87.4924 15.0587C88.091 14.7156 88.5668 14.2307 88.9199 13.6042C89.2729 12.9776 89.4494 12.2316 89.4494 11.3663C89.4494 10.5309 89.2729 9.79986 88.9199 9.17327C88.5822 8.54668 88.1141 8.05436 87.5154 7.69631C86.9322 7.33826 86.2799 7.15924 85.5585 7.15924C84.8371 7.15924 84.1771 7.3308 83.5785 7.67393C82.9952 8.01707 82.5271 8.50939 82.174 9.1509C81.8364 9.77749 81.6675 10.5234 81.6675 11.3887C81.6675 12.2391 81.8364 12.9776 82.174 13.6042C82.5271 14.2307 82.9952 14.7156 83.5785 15.0587C84.1617 15.4019 84.8141 15.5734 85.5354 15.5734Z" fill="white"/>
<path d="M100.263 17.0728C98.9581 17.0728 97.807 16.8415 96.8093 16.3791C95.827 15.9017 95.0519 15.2378 94.4839 14.3874C93.9314 13.5221 93.6551 12.5151 93.6551 11.3663C93.6551 10.2325 93.893 9.21803 94.3688 8.3229C94.8447 7.41286 95.5047 6.69675 96.3488 6.1746C97.193 5.65244 98.1753 5.39136 99.2958 5.39136C100.508 5.39136 101.514 5.64498 102.312 6.15222C103.125 6.65946 103.732 7.34572 104.131 8.21101C104.53 9.06138 104.729 10.0162 104.729 11.0754C104.729 11.4335 104.706 11.7617 104.66 12.0601H95.9114C95.9881 12.7612 96.226 13.358 96.6251 13.8503C97.0242 14.3277 97.5307 14.6932 98.1446 14.9468C98.7739 15.1855 99.4646 15.3049 100.217 15.3049H103.279V17.0728H100.263ZM95.8884 10.6055H102.588C102.588 10.1132 102.488 9.59846 102.289 9.06138C102.089 8.52431 101.752 8.06928 101.276 7.69631C100.8 7.30842 100.14 7.11448 99.2958 7.11448C98.5898 7.11448 97.9835 7.29351 97.477 7.65156C96.9858 7.99469 96.6021 8.43479 96.3258 8.97187C96.0649 9.49403 95.9191 10.0386 95.8884 10.6055Z" fill="white"/>
<path d="M111.436 17.0728C110.393 17.0728 109.571 16.7819 108.973 16.2C108.39 15.6182 108.098 14.8275 108.098 13.8279V7.42777H106.072V5.6599H108.098V2.79549H110.216V5.6599H114.245V7.42777H110.216V13.6937C110.216 14.186 110.354 14.5813 110.63 14.8797C110.922 15.1632 111.321 15.3049 111.828 15.3049H114.199V17.0728H111.436Z" fill="white"/>
<g filter="url(#filter0_d)">
<path d="M17.8968 8.30835C17.8968 9.69307 17.6794 10.9651 17.2446 12.1244C16.826 13.2837 16.2222 14.282 15.4332 15.1193C14.6604 15.9565 13.7265 16.6086 12.6316 17.0756C11.5367 17.5425 10.3291 17.776 9.00876 17.776C7.70454 17.776 6.50498 17.5586 5.41009 17.1239C4.31519 16.6731 3.3652 16.0612 2.56013 15.2883C1.75506 14.4994 1.1271 13.5655 0.676258 12.4867C0.225417 11.3918 0 10.2003 0 8.91215C0 7.62404 0.217368 6.44058 0.652107 5.36178C1.10295 4.26688 1.72285 3.32495 2.51182 2.53598C3.31689 1.73091 4.26688 1.111 5.36178 0.676261C6.45668 0.22542 7.65624 0 8.96046 0C10.0715 0 11.118 0.169065 12.1002 0.507196C13.0824 0.829225 13.96 1.28812 14.7328 1.88387C15.5057 2.47962 16.1498 3.18809 16.665 4.00926C17.1963 4.83043 17.5506 5.73212 17.7277 6.7143H12.849C12.543 5.98974 12.0439 5.41814 11.3515 4.9995C10.6592 4.58086 9.87824 4.37154 9.00876 4.37154C8.3808 4.37154 7.80115 4.48425 7.2698 4.70968C6.75455 4.91899 6.30371 5.22492 5.91728 5.62746C5.54695 6.02999 5.25712 6.51304 5.0478 7.07659C4.85458 7.62404 4.75798 8.23589 4.75798 8.91215C4.75798 9.57231 4.85458 10.1842 5.0478 10.7477C5.25712 11.2952 5.54695 11.7702 5.91728 12.1727C6.28761 12.5591 6.7304 12.8651 7.24565 13.0905C7.777 13.2998 8.3647 13.4045 9.00876 13.4045C9.89434 13.4045 10.6833 13.2112 11.3757 12.8248C12.068 12.4223 12.5511 11.8909 12.8248 11.2308H8.62232V8.30835H17.8968Z" fill="url(#paint0_linear)"/>
<path d="M28.6864 17.776C27.3338 17.776 26.086 17.5586 24.9428 17.1239C23.7996 16.6731 22.8093 16.0531 21.9721 15.2642C21.1509 14.4752 20.5068 13.5413 20.0399 12.4625C19.589 11.3676 19.3636 10.1761 19.3636 8.888C19.3636 7.59988 19.589 6.41643 20.0399 5.33763C20.5068 4.24273 21.1509 3.3008 21.9721 2.51183C22.8093 1.72286 23.7996 1.111 24.9428 0.676261C26.086 0.22542 27.3338 0 28.6864 0C30.0389 0 31.2787 0.22542 32.4058 0.676261C33.549 1.111 34.5312 1.72286 35.3524 2.51183C36.1735 3.2847 36.8095 4.21858 37.2604 5.31348C37.7273 6.39228 37.9608 7.58378 37.9608 8.888C37.9608 10.1922 37.7273 11.3918 37.2604 12.4867C36.8095 13.5655 36.1735 14.4994 35.3524 15.2883C34.5312 16.0612 33.549 16.6731 32.4058 17.1239C31.2787 17.5586 30.0389 17.776 28.6864 17.776ZM28.6864 13.4286C29.3304 13.4286 29.9181 13.3159 30.4495 13.0905C30.9969 12.8651 31.4639 12.5511 31.8503 12.1485C32.2528 11.746 32.5588 11.271 32.7681 10.7236C32.9935 10.16 33.1062 9.54816 33.1062 8.888C33.1062 8.22784 32.9935 7.62404 32.7681 7.07659C32.5588 6.51304 32.2528 6.02999 31.8503 5.62746C31.4639 5.22492 30.9969 4.91094 30.4495 4.68552C29.9181 4.4601 29.3304 4.34739 28.6864 4.34739C28.0423 4.34739 27.4466 4.4601 26.8991 4.68552C26.3517 4.91094 25.8767 5.22492 25.4741 5.62746C25.0877 6.02999 24.7818 6.51304 24.5563 7.07659C24.3309 7.62404 24.2182 8.22784 24.2182 8.888C24.2182 9.54816 24.3309 10.16 24.5563 10.7236C24.7818 11.271 25.0877 11.746 25.4741 12.1485C25.8767 12.5511 26.3517 12.8651 26.8991 13.0905C27.4466 13.3159 28.0423 13.4286 28.6864 13.4286Z" fill="url(#paint1_linear)"/>
<path d="M48.7817 17.776C47.4292 17.776 46.1813 17.5586 45.0381 17.1239C43.8949 16.6731 42.9047 16.0531 42.0674 15.2642C41.2462 14.4752 40.6022 13.5413 40.1352 12.4625C39.6844 11.3676 39.459 10.1761 39.459 8.888C39.459 7.59988 39.6844 6.41643 40.1352 5.33763C40.6022 4.24273 41.2462 3.3008 42.0674 2.51183C42.9047 1.72286 43.8949 1.111 45.0381 0.676261C46.1813 0.22542 47.4292 0 48.7817 0C50.1342 0 51.3741 0.22542 52.5012 0.676261C53.6444 1.111 54.6265 1.72286 55.4477 2.51183C56.2689 3.2847 56.9049 4.21858 57.3557 5.31348C57.8227 6.39228 58.0562 7.58378 58.0562 8.888C58.0562 10.1922 57.8227 11.3918 57.3557 12.4867C56.9049 13.5655 56.2689 14.4994 55.4477 15.2883C54.6265 16.0612 53.6444 16.6731 52.5012 17.1239C51.3741 17.5586 50.1342 17.776 48.7817 17.776ZM48.7817 13.4286C49.4258 13.4286 50.0135 13.3159 50.5448 13.0905C51.0923 12.8651 51.5592 12.5511 51.9457 12.1485C52.3482 11.746 52.6541 11.271 52.8634 10.7236C53.0889 10.16 53.2016 9.54816 53.2016 8.888C53.2016 8.22784 53.0889 7.62404 52.8634 7.07659C52.6541 6.51304 52.3482 6.02999 51.9457 5.62746C51.5592 5.22492 51.0923 4.91094 50.5448 4.68552C50.0135 4.4601 49.4258 4.34739 48.7817 4.34739C48.1377 4.34739 47.5419 4.4601 46.9945 4.68552C46.447 4.91094 45.972 5.22492 45.5695 5.62746C45.183 6.02999 44.8771 6.51304 44.6517 7.07659C44.4263 7.62404 44.3136 8.22784 44.3136 8.888C44.3136 9.54816 44.4263 10.16 44.6517 10.7236C44.8771 11.271 45.183 11.746 45.5695 12.1485C45.972 12.5511 46.447 12.8651 46.9945 13.0905C47.5419 13.3159 48.1377 13.4286 48.7817 13.4286Z" fill="url(#paint2_linear)"/>
<path d="M67.283 0.434739C68.5712 0.434739 69.7466 0.644058 70.8093 1.0627C71.872 1.48133 72.7897 2.06099 73.5626 2.80165C74.3355 3.54232 74.9312 4.4279 75.3499 5.45839C75.7846 6.48888 76.002 7.62404 76.002 8.86385C76.002 10.1037 75.7846 11.2469 75.3499 12.2935C74.9312 13.324 74.3355 14.2176 73.5626 14.9743C72.7897 15.715 71.8639 16.2947 70.7851 16.7133C69.7224 17.1319 68.5551 17.3413 67.283 17.3413H60.448V0.434739H67.283ZM67.0657 13.0663C67.6936 13.0663 68.2652 12.9697 68.7805 12.7765C69.2957 12.5672 69.7305 12.2774 70.0847 11.907C70.455 11.5367 70.7368 11.0939 70.93 10.5787C71.1393 10.0634 71.244 9.49181 71.244 8.86385C71.244 7.60794 70.8576 6.60159 70.0847 5.84483C69.3279 5.08806 68.3216 4.70968 67.0657 4.70968H65.1094V13.0663H67.0657Z" fill="url(#paint3_linear)"/>
</g>
<defs>
<filter id="filter0_d" x="0" y="0" width="76.002" height="18.776" filterUnits="userSpaceOnUse" color-interpolation-filters="sRGB">
<feFlood flood-opacity="0" result="BackgroundImageFix"/>
<feColorMatrix in="SourceAlpha" type="matrix" values="0 0 0 0 0 0 0 0 0 0 0 0 0 0 0 0 0 0 127 0"/>
<feOffset dy="1"/>
<feColorMatrix type="matrix" values="0 0 0 0 0 0 0 0 0 0 0 0 0 0 0 0 0 0 0.55 0"/>
<feBlend mode="normal" in2="BackgroundImageFix" result="effect1_dropShadow"/>
<feBlend mode="normal" in="SourceGraphic" in2="effect1_dropShadow" result="shape"/>
</filter>
<linearGradient id="paint0_linear" x1="38.001" y1="0" x2="38.001" y2="17.776" gradientUnits="userSpaceOnUse">
<stop stop-color="#F2D861"/>
<stop offset="1" stop-color="#D38A33"/>
</linearGradient>
<linearGradient id="paint1_linear" x1="38.001" y1="0" x2="38.001" y2="17.776" gradientUnits="userSpaceOnUse">
<stop stop-color="#F2D861"/>
<stop offset="1" stop-color="#D38A33"/>
</linearGradient>
<linearGradient id="paint2_linear" x1="38.001" y1="0" x2="38.001" y2="17.776" gradientUnits="userSpaceOnUse">
<stop stop-color="#F2D861"/>
<stop offset="1" stop-color="#D38A33"/>
</linearGradient>
<linearGradient id="paint3_linear" x1="38.001" y1="0" x2="38.001" y2="17.776" gradientUnits="userSpaceOnUse">
<stop stop-color="#F2D861"/>
<stop offset="1" stop-color="#D38A33"/>
</linearGradient>
</defs>
</svg>
