<svg width="16" height="16" viewBox="0 0 16 16" fill="none" xmlns="http://www.w3.org/2000/svg">
<path fill-rule="evenodd" clip-rule="evenodd" d="M14 13.25C14 14.2165 13.2165 15 12.25 15L9.75 15C9.33579 15 9 14.6642 9 14.25C9 13.8358 9.33579 13.5 9.75 13.5L12.25 13.5C12.3881 13.5 12.5 13.3881 12.5 13.25L12.5 2.75C12.5 2.6119 12.3881 2.5 12.25 2.5L9.75 2.5C9.33579 2.5 9 2.1642 9 1.75C9 1.3358 9.33579 1 9.75 1L12.25 1C13.2165 1 14 1.7835 14 2.75L14 13.25ZM7.43934 8.75L5.4697 10.7197C5.1768 11.0126 5.1768 11.4874 5.4697 11.7803C5.7626 12.0732 6.23744 12.0732 6.53033 11.7803L9.78033 8.53033C10.0732 8.23744 10.0732 7.76256 9.78033 7.46967L6.53033 4.2197C6.23744 3.9268 5.7626 3.9268 5.4697 4.2197C5.1768 4.5126 5.1768 4.9874 5.4697 5.2803L7.43934 7.25L1.75 7.25C1.3358 7.25 0.999999 7.58579 0.999999 8C0.999999 8.41422 1.3358 8.75 1.75 8.75L7.43934 8.75Z" fill="white"/>
</svg>
