<svg width="173" height="173" viewBox="0 0 173 173" fill="none" xmlns="http://www.w3.org/2000/svg">
<g clip-path="url(#clip0)">
<path d="M163.169 73.7054C160.506 71.7422 157.182 69.29 156.745 67.6653C156.271 65.8826 157.964 61.9789 159.333 58.8423C161.68 53.4566 164.102 47.8756 161.409 43.2346C158.694 38.5336 152.593 37.8415 146.704 37.1797C143.342 36.8035 139.16 36.3374 137.911 35.0811C136.655 33.8249 136.188 29.6429 135.812 26.2881C135.15 20.3986 134.466 14.306 129.757 11.583C125.666 9.20625 119.603 11.2822 114.15 13.659C111.141 14.9678 107.997 16.2163 105.319 16.2466C103.695 15.8104 101.25 12.4856 99.2791 9.82292C95.8947 5.21997 92.0509 0 86.4998 0C80.9562 0 77.1053 5.21997 73.7128 9.82327C71.7422 12.4934 69.2974 15.8182 66.9957 16.322C64.9649 16.322 61.8509 14.9681 58.8423 13.6594C53.3741 11.2826 47.3041 9.22917 43.2423 11.5834C38.5262 14.3063 37.8418 20.3989 37.1797 26.2959C36.8035 29.6581 36.3374 33.8326 35.0885 35.0889C33.8323 36.3374 29.6503 36.8112 26.2955 37.18C20.3986 37.8418 14.2982 38.534 11.583 43.2349C8.89774 47.876 11.3196 53.4496 13.659 58.8426C15.0281 61.9792 16.7279 65.8904 16.2466 67.673C15.8104 69.2977 12.4934 71.7499 9.82292 73.7131C5.21997 77.0979 0 80.9488 0 86.4998C0 92.0509 5.21997 95.9021 9.83102 99.2943C12.4937 101.257 15.8182 103.71 16.2547 105.334C16.7286 107.117 15.0362 111.021 13.6671 114.157C11.3203 119.543 8.89845 125.124 11.5911 129.765C14.3063 134.466 20.4067 135.158 26.2962 135.82C29.6584 136.196 33.8404 136.662 35.0892 137.919C36.3455 139.175 36.8116 143.357 37.1878 146.712C37.8496 152.601 38.5343 158.694 43.2427 161.417C47.3118 163.786 53.3745 161.717 58.8426 159.341C61.8512 158.032 64.9427 156.701 67.673 156.753C69.2977 157.189 71.7422 160.514 73.7131 163.177C77.1053 167.78 80.9491 173 86.5002 173C92.0438 173 95.8947 167.78 99.2872 163.177C101.258 160.507 103.703 157.182 106.004 156.671C108.035 156.671 111.149 158.024 114.158 159.333C119.641 161.71 125.696 163.771 129.758 161.417C134.474 158.694 135.158 152.601 135.82 146.704C136.197 143.342 136.663 139.167 137.911 137.911C139.168 136.655 143.35 136.189 146.704 135.813C152.601 135.151 158.702 134.466 161.417 129.758C164.102 125.117 161.68 119.543 159.341 114.15C157.972 111.013 156.28 107.102 156.753 105.327C157.19 103.702 160.507 101.25 163.177 99.2869C167.78 95.9021 173 92.0509 173 86.4998C173 80.9488 167.78 77.0979 163.169 73.7054ZM67.6956 101.543C67.6956 103.161 66.6576 104.597 65.1232 105.109C64.7322 105.244 64.3334 105.304 63.9346 105.304C62.7764 105.304 61.6481 104.763 60.926 103.8L45.1304 82.7392V101.543C45.1304 103.619 43.4454 105.304 41.3694 105.304C39.2934 105.304 37.6084 103.619 37.6084 101.543V71.4566C37.6084 69.8393 38.6464 68.4029 40.1809 67.8913C41.7079 67.3723 43.4077 67.9065 44.378 69.2001L60.1736 90.2608V71.4566C60.1736 69.3806 61.8586 67.6956 63.9346 67.6956C66.0106 67.6956 67.6956 69.3806 67.6956 71.4566V101.543ZM94.0218 82.7392C96.0978 82.7392 97.7828 84.4242 97.7828 86.5002C97.7828 88.5762 96.0978 90.2608 94.0218 90.2608H82.7392V97.7824H94.0218C96.0978 97.7824 97.7828 99.4674 97.7828 101.543C97.7828 103.619 96.0978 105.304 94.0218 105.304H78.9782C76.9022 105.304 75.2172 103.619 75.2172 101.543V71.4566C75.2172 69.3806 76.9022 67.6956 78.9782 67.6956H94.0218C96.0978 67.6956 97.7828 69.3806 97.7828 71.4566C97.7828 73.5326 96.0978 75.2176 94.0218 75.2176H82.7392V82.7392H94.0218V82.7392ZM142.8 72.3666L135.278 102.453C134.872 104.078 133.443 105.236 131.773 105.297C131.721 105.297 131.668 105.297 131.623 105.297C130.006 105.297 128.569 104.266 128.05 102.724L124.109 90.8701L120.16 102.732C119.633 104.312 118.332 105.372 116.444 105.297C114.774 105.237 113.345 104.071 112.939 102.454L105.417 72.367C104.921 70.3512 106.139 68.3126 108.155 67.8088C110.133 67.2972 112.209 68.5235 112.713 70.5466L117.098 88.1023L120.536 77.79C121.566 74.7211 126.651 74.7211 127.674 77.79L131.111 88.1023L135.496 70.5466C135.992 68.5231 138.023 67.3046 140.054 67.8088C142.086 68.3123 143.304 70.3583 142.8 72.3666Z" fill="white"/>
</g>
<defs>
<clipPath id="clip0">
<rect width="173" height="173" fill="white"/>
</clipPath>
</defs>
</svg>
