<svg width="17" height="18" viewBox="0 0 17 18" fill="none" xmlns="http://www.w3.org/2000/svg">
<path d="M9.35 12.1219H4.25001C4.02457 12.1219 3.80837 12.2131 3.64896 12.3754C3.48956 12.5378 3.40001 12.758 3.40001 12.9875C3.40001 13.2171 3.48956 13.4373 3.64896 13.5996C3.80837 13.7619 4.02457 13.8531 4.25001 13.8531H9.35C9.57544 13.8531 9.79164 13.7619 9.95104 13.5996C10.1104 13.4373 10.2 13.2171 10.2 12.9875C10.2 12.758 10.1104 12.5378 9.95104 12.3754C9.79164 12.2131 9.57544 12.1219 9.35 12.1219ZM5.95 6.92829H7.65C7.87544 6.92829 8.09164 6.83709 8.25104 6.67475C8.41045 6.51242 8.5 6.29225 8.5 6.06268C8.5 5.83311 8.41045 5.61294 8.25104 5.4506C8.09164 5.28827 7.87544 5.19707 7.65 5.19707H5.95C5.72457 5.19707 5.50837 5.28827 5.34896 5.4506C5.18956 5.61294 5.1 5.83311 5.1 6.06268C5.1 6.29225 5.18956 6.51242 5.34896 6.67475C5.50837 6.83709 5.72457 6.92829 5.95 6.92829ZM16.15 8.6595H13.6V0.869046C13.6006 0.716518 13.5616 0.566537 13.487 0.434292C13.4123 0.302047 13.3047 0.192233 13.175 0.115969C13.0458 0.0399965 12.8992 0 12.75 0C12.6008 0 12.4542 0.0399965 12.325 0.115969L9.775 1.60481L7.225 0.115969C7.09579 0.0399965 6.94921 0 6.8 0C6.6508 0 6.50422 0.0399965 6.375 0.115969L3.82501 1.60481L1.27501 0.115969C1.14579 0.0399965 0.999212 0 0.850006 0C0.7008 0 0.554223 0.0399965 0.425007 0.115969C0.295293 0.192233 0.187671 0.302047 0.113038 0.434292C0.0384054 0.566537 -0.000587932 0.716518 6.70045e-06 0.869046V14.7187C6.70045e-06 15.4075 0.268667 16.068 0.746884 16.555C1.2251 17.042 1.8737 17.3156 2.55001 17.3156H14.45C15.1263 17.3156 15.7749 17.042 16.2531 16.555C16.7313 16.068 17 15.4075 17 14.7187V9.5251C17 9.29553 16.9104 9.07536 16.751 8.91303C16.5916 8.75069 16.3754 8.6595 16.15 8.6595ZM2.55001 15.5843C2.32457 15.5843 2.10837 15.4931 1.94897 15.3308C1.78956 15.1685 1.70001 14.9483 1.70001 14.7187V2.36654L3.40001 3.35333C3.53119 3.42311 3.677 3.45955 3.82501 3.45955C3.97301 3.45955 4.11882 3.42311 4.25001 3.35333L6.8 1.86449L9.35 3.35333C9.48119 3.42311 9.627 3.45955 9.775 3.45955C9.92301 3.45955 10.0688 3.42311 10.2 3.35333L11.9 2.36654V14.7187C11.9023 15.014 11.954 15.3068 12.053 15.5843H2.55001ZM15.3 14.7187C15.3 14.9483 15.2104 15.1685 15.051 15.3308C14.8916 15.4931 14.6754 15.5843 14.45 15.5843C14.2246 15.5843 14.0084 15.4931 13.849 15.3308C13.6896 15.1685 13.6 14.9483 13.6 14.7187V10.3907H15.3V14.7187ZM9.35 8.6595H4.25001C4.02457 8.6595 3.80837 8.75069 3.64896 8.91303C3.48956 9.07536 3.40001 9.29553 3.40001 9.5251C3.40001 9.75467 3.48956 9.97484 3.64896 10.1372C3.80837 10.2995 4.02457 10.3907 4.25001 10.3907H9.35C9.57544 10.3907 9.79164 10.2995 9.95104 10.1372C10.1104 9.97484 10.2 9.75467 10.2 9.5251C10.2 9.29553 10.1104 9.07536 9.95104 8.91303C9.79164 8.75069 9.57544 8.6595 9.35 8.6595Z" fill="#CDA343"/>
</svg>
