<svg width="18" height="18" viewBox="0 0 18 18" fill="none" xmlns="http://www.w3.org/2000/svg">
<g clip-path="url(#clip0)">
<path d="M4.5 1.125V0H0.5625C0.251719 0 0 0.251719 0 0.5625V4.5H1.125V1.91813L6.35063 7.14375L7.14375 6.35063L1.91813 1.125H4.5Z" fill="white"/>
<path d="M17.4367 0H13.4992V1.125H16.0811L10.8555 6.35063L11.6486 7.14375L16.8742 1.91813V4.5H17.9992V0.5625C17.9992 0.251719 17.7475 0 17.4367 0Z" fill="white"/>
<path d="M16.8742 16.0816L11.6486 10.856L10.8555 11.6491L16.0811 16.8747H13.4992V17.9997H17.4367C17.7475 17.9997 17.9992 17.748 17.9992 17.4372V13.4997H16.8742V16.0816Z" fill="white"/>
<path d="M6.35063 10.8511L1.125 16.0823V13.5004H0V17.4379C0 17.7487 0.251719 18.0004 0.5625 18.0004H4.5V16.8754H1.91813L7.14375 11.6498L6.35063 10.8511Z" fill="white"/>
</g>
<defs>
<clipPath id="clip0">
<rect width="18" height="18" fill="white"/>
</clipPath>
</defs>
</svg>
