<svg width="18" height="18" viewBox="0 0 18 18" fill="none" xmlns="http://www.w3.org/2000/svg">
<path fill-rule="evenodd" clip-rule="evenodd" d="M11.8317 3.89211C9.63844 1.69883 6.08404 1.69883 3.89075 3.89211C1.69747 6.0854 1.69747 9.6398 3.89075 11.8331C6.08404 14.0264 9.63844 14.0264 11.8317 11.8331C14.025 9.6398 14.025 6.0854 11.8317 3.89211M17.6715 17.6718C17.2324 18.1097 16.5215 18.1097 16.0824 17.6718L12.546 14.1342C9.46662 16.4364 5.10026 16.2186 2.30278 13.4199C-0.767594 10.3507 -0.767594 5.3734 2.30278 2.30303C5.37204 -0.76735 10.3504 -0.76735 13.4197 2.30303C16.2183 5.10051 16.4362 9.46687 14.134 12.5462L17.6715 16.0838C18.1095 16.5218 18.1095 17.2327 17.6715 17.6718" fill="#EAE7D6"/>
</svg>
