<svg width="20" height="20" viewBox="0 0 20 20" fill="none" xmlns="http://www.w3.org/2000/svg">
<path d="M9.9998 12.5C11.3805 12.5 12.4998 11.3807 12.4998 10C12.4998 8.61929 11.3805 7.5 9.9998 7.5C9.24487 7.5 8.56809 7.83462 8.1097 8.36363C8.1808 8.34389 8.25573 8.33333 8.33313 8.33333C8.79337 8.33333 9.16646 8.70643 9.16646 9.16667C9.16646 9.6269 8.79337 10 8.33313 10C7.97952 10 7.67735 9.77975 7.55631 9.46895C7.51929 9.6401 7.4998 9.81777 7.4998 10C7.4998 11.3807 8.61908 12.5 9.9998 12.5Z" fill="white"/>
<path fill-rule="evenodd" clip-rule="evenodd" d="M3.89892 8.82442C4.70256 7.61077 6.7805 5 9.9998 5C13.2191 5 15.2971 7.61077 16.1007 8.82442L16.1364 8.87794C16.3122 9.14082 16.5469 9.49181 16.5469 10C16.5469 10.5082 16.3122 10.8592 16.1364 11.1221L16.1007 11.1756C15.2971 12.3892 13.2191 15 9.9998 15C6.7805 15 4.70256 12.3892 3.89892 11.1756L3.86325 11.1221C3.68746 10.8592 3.45276 10.5082 3.45276 10C3.45276 9.4918 3.68746 9.14082 3.86325 8.87794L3.89892 8.82442ZM9.99979 6.66667C9.67847 6.66667 9.36996 6.70407 9.07485 6.77162C9.38095 6.70432 9.69044 6.66667 9.99979 6.66667ZM9.99979 13.3333C11.8407 13.3333 13.3331 11.8409 13.3331 10C13.3331 8.15905 11.8407 6.66667 9.99979 6.66667C8.15884 6.66667 6.66646 8.15905 6.66646 10C6.66646 11.8409 8.15884 13.3333 9.99979 13.3333ZM9.99979 13.3333C10.3211 13.3333 10.6297 13.2959 10.9248 13.2284C10.6187 13.2957 10.3092 13.3333 9.99979 13.3333Z" fill="white"/>
</svg>
