<svg width="20" height="20" viewBox="0 0 20 20" fill="none" xmlns="http://www.w3.org/2000/svg">
<path d="M10.6277 20H9.37266C8.35742 20 7.53164 19.1742 7.53164 18.159V17.7344C7.1 17.5965 6.68086 17.4223 6.27773 17.2141L5.97695 17.5148C5.24805 18.2445 4.08047 18.223 3.37305 17.5145L2.48594 16.6273C1.77695 15.9191 1.75664 14.752 2.48633 14.023L2.78711 13.7223C2.57852 13.3195 2.40469 12.9 2.2668 12.4684H1.84102C0.825781 12.4688 0 11.643 0 10.6277V9.37266C0 8.35742 0.826172 7.53164 1.84102 7.53164H2.26562C2.40352 7.1 2.57773 6.68086 2.78594 6.27773L2.48516 5.97695C1.75586 5.24844 1.77617 4.08125 2.48555 3.37266L3.37266 2.48555C4.08203 1.77539 5.24922 1.75742 5.97656 2.48594L6.27734 2.78672C6.68008 2.57812 7.09961 2.4043 7.53125 2.26641V1.84102C7.53125 0.825781 8.35703 0 9.37226 0H10.6273C11.6426 0 12.4684 0.825781 12.4684 1.84102V2.26562C12.9 2.40352 13.3191 2.57773 13.7223 2.78594L14.023 2.48516C14.752 1.75547 15.9195 1.77695 16.6273 2.48555L17.5145 3.37266C18.2234 4.08086 18.2437 5.24805 17.5141 5.97695L17.2133 6.27773C17.4219 6.68047 17.5957 7.1 17.7336 7.53164H18.1582C19.1734 7.53164 19.9992 8.35742 19.9992 9.37266V10.6277C19.9992 11.643 19.1734 12.4688 18.1582 12.4688H17.7344C17.5965 12.9004 17.4223 13.3195 17.2141 13.7227L17.5148 14.0234C18.2441 14.752 18.2238 15.9191 17.5145 16.6277L16.6273 17.5148C15.918 18.225 14.7508 18.243 14.0234 17.5145L13.7227 17.2137C13.3199 17.4223 12.9004 17.5961 12.4688 17.734V18.1586C12.4688 19.1742 11.643 20 10.6277 20ZM6.47344 15.9832C7.0332 16.3141 7.63555 16.5641 8.26367 16.7262C8.52227 16.793 8.70312 17.0262 8.70312 17.2934V18.1586C8.70312 18.5277 9.00352 18.8277 9.37226 18.8277H10.6273C10.9965 18.8277 11.2965 18.5273 11.2965 18.1586V17.2934C11.2965 17.0262 11.4773 16.7926 11.7359 16.7262C12.3641 16.5641 12.9664 16.3141 13.5262 15.9832C13.7562 15.8469 14.0496 15.884 14.2387 16.073L14.8516 16.6859C15.1156 16.9504 15.5402 16.9441 15.7977 16.6863L16.6855 15.7984C16.9426 15.5418 16.9512 15.1172 16.6859 14.852L16.0727 14.2387C15.8836 14.0496 15.8465 13.7562 15.9828 13.5262C16.3137 12.9664 16.5637 12.3641 16.7258 11.7359C16.7926 11.4773 17.0258 11.2965 17.293 11.2965H18.1582C18.5273 11.2965 18.8273 10.9961 18.8273 10.6273V9.37226C18.8273 9.00313 18.527 8.70312 18.1582 8.70312H17.293C17.0258 8.70312 16.7926 8.52227 16.7258 8.26367C16.5637 7.63555 16.3137 7.03281 15.9828 6.47344C15.8469 6.24336 15.8836 5.95 16.0727 5.76094L16.6855 5.14805C16.9504 4.88359 16.9438 4.45937 16.6859 4.20195L15.798 3.31445C15.5406 3.05664 15.1164 3.04922 14.8516 3.31406L14.2387 3.92695C14.0496 4.11602 13.7562 4.15312 13.5262 4.01719C12.9664 3.68633 12.3641 3.43633 11.7359 3.27383C11.4773 3.20703 11.2965 2.97383 11.2965 2.70664V1.84102C11.2965 1.47188 10.9961 1.17188 10.6273 1.17188H9.37226C9.00313 1.17188 8.70312 1.47227 8.70312 1.84102V2.70625C8.70312 2.97344 8.52227 3.20703 8.26367 3.27344C7.63555 3.43555 7.0332 3.68555 6.47344 4.0168C6.24297 4.15313 5.95 4.11602 5.76094 3.92656L5.14805 3.31367C4.88398 3.04922 4.45937 3.05547 4.20195 3.31328L3.31406 4.20117C3.05703 4.45781 3.04844 4.88242 3.31367 5.14727L3.92656 5.76055C4.11562 5.94961 4.15273 6.24297 4.0168 6.47305C3.68594 7.03281 3.43594 7.63516 3.27383 8.26328C3.20703 8.52187 2.97383 8.70273 2.70664 8.70273H1.84102C1.47188 8.70273 1.17188 9.00313 1.17188 9.37187V10.627C1.17188 10.9961 1.47227 11.2961 1.84102 11.2961H2.70625C2.97344 11.2961 3.20664 11.477 3.27344 11.7355C3.43555 12.3637 3.68555 12.9664 4.01641 13.5258C4.15273 13.7559 4.11562 14.0492 3.92617 14.2383L3.31328 14.8512C3.04844 15.1156 3.05508 15.5398 3.31289 15.7977L4.20039 16.6855C4.45781 16.9434 4.88203 16.9508 5.14648 16.6859L5.75938 16.0727C5.9 15.934 6.18984 15.8156 6.47344 15.9832Z" fill="white"/>
<path d="M10 14.3516C7.60039 14.3516 5.64844 12.3996 5.64844 10C5.64844 7.60039 7.60039 5.64844 10 5.64844C12.3996 5.64844 14.3516 7.60039 14.3516 10C14.3516 12.3996 12.3996 14.3516 10 14.3516ZM10 6.82031C8.24688 6.82031 6.82031 8.24687 6.82031 10C6.82031 11.7531 8.24688 13.1797 10 13.1797C11.7531 13.1797 13.1797 11.7531 13.1797 10C13.1797 8.24687 11.7531 6.82031 10 6.82031Z" fill="white"/>
</svg>
