<svg width="13" height="19" viewBox="0 0 13 19" fill="none" xmlns="http://www.w3.org/2000/svg">
<path d="M2.06667 8.7L2.96667 9.9L2.96667 9.9L2.06667 8.7ZM11.9 3.2C12.5627 2.70294 12.6971 1.76274 12.2 1.1C11.7029 0.437257 10.7627 0.302942 10.1 0.799999L11.9 3.2ZM10.1 18.2C10.7627 18.6971 11.7029 18.5627 12.2 17.9C12.6971 17.2373 12.5627 16.2971 11.9 15.8L10.1 18.2ZM2.06667 10.3L1.16667 11.5L1.16667 11.5L2.06667 10.3ZM2.96667 9.9L11.9 3.2L10.1 0.799999L1.16667 7.5L2.96667 9.9ZM11.9 15.8L2.96667 9.1L1.16667 11.5L10.1 18.2L11.9 15.8ZM1.16667 7.5C-0.166667 8.5 -0.166668 10.5 1.16667 11.5L2.96667 9.1C3.23333 9.3 3.23333 9.7 2.96667 9.9L1.16667 7.5Z" fill="white"/>
</svg>
