<svg width="48" height="48" viewBox="0 0 48 48" fill="none" xmlns="http://www.w3.org/2000/svg">
<g clip-path="url(#clip0)">
<path d="M46.6207 32.4281L35.5145 46.1572C35.5145 46.1572 35.2925 46.5321 34.7535 46.9469C34.0321 47.4974 32.732 48.1116 30.5996 47.992C30.1636 47.968 29.6879 47.9042 29.1806 47.8085L9.64762 42.1844C9.64762 42.1844 6.43705 40.9798 5.31929 36.337L0.325073 18.2602C0.325073 18.2602 0.0634709 17.7098 0.00797956 16.8402C-0.0633664 15.7952 0.158599 14.3194 1.44283 12.7638C1.84712 12.2692 2.37032 11.7666 3.02037 11.272L6.37363 8.64744L15.6169 1.73902C15.6169 1.73902 18.3756 -0.207468 21.5862 0.0158991L41.6344 2.3453C41.6344 2.3453 42.7205 2.3453 43.7986 3.09517C44.3059 3.44618 44.8133 3.96471 45.2017 4.73054C45.4792 5.273 45.6932 5.95108 45.8042 6.77276L47.8891 25.1527C47.8891 25.1447 48.5629 30.0269 46.6207 32.4281Z" fill="url(#paint0_radial)"/>
<path d="M43.7913 3.09517C43.5614 3.49404 43.1888 3.77325 43.1888 3.77325L31.0441 15.5479C27.6909 18.699 21.8722 17.646 21.8722 17.646L3.01309 14.4231C1.87155 14.2635 1.51482 13.4738 1.43555 12.7638C1.83984 12.2692 2.36304 11.7666 3.01309 11.272L6.36635 8.64744L15.6096 1.73902C15.6096 1.73902 18.3683 -0.207468 21.5789 0.0158991L41.6271 2.3453C41.6271 2.3453 42.7132 2.3453 43.7913 3.09517Z" fill="url(#paint1_radial)"/>
<path d="M43.7913 3.09517C43.5614 3.49404 43.1888 3.77325 43.1888 3.77325L31.0441 15.5479C27.6909 18.699 21.8722 17.646 21.8722 17.646L3.01309 14.4231C1.87155 14.2635 1.51482 13.4738 1.43555 12.7638C1.83984 12.2692 2.36304 11.7666 3.01309 11.272L6.36635 8.64744L15.6096 1.73902C15.6096 1.73902 18.3683 -0.207468 21.5789 0.0158991L41.6271 2.3453C41.6271 2.3453 42.7132 2.3453 43.7913 3.09517Z" fill="url(#paint2_linear)"/>
<path d="M46.6213 32.428L35.5151 46.1571C35.5151 46.1571 35.2931 46.532 34.754 46.9468C33.993 46.8671 33.1924 46.2209 32.7643 44.1308L29.7043 25.1526C29.7043 25.1526 28.8085 19.9035 31.7179 16.8242L43.8625 5.12135C43.8625 5.12135 44.4809 4.68259 45.1943 4.73046C45.4718 5.27292 45.6858 5.951 45.7968 6.77267L47.8817 25.1526C47.8896 25.1446 48.5635 30.0268 46.6213 32.428Z" fill="url(#paint3_radial)"/>
<path d="M30.5994 47.984C30.1634 47.96 29.6877 47.8962 29.1804 47.8005L9.64745 42.1764C9.64745 42.1764 6.43688 40.9718 5.31913 36.329L0.324906 18.2522C0.324906 18.2522 0.0633038 17.7018 0.0078125 16.8322C0.538944 15.9707 1.49022 15.1729 3.15496 15.4043L22.5373 19.0739C22.5373 19.0739 27.0876 20.4221 28.2767 26.0541L31.7092 44.0511C31.7092 44.0511 32.7001 46.7076 30.5994 47.984Z" fill="url(#paint4_radial)"/>
<path d="M38.0121 4.54698C38.1628 5.36865 36.831 6.302 35.0315 6.63706C33.232 6.97211 31.6544 6.58121 31.5038 5.75954C31.3532 4.93787 32.685 4.00451 34.4845 3.66946C36.284 3.34239 37.8615 3.73328 38.0121 4.54698Z" fill="url(#paint5_radial)"/>
<path d="M25.9309 7.40292C26.0815 8.22459 24.7498 9.15795 22.9502 9.493C21.1507 9.82805 19.5732 9.43716 19.4226 8.61548C19.2799 7.79381 20.6117 6.86046 22.4112 6.52541C24.2028 6.19036 25.7803 6.58125 25.9309 7.40292Z" fill="url(#paint6_radial)"/>
<path d="M13.5551 10.4744C13.7057 11.296 12.3739 12.2294 10.5744 12.5644C8.77493 12.8995 7.19739 12.5086 7.04677 11.6869C6.89615 10.8653 8.22794 9.93191 10.0274 9.59686C11.827 9.2618 13.4045 9.66067 13.5551 10.4744Z" fill="url(#paint7_radial)"/>
<path d="M8.42676 21.3713C9.34633 22.9588 9.22742 24.7538 8.16515 25.368C7.10289 25.9903 5.50157 25.2005 4.58993 23.613C3.67036 22.0255 3.78927 20.2306 4.85153 19.6163C5.90587 18.9941 7.50719 19.7838 8.42676 21.3713Z" fill="url(#paint8_radial)"/>
<path d="M17.8916 30.6731C18.8112 32.2606 18.6923 34.0555 17.63 34.6698C16.5677 35.292 14.9664 34.5022 14.0548 32.9147C13.1352 31.3272 13.2541 29.5323 14.3164 28.9181C15.3786 28.2958 16.98 29.0856 17.8916 30.6731Z" fill="url(#paint9_radial)"/>
<path d="M23.7822 24.5225C24.6939 26.11 24.5829 27.9049 23.5206 28.5191C22.4584 29.1414 20.857 28.3516 19.9454 26.7641C19.0258 25.1766 19.1447 23.3817 20.207 22.7674C21.2613 22.1452 22.8706 22.935 23.7822 24.5225Z" fill="url(#paint10_radial)"/>
<path d="M26.9841 39.8232C27.9037 41.4107 27.7847 43.2057 26.7225 43.8199C25.6602 44.4342 24.0589 43.6524 23.1472 42.0649C22.2356 40.4774 22.3466 38.6825 23.4089 38.0682C24.4711 37.446 26.0724 38.2357 26.9841 39.8232Z" fill="url(#paint11_radial)"/>
<path d="M12.4548 36.002C13.3744 37.5895 13.2554 39.3844 12.1932 39.9987C11.1309 40.6209 9.5296 39.8311 8.61795 38.2436C7.70631 36.6561 7.81729 34.8612 8.87955 34.2469C9.93389 33.6247 11.5352 34.4065 12.4548 36.002Z" fill="url(#paint12_radial)"/>
<path d="M37.8919 25.408C37.6383 27.2269 38.2408 28.8144 39.2396 28.958C40.2384 29.1016 41.2611 27.7454 41.5147 25.9266C41.7684 24.1077 41.1659 22.5202 40.1671 22.3766C39.1682 22.233 38.1536 23.5892 37.8919 25.408Z" fill="url(#paint13_radial)"/>
</g>
<defs>
<radialGradient id="paint0_radial" cx="0" cy="0" r="1" gradientUnits="userSpaceOnUse" gradientTransform="translate(24.0006 24) scale(23.9252 24.0763)">
<stop offset="0.1598" stop-color="#F2352F"/>
<stop offset="0.4116" stop-color="#EF352F"/>
<stop offset="0.5825" stop-color="#E6342F"/>
<stop offset="0.729" stop-color="#D7322F"/>
<stop offset="0.8497" stop-color="#C4302F"/>
</radialGradient>
<radialGradient id="paint1_radial" cx="0" cy="0" r="1" gradientUnits="userSpaceOnUse" gradientTransform="translate(29.6629 3.50625) scale(32.0812 32.2838)">
<stop offset="0.1598" stop-color="#F2352F"/>
<stop offset="0.4116" stop-color="#EF352F"/>
<stop offset="0.5825" stop-color="#E6342F"/>
<stop offset="0.729" stop-color="#D7322F"/>
<stop offset="0.8497" stop-color="#C4302F"/>
</radialGradient>
<linearGradient id="paint2_linear" x1="28.4509" y1="-11.7969" x2="21.2114" y2="12.371" gradientUnits="userSpaceOnUse">
<stop stop-color="white"/>
<stop offset="1" stop-color="white" stop-opacity="0"/>
</linearGradient>
<radialGradient id="paint3_radial" cx="0" cy="0" r="1" gradientUnits="userSpaceOnUse" gradientTransform="translate(39.3911 10.4829) scale(18.0029 18.1166)">
<stop offset="0.1598" stop-color="#F2352F"/>
<stop offset="0.4116" stop-color="#EF352F"/>
<stop offset="0.5825" stop-color="#E6342F"/>
<stop offset="0.729" stop-color="#D7322F"/>
<stop offset="0.8497" stop-color="#C4302F"/>
</radialGradient>
<radialGradient id="paint4_radial" cx="0" cy="0" r="1" gradientUnits="userSpaceOnUse" gradientTransform="translate(30.8922 62.9203) scale(63.2998 63.6996)">
<stop offset="0.1598" stop-color="#F2352F"/>
<stop offset="0.3628" stop-color="#EF352F"/>
<stop offset="0.5005" stop-color="#E6342F"/>
<stop offset="0.6189" stop-color="#D7322F"/>
<stop offset="0.7263" stop-color="#C2302F"/>
<stop offset="0.8255" stop-color="#A62D2F"/>
<stop offset="0.8496" stop-color="#9E2C2F"/>
</radialGradient>
<radialGradient id="paint5_radial" cx="0" cy="0" r="1" gradientUnits="userSpaceOnUse" gradientTransform="translate(38.3172 7.42732) rotate(-10.5417) scale(4.54942 5.99257)">
<stop offset="0.1598" stop-color="white"/>
<stop offset="0.3835" stop-color="#FCFCFC"/>
<stop offset="0.5354" stop-color="#F3F3F3"/>
<stop offset="0.6658" stop-color="#E4E4E4"/>
<stop offset="0.7836" stop-color="#CFCFCF"/>
<stop offset="0.8496" stop-color="#BFBFBF"/>
</radialGradient>
<radialGradient id="paint6_radial" cx="0" cy="0" r="1" gradientUnits="userSpaceOnUse" gradientTransform="translate(26.2406 10.2777) rotate(-10.5417) scale(4.54882 5.99177)">
<stop offset="0.1598" stop-color="white"/>
<stop offset="0.3835" stop-color="#FCFCFC"/>
<stop offset="0.5354" stop-color="#F3F3F3"/>
<stop offset="0.6658" stop-color="#E4E4E4"/>
<stop offset="0.7836" stop-color="#CFCFCF"/>
<stop offset="0.8496" stop-color="#BFBFBF"/>
</radialGradient>
<radialGradient id="paint7_radial" cx="0" cy="0" r="1" gradientUnits="userSpaceOnUse" gradientTransform="translate(13.8646 13.3538) rotate(-10.5417) scale(4.5489 5.99189)">
<stop offset="0.1598" stop-color="white"/>
<stop offset="0.3835" stop-color="#FCFCFC"/>
<stop offset="0.5354" stop-color="#F3F3F3"/>
<stop offset="0.6658" stop-color="#E4E4E4"/>
<stop offset="0.7836" stop-color="#CFCFCF"/>
<stop offset="0.8496" stop-color="#BFBFBF"/>
</radialGradient>
<radialGradient id="paint8_radial" cx="0" cy="0" r="1" gradientUnits="userSpaceOnUse" gradientTransform="translate(11.477 26.9583) rotate(-30.2636) scale(11.4637 12.9592)">
<stop offset="0.1598" stop-color="white"/>
<stop offset="0.3835" stop-color="#FCFCFC"/>
<stop offset="0.5354" stop-color="#F3F3F3"/>
<stop offset="0.6658" stop-color="#E4E4E4"/>
<stop offset="0.7836" stop-color="#CFCFCF"/>
<stop offset="0.8496" stop-color="#BFBFBF"/>
</radialGradient>
<radialGradient id="paint9_radial" cx="0" cy="0" r="1" gradientUnits="userSpaceOnUse" gradientTransform="translate(20.9438 36.26) rotate(-30.2636) scale(11.4623 12.9576)">
<stop offset="0.1598" stop-color="white"/>
<stop offset="0.3835" stop-color="#FCFCFC"/>
<stop offset="0.5354" stop-color="#F3F3F3"/>
<stop offset="0.6658" stop-color="#E4E4E4"/>
<stop offset="0.7836" stop-color="#CFCFCF"/>
<stop offset="0.8496" stop-color="#BFBFBF"/>
</radialGradient>
<radialGradient id="paint10_radial" cx="0" cy="0" r="1" gradientUnits="userSpaceOnUse" gradientTransform="translate(26.8337 30.1091) rotate(-30.2636) scale(11.463 12.9584)">
<stop offset="0.1598" stop-color="white"/>
<stop offset="0.3835" stop-color="#FCFCFC"/>
<stop offset="0.5354" stop-color="#F3F3F3"/>
<stop offset="0.6658" stop-color="#E4E4E4"/>
<stop offset="0.7836" stop-color="#CFCFCF"/>
<stop offset="0.8496" stop-color="#BFBFBF"/>
</radialGradient>
<radialGradient id="paint11_radial" cx="0" cy="0" r="1" gradientUnits="userSpaceOnUse" gradientTransform="translate(30.0382 45.4127) rotate(-30.2636) scale(11.463 12.9584)">
<stop offset="0.1598" stop-color="white"/>
<stop offset="0.3835" stop-color="#FCFCFC"/>
<stop offset="0.5354" stop-color="#F3F3F3"/>
<stop offset="0.6658" stop-color="#E4E4E4"/>
<stop offset="0.7836" stop-color="#CFCFCF"/>
<stop offset="0.8496" stop-color="#BFBFBF"/>
</radialGradient>
<radialGradient id="paint12_radial" cx="0" cy="0" r="1" gradientUnits="userSpaceOnUse" gradientTransform="translate(15.5032 41.5867) rotate(-30.2636) scale(11.463 12.9584)">
<stop offset="0.1598" stop-color="white"/>
<stop offset="0.3835" stop-color="#FCFCFC"/>
<stop offset="0.5354" stop-color="#F3F3F3"/>
<stop offset="0.6658" stop-color="#E4E4E4"/>
<stop offset="0.7836" stop-color="#CFCFCF"/>
<stop offset="0.8496" stop-color="#BFBFBF"/>
</radialGradient>
<radialGradient id="paint13_radial" cx="0" cy="0" r="1" gradientUnits="userSpaceOnUse" gradientTransform="translate(40.5063 32.2048) rotate(8.14786) scale(11.832 12.9441)">
<stop offset="0.1598" stop-color="white"/>
<stop offset="0.3835" stop-color="#FCFCFC"/>
<stop offset="0.5354" stop-color="#F3F3F3"/>
<stop offset="0.6658" stop-color="#E4E4E4"/>
<stop offset="0.7836" stop-color="#CFCFCF"/>
<stop offset="0.8496" stop-color="#BFBFBF"/>
</radialGradient>
<clipPath id="clip0">
<rect width="48" height="48" fill="white"/>
</clipPath>
</defs>
</svg>
