<svg width="139" height="139" viewBox="0 0 139 139" fill="none" xmlns="http://www.w3.org/2000/svg">
<path d="M69.5 0C31.1792 0 0 31.1792 0 69.5C0 107.821 31.1792 139 69.5 139C107.821 139 139 107.821 139 69.5C139 31.1792 107.821 0 69.5 0ZM108.343 51.2105L63.9261 95.2795C61.3133 97.8922 57.1328 98.0664 54.3459 95.4536L30.8308 74.0288C28.0439 71.416 27.8697 67.0614 30.3083 64.2744C32.9211 61.4875 37.2757 61.3133 40.0627 63.9261L58.7005 80.9962L98.4148 41.282C101.202 38.495 105.556 38.495 108.343 41.282C111.13 44.0689 111.13 48.4236 108.343 51.2105Z" fill="#00ED09"/>
</svg>
