<svg width="20" height="20" viewBox="0 0 20 20" fill="none" xmlns="http://www.w3.org/2000/svg">
<path opacity="0.4" d="M12.4183 3.48976C11.9422 3.40182 11.505 3.70561 11.4144 4.17029C11.3238 4.63497 11.6285 5.08866 12.0916 5.1796C13.4859 5.45141 14.5624 6.53067 14.8353 7.92971V7.93071C14.913 8.33343 15.2675 8.62623 15.6759 8.62623C15.7306 8.62623 15.7854 8.62124 15.8412 8.61124C16.3043 8.51831 16.609 8.06562 16.5184 7.59994C16.1111 5.51037 14.5027 3.89648 12.4183 3.48976Z" fill="white"/>
<path opacity="0.4" d="M12.3558 0.00792976C12.1328 -0.0240483 11.9087 0.0419064 11.7304 0.183809C11.5472 0.32771 11.4326 0.535567 11.4078 0.768408C11.355 1.23908 11.6946 1.66479 12.1646 1.71776C15.4063 2.07951 17.9259 4.60477 18.2904 7.85654C18.3392 8.29224 18.7047 8.62101 19.1409 8.62101C19.1738 8.62101 19.2057 8.61902 19.2385 8.61502C19.4666 8.59004 19.6698 8.47711 19.8132 8.29724C19.9556 8.11736 20.0203 7.89351 19.9944 7.66467C19.5403 3.60746 16.4002 0.45862 12.3558 0.00792976Z" fill="white"/>
<path d="M15.6047 12.6732C14.9563 12.5353 14.4435 12.8351 13.9893 13.0969C13.5242 13.3667 12.6389 14.0812 12.133 13.8974C9.53764 12.8341 7.09669 10.5706 6.04004 7.97642C5.8538 7.45977 6.56787 6.57338 6.83576 6.1057C7.09769 5.65201 7.39247 5.13537 7.25803 4.48582C7.13653 3.90122 5.56499 1.90959 5.00928 1.36496C4.64179 1.00521 4.26733 0.807342 3.88192 0.774365C2.43288 0.713407 0.814542 2.63908 0.53071 3.09977C-0.18136 4.08209 -0.17638 5.3892 0.542661 6.97411C2.27553 11.2312 8.82956 17.6558 13.1199 19.4465C13.9106 19.8153 14.6357 20.0002 15.286 20.0002C15.9224 20.0002 16.489 19.8233 16.976 19.4725C17.3425 19.2617 19.3562 17.5698 19.3025 16.0878C19.2716 15.7101 19.0734 15.3324 18.7169 14.9666C18.1731 14.408 16.1873 12.7961 15.6047 12.6732Z" fill="white"/>
</svg>
