<svg width="24" height="24" viewBox="0 0 24 24" fill="none" xmlns="http://www.w3.org/2000/svg">
<path opacity="0.4" d="M22 15.94C22 18.73 19.76 20.99 16.97 21H16.96H7.05C4.27 21 2 18.75 2 15.96V15.95C2 15.95 2.006 11.524 2.014 9.298C2.015 8.88 2.495 8.646 2.822 8.906C5.198 10.791 9.447 14.228 9.5 14.273C10.21 14.842 11.11 15.163 12.03 15.163C12.95 15.163 13.85 14.842 14.56 14.262C14.613 14.227 18.767 10.893 21.179 8.977C21.507 8.716 21.989 8.95 21.99 9.367C22 11.576 22 15.94 22 15.94Z" fill="white"/>
<path d="M21.4769 5.67351C20.6109 4.04151 18.9069 2.99951 17.0309 2.99951H7.05086C5.17486 2.99951 3.47086 4.04151 2.60486 5.67351C2.41086 6.03851 2.50286 6.49351 2.82586 6.75151L10.2509 12.6905C10.7709 13.1105 11.4009 13.3195 12.0309 13.3195C12.0349 13.3195 12.0379 13.3195 12.0409 13.3195C12.0439 13.3195 12.0479 13.3195 12.0509 13.3195C12.6809 13.3195 13.3109 13.1105 13.8309 12.6905L21.2559 6.75151C21.5789 6.49351 21.6709 6.03851 21.4769 5.67351Z" fill="white"/>
</svg>
