<svg width="16" height="16" viewBox="0 0 16 16" fill="none" xmlns="http://www.w3.org/2000/svg">
<path fill-rule="evenodd" clip-rule="evenodd" d="M10.4999 4.99998C10.4999 5.66302 10.2365 6.2989 9.76771 6.76774C9.29887 7.23659 8.66298 7.49998 7.99994 7.49998C7.3369 7.49998 6.70102 7.23659 6.23218 6.76774C5.76333 6.2989 5.49994 5.66302 5.49994 4.99998C5.49994 4.33694 5.76333 3.70105 6.23218 3.23221C6.70102 2.76337 7.3369 2.49998 7.99994 2.49998C8.66298 2.49998 9.29887 2.76337 9.76771 3.23221C10.2365 3.70105 10.4999 4.33694 10.4999 4.99998ZM10.5609 8.07298C11.1922 7.54662 11.646 6.83856 11.8607 6.04512C12.0753 5.25167 12.0402 4.41138 11.7603 3.63856C11.4804 2.86574 10.9692 2.19791 10.2963 1.72592C9.62339 1.25394 8.82139 1.00073 7.99944 1.00073C7.17749 1.00073 6.37549 1.25394 5.70256 1.72592C5.02963 2.19791 4.51843 2.86574 4.23853 3.63856C3.95862 4.41138 3.92358 5.25167 4.13819 6.04512C4.3528 6.83856 4.80663 7.54662 5.43794 8.07298C4.45353 8.53838 3.61421 9.26273 3.00984 10.1685C2.40547 11.0743 2.0588 12.1273 2.00694 13.215C2.00212 13.411 2.07422 13.6011 2.20782 13.7445C2.34141 13.888 2.52587 13.9735 2.72171 13.9826C2.91754 13.9918 3.10917 13.9239 3.25556 13.7935C3.40195 13.6631 3.49147 13.4806 3.50494 13.285C3.55946 12.1295 4.05684 11.0394 4.89385 10.241C5.73085 9.44251 6.84318 8.99705 7.99994 8.99705C9.1567 8.99705 10.269 9.44251 11.106 10.241C11.943 11.0394 12.4404 12.1295 12.4949 13.285C12.4974 13.3849 12.5197 13.4832 12.5607 13.5743C12.6017 13.6654 12.6605 13.7474 12.7336 13.8154C12.8067 13.8835 12.8927 13.9363 12.9864 13.9707C13.0802 14.0051 13.1799 14.0204 13.2797 14.0157C13.3795 14.0111 13.4773 13.9865 13.5675 13.9435C13.6576 13.9005 13.7383 13.84 13.8047 13.7654C13.8712 13.6908 13.922 13.6037 13.9543 13.5092C13.9867 13.4147 13.9998 13.3146 13.9929 13.215C13.9409 12.1272 13.5941 11.0741 12.9896 10.1683C12.385 9.26253 11.5455 8.53824 10.5609 8.07298Z" fill="white"/>
</svg>
