<svg xmlns="http://www.w3.org/2000/svg" viewBox="0 0 504.4 61.11"><defs><style>.cls-1{fill:#4629cf;}</style></defs><title>Asset 2</title><g id="Layer_2" data-name="Layer 2"><g id="Layer_1-2" data-name="Layer 1"><rect class="cls-1" x="59.44" width="385.66" height="56.55" rx="2.07" ry="2.07"/><path class="cls-1" d="M51.79,6.77H1.85A1.84,1.84,0,0,0,.33,9.66L15.21,31.19a1.84,1.84,0,0,1,.1,1.93L1.57,58.38a1.84,1.84,0,0,0,1.62,2.73H52.56a1.84,1.84,0,0,0,1.84-1.86c-.11-8.38-.54-42.47-.77-50.69A1.84,1.84,0,0,0,51.79,6.77Z"/><path class="cls-1" d="M452.62,6.77h49.94a1.84,1.84,0,0,1,1.52,2.89L489.19,31.19a1.84,1.84,0,0,0-.1,1.93l13.75,25.26a1.84,1.84,0,0,1-1.62,2.73H451.84A1.84,1.84,0,0,1,450,59.24c.11-8.38.54-42.47.77-50.69A1.84,1.84,0,0,1,452.62,6.77Z"/></g></g></svg>