<svg width="26" height="26" viewBox="0 0 26 26" fill="none" xmlns="http://www.w3.org/2000/svg">
<path opacity="0.4" d="M18.2976 0H22.6994C24.5223 0 25.9995 1.48961 25.9995 3.32795V7.76688C25.9995 9.60523 24.5223 11.0948 22.6994 11.0948H18.2976C16.4747 11.0948 14.9976 9.60523 14.9976 7.76688V3.32795C14.9976 1.48961 16.4747 0 18.2976 0Z" fill="white"/>
<path fill-rule="evenodd" clip-rule="evenodd" d="M3.30008 0H7.70184C9.52479 0 11.0019 1.48961 11.0019 3.32795V7.76688C11.0019 9.60523 9.52479 11.0948 7.70184 11.0948H3.30008C1.47713 11.0948 0 9.60523 0 7.76688V3.32795C0 1.48961 1.47713 0 3.30008 0ZM3.30008 14.9051H7.70184C9.52479 14.9051 11.0019 16.3947 11.0019 18.233V22.6719C11.0019 24.509 9.52479 25.9999 7.70184 25.9999H3.30008C1.47713 25.9999 0 24.509 0 22.6719V18.233C0 16.3947 1.47713 14.9051 3.30008 14.9051ZM22.6993 14.905H18.2975C16.4746 14.905 14.9975 16.3946 14.9975 18.233V22.6719C14.9975 24.509 16.4746 25.9999 18.2975 25.9999H22.6993C24.5223 25.9999 25.9994 24.509 25.9994 22.6719V18.233C25.9994 16.3946 24.5223 14.905 22.6993 14.905Z" fill="white"/>
</svg>
