<svg width="23" height="26" viewBox="0 0 23 26" fill="none" xmlns="http://www.w3.org/2000/svg">
<path fill-rule="evenodd" clip-rule="evenodd" d="M6.14611 0H16.8552C20.8022 0 23 2.314 23 6.279V19.708C23 23.738 20.8022 26 16.8552 26H6.14611C2.26167 26 0 23.738 0 19.708V6.279C0 2.314 2.26167 0 6.14611 0ZM7.07722 2H15.9238C19.1844 2 21 3.958 21 7.313V18.676C21 22.086 19.1844 24 15.9238 24H7.07722C3.86833 24 2 22.086 2 18.676V7.313C2 3.958 3.86833 2 7.07722 2Z" fill="white"/>
<path opacity="0.4" d="M16.8552 0H6.14611C2.26167 0 0 2.314 0 6.279V19.708C0 23.738 2.26167 26 6.14611 26H16.8552C20.8022 26 23 23.738 23 19.708V6.279C23 2.314 20.8022 0 16.8552 0" fill="white"/>
<circle cx="11.5" cy="21.5" r="1.5" fill="white"/>
</svg>
