<svg width="28" height="26" viewBox="0 0 28 26" fill="none" xmlns="http://www.w3.org/2000/svg">
<path opacity="0.4" d="M15.0202 0.839682L18.067 6.96237C18.2914 7.40597 18.7198 7.71402 19.2139 7.78248L26.0575 8.77919C26.4572 8.83533 26.8199 9.04617 27.0649 9.36791C27.3072 9.68555 27.4112 10.0881 27.3523 10.4837C27.3044 10.8123 27.1498 11.1163 26.913 11.349L21.9541 16.156C21.5914 16.4914 21.4272 16.9884 21.5148 17.4745L22.7356 24.2324C22.8657 25.0484 22.325 25.8179 21.5148 25.9726C21.1808 26.026 20.8386 25.9698 20.5375 25.8165L14.433 22.636C13.98 22.4074 13.4448 22.4074 12.9918 22.636L6.8873 25.8165C6.13724 26.2149 5.20789 25.9438 4.79043 25.2045C4.63576 24.9101 4.58101 24.5747 4.63166 24.2475L5.85255 17.4881C5.94015 17.0035 5.77453 16.5038 5.41319 16.1683L0.454339 11.3641C-0.135577 10.7945 -0.153371 9.85669 0.414646 9.2666C0.426964 9.25428 0.440652 9.24059 0.454339 9.22689C0.689758 8.9873 0.999087 8.83533 1.33305 8.79562L8.17663 7.79754C8.66936 7.72771 9.09777 7.4224 9.32361 6.97607L12.2609 0.839682C12.5223 0.313941 13.0643 -0.0132776 13.6529 0.000413545H13.8363C14.3468 0.0620238 14.7916 0.37829 15.0202 0.839682" fill="white"/>
<path d="M13.6733 22.4655C13.4082 22.4737 13.15 22.545 12.9177 22.6723L6.84309 25.8456C6.09982 26.2003 5.21035 25.925 4.79362 25.2142C4.63923 24.9239 4.58321 24.5911 4.63513 24.2651L5.84842 17.5201C5.9304 17.0298 5.76644 16.5313 5.40983 16.1862L0.448756 11.3832C-0.140124 10.8066 -0.151054 9.86025 0.425529 9.26997C0.433727 9.26176 0.440558 9.25491 0.448756 9.24806C0.683762 9.01524 0.987083 8.86185 1.31363 8.81391L8.16295 7.80593C8.65892 7.74293 9.08931 7.43341 9.30792 6.9842L12.2851 0.770583C12.5679 0.26933 13.1104 -0.0292308 13.6842 0.00226867C13.6733 0.409023 13.6733 22.1889 13.6733 22.4655" fill="white"/>
</svg>
