<svg width="26" height="26" viewBox="0 0 26 26" fill="none" xmlns="http://www.w3.org/2000/svg">
<g opacity="0.4">
<path d="M12.5473 25.8747C18.2284 25.8747 23.0967 21.8166 23.0967 16.1355C23.0967 12.6664 21.2671 10.8449 19.3457 8.9321C17.3481 6.94327 15.2513 4.85574 15.0088 0.714899C14.9945 0.471052 14.8799 0.253094 14.7084 0.123705C13.2283 1.5808 10.7122 5.19419 12.4883 7.99107C14.7084 11.4872 14.9855 16.4816 12.4883 17.4805C11.8689 17.7282 11.0736 17.7464 10.2608 17.7649C10.2608 17.7649 5.99553 18.4793 6.81215 24.3547C8.47938 25.3286 10.4582 25.8747 12.5473 25.8747Z" fill="white"/>
<path d="M14.1852 0.0213452C11.4112 0.752222 6.48406 4.82336 9.29971 10.4546C9.85853 11.5722 9.76149 12.432 9.30434 12.8891C8.55537 13.6381 7.11525 13.6959 5.93801 10.8177C5.76497 10.3946 5.28899 10.1569 4.89635 10.3909C3.10827 11.4564 2.00006 13.7583 2 16.1355C1.99991 19.74 3.94534 22.6799 6.81215 24.3547C5.99553 18.4793 10.2608 17.7649 10.2608 17.7649C11.0736 17.7464 11.8689 17.7282 12.4883 17.4805C14.9855 16.4816 14.7084 11.4872 12.4883 7.99107C10.7122 5.19419 13.2283 1.5808 14.7084 0.123705C14.5653 0.0156629 14.3824 -0.0306224 14.1852 0.0213452Z" fill="white"/>
</g>
<path d="M18.1016 21.1002C17.9527 20.885 17.9041 20.6133 17.9672 20.3488C18.0303 20.0842 18.1995 19.8501 18.4352 19.7012C19.1687 19.1567 19.4979 18.2336 19.2542 17.4047C19.0477 16.9202 19.2882 16.3375 19.7925 16.1005C20.2859 15.8637 20.8565 16.0497 21.0741 16.5182C21.1052 16.5745 21.1251 16.6366 21.1327 16.7015C21.645 18.3448 20.9859 20.1929 19.5081 21.257C19.2902 21.426 19.0175 21.5048 18.7523 21.4752C18.4871 21.4457 18.2523 21.3103 18.1016 21.1002Z" fill="white"/>
<path fill-rule="evenodd" clip-rule="evenodd" d="M14.1852 0.0213452C11.4112 0.752222 6.48406 4.82336 9.29971 10.4546C9.85853 11.5722 9.76149 12.432 9.30434 12.8891C8.55537 13.6381 7.11525 13.6959 5.93801 10.8177C5.76497 10.3946 5.28899 10.1569 4.89635 10.3909C3.10827 11.4564 2.00006 13.7583 2 16.1355C1.99991 19.74 3.94534 22.6799 6.81215 24.3547C5.99553 19.9777 7.7966 17.8212 10.2608 17.7649C11.0736 17.7464 11.8689 17.7282 12.4883 17.4805C14.9855 16.4816 14.7084 11.4872 12.4883 7.99107C10.7122 5.19419 13.2283 1.5808 14.7084 0.123705C14.5653 0.0156629 14.3824 -0.0306224 14.1852 0.0213452Z" fill="white"/>
</svg>
