<svg width="24" height="26" viewBox="0 0 24 26" fill="none" xmlns="http://www.w3.org/2000/svg">
<path opacity="0.4" d="M17.1483 0H6.253C2.301 0 0 2.314 0 6.279V19.708C0 23.738 2.301 26 6.253 26H17.1483C21.164 26 23.4 23.738 23.4 19.708V6.279C23.4 2.314 21.164 0 17.1483 0" fill="white"/>
<path d="M2.49668 17L4.4 11.5678H2V10H6V11.1171L4.04739 17H2.49668Z" fill="white"/>
<path d="M10.4967 17L12.4 11.5678H10V10H14V11.1171L12.0474 17H10.4967Z" fill="white"/>
<path d="M17.4967 17L19.4 11.5678H17V10H21V11.1171L19.0474 17H17.4967Z" fill="white"/>
</svg>
