<svg width="34" height="26" viewBox="0 0 34 26" fill="none" xmlns="http://www.w3.org/2000/svg">
<path opacity="0.4" d="M32.6691 4.12806C31.961 3.68196 31.0906 3.64249 30.3487 4.01997L27.844 5.28449C26.9179 5.75118 26.3433 6.69486 26.3433 7.74492V17.6038C26.3433 18.6538 26.9179 19.5958 27.844 20.0659L30.347 21.3287C30.6867 21.5037 31.0501 21.5878 31.4134 21.5878C31.8495 21.5878 32.2821 21.4643 32.6691 21.2223C33.3773 20.778 33.7998 20.0076 33.7998 19.1634V6.18871C33.7998 5.34455 33.3773 4.57416 32.6691 4.12806" fill="white"/>
<path d="M16.74 25.3506H6.9512C2.85789 25.3506 0 22.5282 0 18.4875V6.86311C0 2.82074 2.85789 0 6.9512 0H16.74C20.8333 0 23.6912 2.82074 23.6912 6.86311V18.4875C23.6912 22.5282 20.8333 25.3506 16.74 25.3506" fill="white"/>
</svg>
