<svg width="26" height="26" viewBox="0 0 26 26" fill="none" xmlns="http://www.w3.org/2000/svg">
<g clip-path="url(#clip0)">
<path d="M16.0031 9.99678C16.0026 9.99678 16.0026 9.99678 16.0031 9.99678L16.0026 9.99627C15.2332 9.22694 14.1709 8.75061 12.9994 8.75061C11.8278 8.75061 10.766 9.22694 9.99666 9.99627V9.99678C9.99666 9.99678 9.99615 9.99678 9.99615 9.99729C9.22682 10.7666 8.75049 11.829 8.75049 13C8.75049 14.171 9.22682 15.2333 9.99615 16.0032C9.99615 16.0032 9.99615 16.0037 9.99666 16.0037C10.766 16.773 11.8283 17.2494 12.9994 17.2494C14.1704 17.2494 15.2327 16.773 16.0026 16.0037C16.0026 16.0037 16.0031 16.0037 16.0031 16.0032C16.7724 15.2339 17.2487 14.1715 17.2487 13C17.2487 11.8285 16.7719 10.7666 16.0031 9.99678ZM14.699 13.8556H13.855V14.6996C13.855 15.1689 13.4686 15.5497 12.9994 15.5497C12.5301 15.5497 12.1493 15.1694 12.1493 14.7001V13.8562H11.2992C10.83 13.8562 10.4491 13.4697 10.4491 13.0005C10.4491 12.5313 10.83 12.1504 11.2992 12.1504H12.1493V11.3003C12.1493 10.8311 12.5301 10.4503 12.9994 10.4503C13.4686 10.4503 13.855 10.8311 13.855 11.3003V12.1504H14.699C15.1682 12.1504 15.5491 12.5313 15.5491 13.0005C15.5486 13.4692 15.1682 13.8556 14.699 13.8556Z" fill="white"/>
<path opacity="0.4" d="M14.9162 0.11244C14.3447 0.0280234 13.8555 0.489176 13.8555 1.06691V6.25266C13.8555 6.7499 14.2244 7.16259 14.7009 7.30494C15.0953 7.42278 15.472 7.58069 15.8273 7.77412C16.2643 8.01197 16.8172 7.9811 17.169 7.62936L20.833 3.96578C21.2415 3.55729 21.2217 2.88539 20.7582 2.54051C19.0749 1.28795 17.083 0.432482 14.9162 0.11244Z" fill="white"/>
<path opacity="0.4" d="M19.747 13.8557C19.2497 13.8557 18.837 14.2247 18.6947 14.7011C18.5769 15.0955 18.419 15.4722 18.2255 15.8275C17.9877 16.2645 18.0186 16.8175 18.3703 17.1693L22.0338 20.8328C22.4423 21.2413 23.1142 21.2215 23.4591 20.758C24.7114 19.075 25.5671 17.0832 25.8872 14.9165C25.9716 14.3449 25.5105 13.8557 24.9327 13.8557H19.747Z" fill="white"/>
<path opacity="0.4" d="M7.30497 14.701C7.16264 14.2246 6.74994 13.8557 6.25272 13.8557H1.06691C0.489177 13.8557 0.0280238 14.3449 0.112439 14.9165C0.432465 17.0832 1.28785 19.075 2.54005 20.758C2.8849 21.2215 3.55678 21.2413 3.96529 20.8328L7.62904 17.169C7.98071 16.8173 8.01171 16.2645 7.77405 15.8277C7.5807 15.4723 7.42281 15.0955 7.30497 14.701Z" fill="white"/>
<path opacity="0.4" d="M3.96529 5.16716C3.55677 4.75868 2.88493 4.77852 2.5402 5.24209C1.28787 6.92613 0.432419 8.92133 0.112406 11.0891C0.0280348 11.6607 0.489176 12.1499 1.06691 12.1499H6.25266C6.7499 12.1499 7.16269 11.7809 7.30463 11.3044C7.42259 10.9083 7.58075 10.5296 7.77456 10.1728C8.012 9.7356 7.98104 9.1825 7.62923 8.83073L3.96529 5.16716Z" fill="white"/>
<path opacity="0.4" d="M12.1492 19.7474C12.1492 19.2502 11.7803 18.8374 11.3037 18.6955C10.9076 18.5775 10.5289 18.4194 10.172 18.2255C9.73485 17.9881 9.18178 18.019 8.83 18.3708L5.1665 22.0343C4.75799 22.4428 4.77782 23.1147 5.24139 23.4595C6.9255 24.7119 8.92083 25.5676 11.089 25.8874C11.6605 25.9717 12.1496 25.5105 12.1496 24.9328L12.1492 19.7474Z" fill="white"/>
<path opacity="0.4" d="M23.4594 5.24214C23.1147 4.77855 22.4428 4.75872 22.0343 5.16723L18.3708 8.83073C18.019 9.18251 17.9881 9.73558 18.2255 10.1728C18.4194 10.5296 18.5775 10.9083 18.6955 11.3044C18.8374 11.7809 19.2502 12.1499 19.7475 12.1499H24.9327C25.5104 12.1499 25.9716 11.6607 25.8872 11.0891C25.5672 8.92135 24.7118 6.92617 23.4594 5.24214Z" fill="white"/>
<path opacity="0.4" d="M17.169 18.3708C16.8172 18.019 16.2642 17.9882 15.8273 18.226C15.472 18.4194 15.0953 18.5773 14.7009 18.6952C14.2244 18.8375 13.8555 19.2502 13.8555 19.7475V24.9332C13.8555 25.5109 14.3447 25.9721 14.9162 25.8877C17.0829 25.5677 19.0748 24.7123 20.7581 23.4601C21.2216 23.1152 21.2415 22.4433 20.8329 22.0347L17.169 18.3708Z" fill="white"/>
<path d="M5.2414 2.54017C4.77782 2.88491 4.75799 3.55678 5.1665 3.96529L8.83 7.62879C9.18178 7.98057 9.73485 8.0115 10.172 7.77407C10.5289 7.58026 10.9076 7.42209 11.3037 7.30412C11.7802 7.16218 12.1491 6.7494 12.1491 6.25215V1.06691C12.1491 0.489176 11.6599 0.0280349 11.0884 0.112406C8.92062 0.432417 6.92543 1.28786 5.2414 2.54017ZM9.59992 5.77637C9.1307 5.77637 8.74984 5.39602 8.74984 4.92629C8.74984 4.45656 9.1302 4.07621 9.59992 4.07621C10.0696 4.07621 10.45 4.45656 10.45 4.92629C10.45 5.39602 10.0691 5.77637 9.59992 5.77637Z" fill="white"/>
</g>
<defs>
<clipPath id="clip0">
<rect width="26" height="26" fill="white"/>
</clipPath>
</defs>
</svg>
