<svg width="24" height="26" viewBox="0 0 24 26" fill="none" xmlns="http://www.w3.org/2000/svg">
<path fill-rule="evenodd" clip-rule="evenodd" d="M11.4894 18.1613C11.4896 18.1614 11.4897 18.1614 11.6918 17.7707C11.8938 18.1614 11.894 18.1614 11.8941 18.1613C11.7673 18.2268 11.6162 18.2268 11.4894 18.1613ZM11.4894 18.1613L11.6918 17.7707L11.8941 18.1613L11.8954 18.1605L11.8986 18.1589L11.9094 18.1532C11.9186 18.1483 11.9318 18.1414 11.9486 18.1323C11.9822 18.1142 12.0304 18.0876 12.0913 18.0532C12.2129 17.9843 12.3851 17.8833 12.5912 17.7531C13.0023 17.4931 13.5525 17.1139 14.1049 16.6377C15.1844 15.7071 16.3835 14.3107 16.3835 12.6391C16.3835 11.0766 15.1603 10 13.891 10C12.9835 10 12.1886 10.4701 11.6918 11.1846C11.195 10.4701 10.4 10 9.4925 10C8.22325 10 7 11.0766 7 12.6391C7 14.3107 8.19909 15.7071 9.27861 16.6377C9.83099 17.1139 10.3812 17.4931 10.7924 17.7531C10.9984 17.8833 11.1706 17.9843 11.2923 18.0532C11.3531 18.0876 11.4014 18.1142 11.4349 18.1323C11.4517 18.1414 11.4649 18.1483 11.4741 18.1532L11.4849 18.1589L11.4881 18.1605L11.4894 18.1613Z" fill="white"/>
<path opacity="0.4" d="M17.1483 0H6.253C2.301 0 0 2.314 0 6.279V19.708C0 23.738 2.301 26 6.253 26H17.1483C21.164 26 23.4 23.738 23.4 19.708V6.279C23.4 2.314 21.164 0 17.1483 0" fill="white"/>
</svg>
