<svg width="26" height="26" viewBox="0 0 26 26" fill="none" xmlns="http://www.w3.org/2000/svg">
<path opacity="0.4" d="M14.6972 5.04716V5.28511C14.0593 5.27259 13.4214 5.27259 12.7836 5.27259V5.05968C12.7836 4.19553 12.0564 3.49419 11.1889 3.49419H9.92586C8.48425 3.49419 7.31055 2.34198 7.31055 0.939297C7.31055 0.425815 7.74431 0 8.26737 0C8.80319 0 9.22419 0.425815 9.22419 0.939297C9.22419 1.31502 9.54313 1.61559 9.92586 1.61559H11.1889C13.1153 1.62812 14.6844 3.16856 14.6972 5.04716" fill="white"/>
<path fill-rule="evenodd" clip-rule="evenodd" d="M17.1132 5.30746C17.5228 5.31308 17.9334 5.31871 18.3454 5.32292C22.7723 5.32292 26 8.47896 26 12.8373V18.4355C26 22.7939 22.7723 25.9499 18.3454 25.9499C16.5721 25.9875 14.7988 26 13.0128 26C11.2267 26 9.42787 25.9875 7.65456 25.9499C3.22767 25.9499 0 22.7939 0 18.4355V12.8373C0 8.47896 3.22767 5.32292 7.66732 5.32292C9.33857 5.29788 11.0481 5.27283 12.7831 5.27283C13.421 5.27283 14.0589 5.27283 14.6968 5.28535C15.501 5.28535 16.3052 5.29638 17.1132 5.30746ZM11.505 16.5694H10.1654V17.8969C10.1654 18.4104 9.73166 18.8362 9.2086 18.8362C8.67278 18.8362 8.25178 18.4104 8.25178 17.8969V16.5694H6.89948C6.37641 16.5694 5.94266 16.1561 5.94266 15.6301C5.94266 15.1166 6.37641 14.6908 6.89948 14.6908H8.25178V13.3758C8.25178 12.8623 8.67278 12.4365 9.2086 12.4365C9.73166 12.4365 10.1654 12.8623 10.1654 13.3758V14.6908H11.505C12.028 14.6908 12.4618 15.1166 12.4618 15.6301C12.4618 16.1561 12.028 16.5694 11.505 16.5694ZM16.925 14.4528H17.0526C17.5757 14.4528 18.0094 14.0396 18.0094 13.5136C18.0094 13.0001 17.5757 12.5743 17.0526 12.5743H16.925C16.3892 12.5743 15.9682 13.0001 15.9682 13.5136C15.9682 14.0396 16.3892 14.4528 16.925 14.4528ZM19.1066 18.7611H19.2342C19.7572 18.7611 20.191 18.3478 20.191 17.8218C20.191 17.3083 19.7572 16.8825 19.2342 16.8825H19.1066C18.5708 16.8825 18.1498 17.3083 18.1498 17.8218C18.1498 18.3478 18.5708 18.7611 19.1066 18.7611Z" fill="white"/>
</svg>
