<svg width="29" height="26" viewBox="0 0 29 26" fill="none" xmlns="http://www.w3.org/2000/svg">
<path opacity="0.4" d="M27.8056 15.1326C26.6197 15.1326 25.6548 14.1765 25.6548 13.0014C25.6548 11.8249 26.6197 10.8689 27.8056 10.8689C28.093 10.8689 28.3689 10.7558 28.5711 10.5554C28.7748 10.3536 28.8889 10.0803 28.8889 9.79544L28.8874 5.92822C28.8874 2.65925 26.2022 0 22.9031 0H5.98578C2.68667 0 0.00144444 2.65925 0.00144444 5.92822L0 9.91996C0 10.2048 0.114111 10.4781 0.317778 10.68C0.52 10.8803 0.795889 10.9934 1.08333 10.9934C2.30967 10.9934 3.23411 11.8564 3.23411 13.0014C3.23411 14.1765 2.26922 15.1326 1.08333 15.1326C0.485333 15.1326 0 15.6135 0 16.206V20.0704C0 23.3393 2.68378 26 5.98433 26H22.9046C26.2051 26 28.8889 23.3393 28.8889 20.0704V16.206C28.8889 15.6135 28.4036 15.1326 27.8056 15.1326" fill="white"/>
<path d="M19.3981 12.4057L17.6951 14.064L18.0981 16.4083C18.1674 16.8142 18.0042 17.2143 17.6705 17.4541C17.3397 17.6967 16.9079 17.7271 16.5439 17.5335L14.4422 16.4285L12.3362 17.535C12.1802 17.6173 12.0097 17.6606 11.8407 17.6606C11.6197 17.6606 11.4016 17.5913 11.2139 17.4555C10.8816 17.2143 10.7184 16.8142 10.7877 16.4083L11.1893 14.064L9.4863 12.4057C9.19163 12.1197 9.08907 11.6994 9.21618 11.308C9.34474 10.918 9.67696 10.6406 10.0829 10.5829L12.4315 10.2405L13.4845 8.10707C13.668 7.74019 14.0349 7.51196 14.4422 7.51196H14.4451C14.8539 7.51341 15.2207 7.74163 15.4013 8.10852L16.4543 10.2405L18.8073 10.5843C19.2089 10.6406 19.5411 10.918 19.6682 11.308C19.7967 11.6994 19.6942 12.1197 19.3981 12.4057" fill="white"/>
</svg>
